<svg id="Layer_1" data-name="Layer 1" xmlns="http://www.w3.org/2000/svg" viewBox="0 0 353 326"><defs><style>.cls-1{fill:#a51d36;}.cls-2{fill:#fff;}.cls-3{fill:#231f20;}</style></defs><title>Artboard 13</title><rect class="cls-1" x="71.62" y="132.84" width="52.98" height="52.53"/><rect class="cls-2" x="80.53" y="138.53" width="35.59" height="2.83"/><rect class="cls-2" x="113.45" y="138.75" width="2.67" height="14.1"/><rect class="cls-2" x="80.53" y="140.38" width="2.67" height="12.47"/><rect class="cls-2" x="87.19" y="147.7" width="2.66" height="5.15"/><rect class="cls-2" x="87.19" y="145.29" width="9.36" height="2.7"/><rect class="cls-2" x="93.87" y="145.29" width="2.68" height="28.5"/><rect class="cls-2" x="88.54" y="171.13" width="8.01" height="2.66"/><rect class="cls-2" x="100.56" y="145.29" width="8.88" height="2.7" transform="translate(210.01 293.27) rotate(-180)"/><rect class="cls-2" x="100.56" y="145.29" width="2.68" height="28.5" transform="translate(203.81 319.08) rotate(-180)"/><rect class="cls-2" x="100.56" y="171.13" width="8.01" height="2.66" transform="translate(209.14 344.93) rotate(-180)"/><rect class="cls-2" x="106.79" y="146.9" width="2.66" height="5.98"/><rect class="cls-2" x="88.92" y="178.18" width="19.59" height="2.7"/><path class="cls-3" d="M132.7,138.87c.14-2.3.35-4.6.42-6.42h.64c.49.84.85.91,1.84.91h14.56c.92,0,1.13-.21,1.7-.91h.56c.08,1.47.22,4.12.43,6.35l-1.06.07a6,6,0,0,0-1.31-3.24c-.6-.67-1.73-.88-3.92-.88h-1.84V150.8c0,3.76.28,4,3.53,4.25v1H137.36v-1c3.12-.21,3.4-.49,3.4-4.25V134.75h-1.2c-3,0-4,.42-4.53,1.05a7.76,7.76,0,0,0-1.27,3.07Z"/><path class="cls-3" d="M164.52,152.85a7.72,7.72,0,0,1-5.66,3.59,7.07,7.07,0,0,1-7.42-7.32c-.07-4.36,3.22-8.65,7.88-8.65a5.26,5.26,0,0,1,5.27,5c0,1.29-.07,1.36-.74,1.5-.5.07-5.06.42-8.91.56-.07,4.39,2.72,6.21,5.37,6.21a5.92,5.92,0,0,0,3.71-1.47ZM160.38,146c.5,0,.64-.21.64-1,0-1.39-1.1-3.21-2.65-3.21s-3,1.64-3.25,4.26Z"/><path class="cls-3" d="M168.41,144.94c0-2.13-.07-2.2-2.26-2.41v-.8a49,49,0,0,0,5.9-1.33V143c.64-.45,1.28-.87,2-1.36a5.83,5.83,0,0,1,3.08-1.12,4.33,4.33,0,0,1,4.17,2.62c.85-.59,1.73-1.15,2.4-1.57a5.52,5.52,0,0,1,3-1.05c3.12,0,4.57,2,4.57,4.64v7.6c0,2,.21,2.13,2.19,2.34v1h-7.92v-1c1.94-.21,2.08-.35,2.08-2.34v-6.59c0-2.09-.84-3.24-2.75-3.24a5.46,5.46,0,0,0-3.33,1.4c0,.27.07.55.07.76v7.67c0,2,.15,2.13,2,2.34v1h-7.78v-1c2-.21,2.12-.35,2.12-2.34v-6.59c0-2.16-.92-3.24-2.72-3.24a5.22,5.22,0,0,0-3.29,1.4v8.43c0,2,.14,2.13,1.91,2.34v1h-8v-1c2.3-.21,2.44-.35,2.44-2.34Z"/><path class="cls-3" d="M200.8,142.57l3.54-1.89a4,4,0,0,1,1.41-.21c4,0,6.05,3.46,6.05,6.56,0,5.2-3.89,8.44-8.56,9.41a5.33,5.33,0,0,1-2.44-.55v4.7c0,1.85.21,2.06,3,2.27v1h-9.09v-1c2.2-.21,2.41-.42,2.41-2.27v-15.9c0-1.88-.07-1.95-2.41-2.16v-.8c1.81-.35,3.82-1,6.05-1.6Zm0,10.91a5.2,5.2,0,0,0,3.25,1.22c1.63,0,4-1.43,4-5.93s-2.08-5.89-4.35-5.89a5,5,0,0,0-2.86,1.05Z"/><path class="cls-3" d="M219.51,152.71c0,1.92.14,2.13,2.44,2.34v1h-8.49v-1c2.19-.21,2.4-.42,2.4-2.34V135.63c0-2.06-.07-2.06-2.36-2.27v-.91c1.52-.21,4.13-.76,6-1.18Z"/><path class="cls-3" d="M236.65,152.85a7.69,7.69,0,0,1-5.65,3.59,7.08,7.08,0,0,1-7.43-7.32c-.07-4.36,3.22-8.65,7.89-8.65a5.25,5.25,0,0,1,5.26,5c0,1.29-.07,1.36-.74,1.5-.49.07-5,.42-8.91.56-.07,4.39,2.72,6.21,5.38,6.21a6,6,0,0,0,3.71-1.47ZM232.52,146c.49,0,.63-.21.63-1,0-1.39-1.09-3.21-2.65-3.21s-3,1.64-3.25,4.26Z"/><path class="cls-3" d="M142.74,163.63v1c-2.62.21-2.9.42-2.9,4.19v7.36c0,5.54,1.84,8.64,6,8.64s6.4-3.2,6.4-9.31v-2.09a53.41,53.41,0,0,0-.32-7c-.18-1.26-1.17-1.68-3.43-1.82v-1h8.63v1c-1.77.07-2.69.56-2.87,1.82a53.41,53.41,0,0,0-.32,7v2.48c0,3.38-.63,6.27-2.58,8.33a9.08,9.08,0,0,1-6.54,2.62,9.89,9.89,0,0,1-6.29-1.85c-1.87-1.5-2.65-4-2.65-8.13v-8.05c0-3.77-.28-4-3.11-4.19v-1Z"/><path class="cls-3" d="M163.28,173.15c.71-.42,1.42-.88,2.05-1.29a5.44,5.44,0,0,1,3.11-1.12,4.31,4.31,0,0,1,4.56,4.6v7.71c0,1.92.15,2.06,2.13,2.27v1h-7.92v-1c2-.21,2.15-.35,2.15-2.27v-6.73c0-2.09-1-3.24-2.86-3.24a5.33,5.33,0,0,0-3.22,1.43v8.54c0,1.92.21,2.06,2,2.27v1h-8.13v-1c2.3-.21,2.51-.35,2.51-2.27V175.2c0-2.12-.07-2.19-2.26-2.4V172a49,49,0,0,0,5.9-1.33Z"/><path class="cls-3" d="M182.73,183c0,1.92.21,2.13,2.44,2.34v1h-8.48v-1c2.26-.21,2.4-.42,2.4-2.34V175.2c0-2.12-.07-2.19-2.26-2.4V172a49,49,0,0,0,5.9-1.33Zm.35-18.17a2.28,2.28,0,1,1-2.29-2.3A2.27,2.27,0,0,1,183.08,164.81Z"/><path class="cls-3" d="M193.09,171.16v1l-1.2.17c-.57.1-.57.42-.21,1.39,1,2.66,2.33,6.11,3.11,7.89.81-2,1.94-5.1,2.83-7.68.39-1.08.39-1.46-.36-1.57l-1.23-.2v-1h6.25v1c-1.77.2-2.08.41-2.83,2.05-1.44,3.18-3.21,7.26-5.16,12.38H193L188,174.33c-.74-1.78-.88-2-2.86-2.19v-1Z"/><path class="cls-3" d="M215.68,183.12a7.73,7.73,0,0,1-5.65,3.59,7.08,7.08,0,0,1-7.43-7.32c-.07-4.36,3.22-8.65,7.89-8.65a5.25,5.25,0,0,1,5.26,5c0,1.29-.07,1.36-.74,1.5-.49.07-5,.41-8.91.55-.07,4.4,2.73,6.21,5.38,6.21a6,6,0,0,0,3.71-1.46Zm-4.13-6.84c.49,0,.63-.2.63-1,0-1.4-1.09-3.21-2.65-3.21s-3,1.64-3.25,4.26Z"/><path class="cls-3" d="M223.22,174.19h.1c.85-1.32,2.27-3.52,4-3.52a2.17,2.17,0,0,1,2.19,2,2.52,2.52,0,0,1-1.45,2.2,1,1,0,0,1-1-.14,2.37,2.37,0,0,0-1.63-.77c-.6,0-1.41.42-2.19,2v7c0,1.92.21,2.13,2.79,2.34v1h-8.73v-1c2.08-.21,2.3-.42,2.3-2.34V175.2c0-2.12-.07-2.19-2.27-2.4V172a48.72,48.72,0,0,0,5.91-1.33Z"/><path class="cls-3" d="M231.88,181.17c.57,2.09,2.41,4.22,4.35,4.22a2.26,2.26,0,0,0,2.4-2.27c0-1.15-.77-2.16-2.68-2.93s-4.39-2.09-4.39-4.64,2-4.74,5.62-4.81a8.38,8.38,0,0,1,3.26.63,24.11,24.11,0,0,1,.85,3.52l-1,.28c-1.1-2.34-2.37-3.1-3.65-3.1a2,2,0,0,0-2.05,2.05c0,1.15,1.24,2.1,2.76,2.65,2.65,1,4.63,2.41,4.63,4.95,0,3.46-3.29,5-6.18,5a7.15,7.15,0,0,1-4.32-1.39,15.51,15.51,0,0,1-.49-4.08Z"/><path class="cls-3" d="M249.77,183c0,1.92.21,2.13,2.44,2.34v1h-8.48v-1c2.26-.21,2.4-.42,2.4-2.34V175.2c0-2.12-.07-2.19-2.26-2.4V172a49,49,0,0,0,5.9-1.33Zm.36-18.17a2.28,2.28,0,1,1-2.3-2.3A2.27,2.27,0,0,1,250.13,164.81Z"/><path class="cls-3" d="M259.25,166.66v4.5h3.64a1.12,1.12,0,0,1-.21,1.6h-3.43v8.62c0,2.72,1.31,3.17,2,3.17a4.79,4.79,0,0,0,2.16-.59l.42.87-3.11,1.53a2.44,2.44,0,0,1-1.16.35c-2.65,0-4-1.25-4-4.15v-9.8H253.2l-.21-.49,1.13-1.11h1.49v-2.09l3.14-2.69Z"/><path class="cls-3" d="M272.12,171.16v1l-1.06.17c-.81.1-.78.56-.43,1.46l3,7.78c.67-1.5,2.65-6.73,3.08-7.85s.35-1.29-.5-1.39l-1.27-.17v-1h6.47v1c-2,.27-2.08.38-3.07,2.37s-2.3,4.84-4.35,9.69c-2.34,5.41-3.18,7.78-3.79,9.63a1.09,1.09,0,0,1-1.13.9,2.08,2.08,0,0,1-2-1.74c0-.56.29-.87.85-1.26a7.69,7.69,0,0,0,2.62-3c.28-.63.74-1.68.88-2.09a1.46,1.46,0,0,0-.1-1.19c-1.63-4.5-3.54-9.07-4.32-11s-1-2.13-2.93-2.33v-1Z"/></svg>