<svg xmlns="http://www.w3.org/2000/svg" xmlns:xlink="http://www.w3.org/1999/xlink" viewBox="0 0 353 326"><defs><style>.cls-1{clip-path:url(#clip-path);}.cls-2{fill:none;}.cls-3{isolation:isolate;}.cls-4{fill:url(#linear-gradient);}.cls-5{fill:url(#linear-gradient-2);}.cls-6{fill:#231f20;}.cls-7{fill:url(#linear-gradient-3);}.cls-8{fill:url(#linear-gradient-4);}.cls-9{fill:url(#linear-gradient-5);}.cls-10{clip-path:url(#clip-path-2);}.cls-11{fill:#939598;}.cls-12{fill:#a91d36;}.cls-13{clip-path:url(#clip-path-4);}.cls-14{fill:url(#linear-gradient-6);}.cls-15{clip-path:url(#clip-path-5);}.cls-16{mix-blend-mode:soft-light;}.cls-17{clip-path:url(#clip-path-6);}.cls-18{clip-path:url(#clip-path-7);}.cls-19{fill:url(#radial-gradient);}.cls-20{clip-path:url(#clip-path-8);}.cls-21{mask:url(#mask);}.cls-22{clip-path:url(#clip-path-9);}.cls-23{mask:url(#mask-2);}.cls-24{mask:url(#mask-3);}.cls-25{fill:url(#linear-gradient-7);}.cls-26{clip-path:url(#clip-path-13);}.cls-27{mask:url(#mask-5);}.cls-28{clip-path:url(#clip-path-14);}.cls-29{fill:url(#linear-gradient-8);}</style><clipPath id="clip-path"><rect class="cls-2" x="80.69" y="140.54" width="19.77" height="13.62"/></clipPath><linearGradient id="linear-gradient" x1="32.41" y1="144.43" x2="32.78" y2="144.43" gradientTransform="translate(-4510.22 1188.95) rotate(-90) scale(31.86)" gradientUnits="userSpaceOnUse"><stop offset="0" stop-color="#231f20"/><stop offset="0.02" stop-color="#2f2b2c"/><stop offset="0.15" stop-color="#6d6b6b"/><stop offset="0.28" stop-color="#a1a0a0"/><stop offset="0.4" stop-color="#cac9c9"/><stop offset="0.5" stop-color="#e7e7e7"/><stop offset="0.59" stop-color="#f9f9f9"/><stop offset="0.66" stop-color="#fff"/><stop offset="1" stop-color="#fff"/></linearGradient><linearGradient id="linear-gradient-2" x1="32.41" y1="149.04" x2="32.78" y2="149.04" gradientTransform="matrix(0, -31.86, -31.86, 0, 4838.18, 1188.95)" gradientUnits="userSpaceOnUse"><stop offset="0"/><stop offset="0.07" stop-color="#2b2b2b"/><stop offset="0.19" stop-color="#6a6a6a"/><stop offset="0.31" stop-color="#a0a0a0"/><stop offset="0.42" stop-color="#c9c9c9"/><stop offset="0.51" stop-color="#e7e7e7"/><stop offset="0.6" stop-color="#f9f9f9"/><stop offset="0.66" stop-color="#fff"/><stop offset="1" stop-color="#fff"/></linearGradient><linearGradient id="linear-gradient-3" x1="37" y1="146.72" x2="38" y2="146.72" gradientTransform="translate(-1611.39 585.68) rotate(-90) scale(11.6)" gradientUnits="userSpaceOnUse"><stop offset="0" stop-color="#231f20"/><stop offset="0.02" stop-color="#2e2a2b"/><stop offset="0.15" stop-color="#6d6a6b"/><stop offset="0.28" stop-color="#a19fa0"/><stop offset="0.4" stop-color="#cac9c9"/><stop offset="0.5" stop-color="#e7e6e7"/><stop offset="0.59" stop-color="#f9f9f9"/><stop offset="0.66" stop-color="#fff"/><stop offset="1" stop-color="#fff"/></linearGradient><linearGradient id="linear-gradient-4" y1="146.72" y2="146.72" gradientTransform="matrix(0, -11.6, -11.6, 0, 1792.8, 585.68)" xlink:href="#linear-gradient-3"/><linearGradient id="linear-gradient-5" x1="33.51" y1="143.05" x2="33.88" y2="143.05" gradientTransform="translate(-2731.13 861.73) rotate(-90) scale(19.72)" gradientUnits="userSpaceOnUse"><stop offset="0" stop-color="#231f20"/><stop offset="0.15" stop-color="#585556"/><stop offset="0.3" stop-color="#8a8889"/><stop offset="0.46" stop-color="#b4b3b3"/><stop offset="0.61" stop-color="#d5d4d4"/><stop offset="0.75" stop-color="#ececec"/><stop offset="0.89" stop-color="#fafafa"/><stop offset="1" stop-color="#fff"/></linearGradient><clipPath id="clip-path-2"><rect class="cls-2" x="44.47" y="119.84" width="264.07" height="86.32"/></clipPath><clipPath id="clip-path-4"><path class="cls-2" d="M64.37,132l0,30.24c0,7.26,0,15.79,6.94,25,5.65,7.42,15.73,14.33,18.2,14.31s15.4-7.14,21.33-16.72c5.39-9,5.14-17.86,5.14-22.57V132a118.32,118.32,0,0,0-51.58,0"/></clipPath><linearGradient id="linear-gradient-6" x1="36.94" y1="146.16" x2="37.3" y2="146.16" gradientTransform="matrix(0, -226.8, 226.8, 0, -33058.71, 8580.52)" gradientUnits="userSpaceOnUse"><stop offset="0" stop-color="#d18d29"/><stop offset="0.13" stop-color="#d18d29"/><stop offset="0.22" stop-color="#dfa326"/><stop offset="0.37" stop-color="#f0be21"/><stop offset="0.5" stop-color="#facf1f"/><stop offset="0.6" stop-color="#fed51e"/><stop offset="0.95" stop-color="#fdf6b0"/><stop offset="1" stop-color="#fdf6b0"/></linearGradient><clipPath id="clip-path-5"><rect class="cls-2" x="55.85" y="121.83" width="251.07" height="84.33"/></clipPath><clipPath id="clip-path-6"><rect class="cls-2" x="32.87" y="105.98" width="114.78" height="117.84"/></clipPath><clipPath id="clip-path-7"><path class="cls-2" d="M89.9,129.18A118.27,118.27,0,0,0,64.37,132l0,30.24c0,7.26,0,15.79,6.94,25,5.64,7.41,15.7,14.31,18.2,14.31h0c2.46,0,15.4-7.16,21.31-16.72,5-8.23,5.14-16.42,5.14-21.34V132a118.67,118.67,0,0,0-25.58-2.85Z"/></clipPath><radialGradient id="radial-gradient" cx="36.87" cy="145.94" r="0.36" gradientTransform="translate(-24331.37 6368.11) rotate(-90) scale(167.35)" gradientUnits="userSpaceOnUse"><stop offset="0" stop-color="#d18d29"/><stop offset="0.13" stop-color="#d18d29"/><stop offset="0.22" stop-color="#dfa326"/><stop offset="0.37" stop-color="#f0be21"/><stop offset="0.5" stop-color="#facf1f"/><stop offset="0.6" stop-color="#fed51e"/><stop offset="0.65" stop-color="#fed82b"/><stop offset="0.74" stop-color="#fedf4f"/><stop offset="0.86" stop-color="#feea89"/><stop offset="1" stop-color="#fefad7"/></radialGradient><clipPath id="clip-path-8"><path class="cls-2" d="M96,154.17h0ZM88.14,144.1c.21,1.22,1,1.43.92,2.53,0,.54-.59,1.42-.84,2.38a3,3,0,0,0,.38,2.34c-3.56-1.79,1.67-7.16-4.07-8.29,2.65,1.93-2.21,4.37,1,8.29-2.79-1-.45-4.28-3.68-4.72.25.5,1,.67.68,1.83-1.8,3.69,2,5.71,2.76,5.71H96c1.09,0,4.48-1.76,3.81-6.33-.28,1.59-1.47,2.52-2.93,3.35,2.51-3.61,1.81-4.77.09-6,.71,3.81-1.77,2.47-2.09,6.07a4.35,4.35,0,0,1-.18-2.35c.5-1.63.72-2.46.18-3.18-1.24-1.09-2.23-1.67-1.68-3.31a2.73,2.73,0,0,0-1.1,2.47c.22,1.89,1.6,1.51.12,3.52a5.85,5.85,0,0,0-1,2.23c-.67-2.18.92-2.52.32-5-.2-.91-1.36-1.63-1.79-2.56s.17-2,.33-2.56a3.59,3.59,0,0,0-1.92,3.56"/></clipPath><mask id="mask" x="80.32" y="140.18" width="20.5" height="14.35" maskUnits="userSpaceOnUse"><g class="cls-1"><rect x="80.32" y="140.18" width="20.5" height="14.35"/><g class="cls-3"><rect class="cls-4" x="80.69" y="140.54" width="19.77" height="13.62"/></g></g></mask><clipPath id="clip-path-9"><rect class="cls-2" x="80.69" y="140.54" width="19.77" height="13.62"/></clipPath><mask id="mask-2" x="80.69" y="140.54" width="19.77" height="13.62" maskUnits="userSpaceOnUse"><rect class="cls-5" x="80.69" y="140.54" width="19.77" height="13.62"/></mask><mask id="mask-3" x="79.69" y="139.54" width="21.77" height="15.62" maskUnits="userSpaceOnUse"><rect class="cls-6" x="79.69" y="139.54" width="21.77" height="15.62"/><g class="cls-3"><rect class="cls-7" x="80.69" y="140.54" width="19.77" height="13.62"/></g></mask><linearGradient id="linear-gradient-7" x1="37" y1="146.72" x2="38" y2="146.72" gradientTransform="matrix(0, -11.6, -11.6, 0, 1792.8, 585.68)" gradientUnits="userSpaceOnUse"><stop offset="0" stop-color="#fed51f"/><stop offset="0.04" stop-color="#f6c321"/><stop offset="0.15" stop-color="#df9128"/><stop offset="0.26" stop-color="#cb672d"/><stop offset="0.37" stop-color="#bc4731"/><stop offset="0.47" stop-color="#b23034"/><stop offset="0.57" stop-color="#ab2235"/><stop offset="0.66" stop-color="#a91d36"/><stop offset="1" stop-color="#a91d36"/></linearGradient><clipPath id="clip-path-13"><path class="cls-2" d="M77.47,181.7c-4.78-7-4.76-13.7-4.77-19.19q0-11.67,0-23.35a88.85,88.85,0,0,1,34.92,0v23.75c0,3.66,0,10.33-3.53,17-4.1,7.51-12.94,12.81-14.4,12.79h0c-1.43,0-8.27-5-12.26-11m-5.24-42.92q0,11.9,0,23.79c0,5.55,0,12.26,4.83,19.41,4,5.88,11,11.2,12.71,11.2s10.86-5.75,14.86-13.06c3.61-6.73,3.59-13.46,3.59-17.16V138.79a88,88,0,0,0-35.95,0"/></clipPath><mask id="mask-5" x="72.17" y="136.85" width="36.03" height="56.35" maskUnits="userSpaceOnUse"><rect x="72.17" y="136.85" width="36.03" height="56.35"/><g class="cls-3"><rect class="cls-9" x="72.17" y="136.85" width="36.03" height="56.35"/></g></mask><clipPath id="clip-path-14"><rect class="cls-2" x="72.17" y="136.85" width="36.03" height="56.35"/></clipPath><linearGradient id="linear-gradient-8" x1="33.51" y1="143.05" x2="33.88" y2="143.05" gradientTransform="translate(-2731.13 861.73) rotate(-90) scale(19.72)" gradientUnits="userSpaceOnUse"><stop offset="0" stop-color="#daa228"/><stop offset="0.28" stop-color="#d69f29"/><stop offset="1" stop-color="#d29c2a"/></linearGradient></defs><title>Artboard 7</title><g class="cls-3"><g id="Layer_1" data-name="Layer 1"><g class="cls-10"><g class="cls-10"><path class="cls-11" d="M131.26,157.64c0,2.11-1.25,3.14-3.34,3.14s-3.33-1-3.33-3.14v-4.87h1.72v4.87c0,.85.22,1.7,1.61,1.7,1.23,0,1.62-.54,1.62-1.7v-4.87h1.72Z"/><path class="cls-11" d="M132.74,152.77h1.71l3.27,5.25h0v-5.25h1.61v7.83h-1.72l-3.26-5.24h0v5.24h-1.61Z"/><path class="cls-11" d="M140.86,152.77h1.72v7.83h-1.72Z"/><path class="cls-11" d="M147.73,160.6h-1.94l-2.55-7.83H145l1.74,5.5h0l1.77-5.5h1.77Z"/><path class="cls-11" d="M151,152.77h5.85v1.45h-4.13v1.67h3.79v1.34h-3.79v1.92h4.22v1.45H151Z"/><path class="cls-11" d="M158.09,152.77h4.22a2.15,2.15,0,0,1,2.29,2.16,1.92,1.92,0,0,1-1.24,2v0c.85.22,1.09,1,1.14,1.83a4.21,4.21,0,0,0,.33,1.86h-1.72a8.18,8.18,0,0,1-.27-1.88c-.13-.82-.44-1.18-1.31-1.18h-1.72v3.06h-1.72Zm1.72,3.54h1.89c.76,0,1.18-.33,1.18-1.12s-.42-1.08-1.18-1.08h-1.89Z"/><path class="cls-11" d="M167.17,158c0,1,.81,1.45,1.73,1.45.61,0,1.53-.18,1.53-1s-1.18-1-2.33-1.29-2.33-.76-2.33-2.23,1.51-2.37,2.92-2.37c1.64,0,3.14.72,3.14,2.52h-1.67c0-.94-.72-1.18-1.54-1.18-.55,0-1.19.23-1.19.89s.38.68,2.34,1.18c.57.14,2.32.51,2.32,2.28,0,1.44-1.13,2.51-3.25,2.51-1.74,0-3.36-.85-3.34-2.78Z"/><path class="cls-11" d="M173.11,152.77h1.72v7.83h-1.72Z"/><path class="cls-11" d="M176.34,152.77h3.38c2,0,3.55,1.27,3.55,3.87,0,2.27-1.16,4-3.55,4h-3.38Zm1.72,6.38h1.54c1,0,2-.61,2-2.35,0-1.57-.55-2.58-2.26-2.58h-1.23Z"/><path class="cls-11" d="M186.59,152.77h1.77l2.93,7.83H189.5l-.59-1.75H186l-.61,1.75h-1.75Zm-.16,4.8h2l-1-2.87h0Z"/><path class="cls-11" d="M192,152.77h3.38c2,0,3.55,1.27,3.55,3.87,0,2.27-1.16,4-3.55,4H192Zm1.72,6.38h1.54c1,0,1.95-.61,1.95-2.35,0-1.57-.55-2.58-2.26-2.58h-1.23Z"/><path class="cls-11" d="M202.91,152.77h3.53a2.52,2.52,0,1,1,0,5h-1.81v2.81h-1.72Zm1.72,3.68H206c.8,0,1.51-.17,1.51-1.17s-.71-1.17-1.51-1.17h-1.34Z"/><path class="cls-11" d="M210.21,152.77h5.86v1.45h-4.14v1.67h3.8v1.34h-3.8v1.92h4.22v1.45h-5.94Z"/><path class="cls-11" d="M217.31,152.77h4.22a2.15,2.15,0,0,1,2.29,2.16,1.92,1.92,0,0,1-1.23,2v0c.84.22,1.08,1,1.14,1.83a4.35,4.35,0,0,0,.32,1.86h-1.72a9.45,9.45,0,0,1-.27-1.88c-.12-.82-.44-1.18-1.31-1.18H219v3.06h-1.72Zm1.72,3.54h1.89c.77,0,1.18-.33,1.18-1.12s-.41-1.08-1.18-1.08H219Z"/><path class="cls-11" d="M231.86,157.64c0,2.11-1.24,3.14-3.34,3.14s-3.33-1-3.33-3.14v-4.87h1.72v4.87c0,.85.22,1.7,1.61,1.7,1.23,0,1.62-.54,1.62-1.7v-4.87h1.72Z"/><path class="cls-11" d="M235.48,152.77h1.76l2.93,7.83h-1.79l-.59-1.75h-2.93l-.61,1.75h-1.74Zm-.17,4.8h2l-1-2.87h0Z"/><path class="cls-11" d="M240.84,152.77h1.71l3.27,5.25h0v-5.25h1.61v7.83h-1.72l-3.25-5.24h0v5.24h-1.62Z"/><path class="cls-11" d="M251.1,152.77h1.76l2.93,7.83H254l-.59-1.75h-2.92l-.62,1.75h-1.74Zm-.16,4.8h2l-1-2.87h0Z"/><path class="cls-12" d="M133.22,169.38a2.7,2.7,0,0,0-2.73-2.19c-2.46,0-3.39,2.1-3.39,4.29s.93,4.18,3.39,4.18c1.68,0,2.62-1.16,2.83-2.8H136a5.27,5.27,0,0,1-5.49,5.1c-3.86,0-6.13-2.88-6.13-6.48s2.27-6.59,6.13-6.59a5.06,5.06,0,0,1,5.39,4.49Z"/><path class="cls-12" d="M141.26,165.18h2.82l4.67,12.49H145.9l-1-2.78h-4.66l-1,2.78h-2.78Zm-.26,7.66h3.24l-1.58-4.58h0Z"/><path class="cls-12" d="M151.79,172.81l-4.59-7.63h3.09l2.92,4.93,2.9-4.93h3.06l-4.63,7.7v4.79h-2.75Z"/><path class="cls-12" d="M160.22,165.18h9.34v2.31H163v2.68H169v2.13H163v3.06h6.73v2.31h-9.48Z"/><path class="cls-12" d="M174.32,167.49h-3.74v-2.31H180.8v2.31h-3.74v10.18h-2.74Z"/><path class="cls-12" d="M184,165.18h2.82l4.66,12.49h-2.85l-.94-2.78h-4.67l-1,2.78H179.3Zm-.26,7.66H187l-1.57-4.58h0Z"/><path class="cls-12" d="M192.61,165.18h2.73l5.21,8.38h0v-8.38h2.57v12.49h-2.74l-5.19-8.36h0v8.36h-2.57Z"/><path class="cls-12" d="M211.16,164.89c3.87,0,6.14,2.88,6.14,6.59S215,178,211.16,178s-6.13-2.88-6.13-6.48S207.3,164.89,211.16,164.89Zm0,10.77c2.47,0,3.4-2.1,3.4-4.18s-.93-4.29-3.4-4.29-3.39,2.1-3.39,4.29S208.7,175.66,211.16,175.66Z"/><path class="cls-12" d="M223.67,165.18h2.74V170h5.06v-4.79h2.74v12.49h-2.74v-5.39h-5.06v5.39h-2.74Z"/><path class="cls-12" d="M236.63,165.18H246v2.31h-6.59v2.68h6v2.13h-6v3.06h6.73v2.31h-9.47Z"/><path class="cls-12" d="M248,165.18h6.73a3.43,3.43,0,0,1,3.65,3.45,3.07,3.07,0,0,1-2,3.13v0c1.34.35,1.73,1.66,1.82,2.92a6.79,6.79,0,0,0,.52,3H256a13.43,13.43,0,0,1-.44-3c-.19-1.31-.7-1.89-2.08-1.89H250.7v4.88H248Zm2.74,5.65h3c1.22,0,1.89-.52,1.89-1.78s-.67-1.73-1.89-1.73h-3Z"/><path class="cls-12" d="M260.58,165.18h9.34v2.31h-6.59v2.68h6.05v2.13h-6.05v3.06h6.73v2.31h-9.48Z"/><path class="cls-12" d="M271.92,165.18h5.38c3.24,0,5.67,2,5.67,6.17,0,3.62-1.86,6.32-5.67,6.32h-5.38Zm2.74,10.18h2.45c1.59,0,3.11-1,3.11-3.74,0-2.52-.87-4.13-3.6-4.13h-2Z"/><path class="cls-12" d="M284.87,165.18h2.75v12.49h-2.75Z"/><path class="cls-12" d="M293.44,165.18h2.82l4.67,12.49h-2.85l-.95-2.78h-4.67l-1,2.78H288.7Zm-.26,7.66h3.23l-1.57-4.58h0Z"/><g class="cls-13"><rect class="cls-14" x="49.9" y="121.11" width="80.72" height="88.53" transform="translate(-69.53 65.57) rotate(-29.39)"/></g><g class="cls-15"><g class="cls-16"><g class="cls-17"><g class="cls-18"><rect class="cls-19" x="49.84" y="121.16" width="80.59" height="88.42" transform="translate(-69.79 65.9) rotate(-29.53)"/></g></g></g></g><g class="cls-20"><g class="cls-21"><g class="cls-22"><g class="cls-22"><g class="cls-23"><g class="cls-24"><g class="cls-22"><g class="cls-23"><rect class="cls-25" x="80.69" y="140.54" width="19.77" height="13.62"/></g></g></g></g></g></g></g></g><g class="cls-15"><path class="cls-6" d="M98.4,164c1.71.26,3,0,3.82-1.13l0-.46c-.47.83-1.86,1.21-3.73,1.13-1.29-.21-2.31-1.22-3.66-1.22.18-.7.88-1,2.16-.92l-.19,1.18.3,0,.71-1.42a13.4,13.4,0,0,1-3.48-1.76.78.78,0,0,0-.32,0,9.33,9.33,0,0,0-1.85,0h-.25l.08-1.54,3.28-.69v-1.54l4-.77v-.74H81.06v.63l3.89.88v1.72l3.27.51,0,1.9a9.25,9.25,0,0,0-1.77.6c-1.92,1-3.27,2.22-3.39,4.26v.74c.2,2.72,2.35,3.19,5.4,3.94l.12,4.78a5.78,5.78,0,0,0-4.31,3.15,3.38,3.38,0,0,0,.42,2.91c.93,1.85,2.6,2.26,4.1,2.46l.22,8.9h1l.48-8.61a1.86,1.86,0,0,1,.41,3.49l.66.55a6.64,6.64,0,0,0,1.18-1.56c1.1-2.09-.22-3.61-2.16-4.06l.31-5.52.92-.35a5.84,5.84,0,0,0,2.11-1,3.94,3.94,0,0,0,1.37-3.7A2.63,2.63,0,0,0,94,168.54a9.34,9.34,0,0,0-2.55-1.11l.31-5.52h.1c.91.05,1.54.94,2.14,1.54a.8.8,0,0,0,.24.22L95.43,165l.89-.92-.23-.2-.57.46-.26-.22a2.7,2.7,0,0,1-.59-1.22v-.2A7.53,7.53,0,0,1,98,164.44c1.75,1,2.72.28,3.64-.13-1.5.32-2.59.24-3.27-.3m-9.61,16.77c-2-1-2.88-3-.91-3.83l.81-.28Zm3.75-9.38c0,.81-.21,1.45-1.46,2l.19-3.28c.72.3,1.27.69,1.27,1.28m-4.61-4.87c-1.09-.43-1.81-.72-1.9-1.9,0-.79.72-1.78,2.3-2.33l.11,4.4a2.68,2.68,0,0,1-.51-.17m6-6.28s0,0-.1,0c-.26-.13-.36-.31-.32-.39s.2-.09.42,0a.11.11,0,0,0,.08,0c.24.13.42.28.34.43s-.22.08-.42,0"/></g><g class="cls-26"><g class="cls-27"><g class="cls-28"><g class="cls-28"><rect class="cls-29" x="72.17" y="136.85" width="36.03" height="56.35"/></g></g></g></g><g class="cls-15"><path class="cls-12" d="M68.19,152.51a.82.82,0,0,0-.44.2.58.58,0,0,0-.14.41.67.67,0,0,0,0,.26.42.42,0,0,0,.16.19.54.54,0,0,0,.27.07.53.53,0,0,0,.26-.06.84.84,0,0,0,.21-.18,3.62,3.62,0,0,0,.21-.34,2.18,2.18,0,0,1,.2-.34,1,1,0,0,1,.22-.26.65.65,0,0,1,.27-.17.94.94,0,0,1,.84.09.89.89,0,0,1,.31.43,1.79,1.79,0,0,1,.11.64c0,.15,0,.29,0,.42s0,.28-.09.45h-.7V154a.85.85,0,0,0,.3-.12.4.4,0,0,0,.17-.17.59.59,0,0,0,.05-.27.66.66,0,0,0,0-.25.41.41,0,0,0-.15-.17.42.42,0,0,0-.23-.07.45.45,0,0,0-.24.06.84.84,0,0,0-.21.18,3.28,3.28,0,0,0-.22.37A3.09,3.09,0,0,1,69,154a.88.88,0,0,1-.73.33,1,1,0,0,1-.52-.14,1,1,0,0,1-.34-.4,1.71,1.71,0,0,1-.11-.62,4.63,4.63,0,0,1,0-.51,2.72,2.72,0,0,1,.08-.51h.75Z"/><path class="cls-12" d="M68,157.51h-.23a.23.23,0,0,0-.1,0,.27.27,0,0,0-.07.08.5.5,0,0,0,0,.16h-.16v-1.3h.15a1,1,0,0,0,.06.14.15.15,0,0,0,.08.08.35.35,0,0,0,.12,0h2.48a.21.21,0,0,0,.12,0,.15.15,0,0,0,.08-.08.38.38,0,0,0,.05-.14h.16v1.41a1.54,1.54,0,0,1-.22.92.77.77,0,0,1-.67.3,1,1,0,0,1-.56-.14,1,1,0,0,1-.37-.41,1.94,1.94,0,0,1-.11-.68c0-.16,0-.29,0-.39Zm1,0v.21a1,1,0,0,0,.07.38.43.43,0,0,0,.22.22,1.09,1.09,0,0,0,.4.06,1.05,1.05,0,0,0,.4-.06.45.45,0,0,0,.22-.21.78.78,0,0,0,.06-.33v-.27Z"/><path class="cls-12" d="M68,162.31h-.16l-.12,0-.08,0a.16.16,0,0,0,0,.08.83.83,0,0,0,0,.12h-.16v-1.28h.16a.38.38,0,0,0,0,.14.2.2,0,0,0,.08.08.24.24,0,0,0,.12,0h2.48a.28.28,0,0,0,.13,0,.2.2,0,0,0,.08-.08.38.38,0,0,0,.05-.14h.16v1.27h-.16a.26.26,0,0,0-.06-.14.12.12,0,0,0-.07-.07l-.12,0H68Z"/><path class="cls-12" d="M67.42,166l0-1.28h.16a1,1,0,0,0,.06.14.14.14,0,0,0,.08.07.21.21,0,0,0,.12,0H68l2.09-.08.19,0a.28.28,0,0,0,.13,0l.07-.08a1.31,1.31,0,0,0,0-.15h.16l.06,1.42a2.43,2.43,0,0,1,0,.49,1.2,1.2,0,0,1-.11.35.5.5,0,0,1-.16.22.76.76,0,0,1-.23.15,1.3,1.3,0,0,1-.32.06,1,1,0,0,1-.41-.07.8.8,0,0,1-.29-.22,1.39,1.39,0,0,1-.23-.37h0a1.17,1.17,0,0,1-.19.31,1.72,1.72,0,0,1-.33.22l-.32.17a1.34,1.34,0,0,0-.33.22.39.39,0,0,0-.12.24h-.16l0-.94a3.84,3.84,0,0,1,.56-.34l.41-.2.26-.16a.31.31,0,0,0,.1-.13.38.38,0,0,0,0-.2v-.14l-.79,0-.25,0a.21.21,0,0,0-.11.07.39.39,0,0,0-.07.18Zm3-.38-1.35.05v.24a.91.91,0,0,0,.06.32.64.64,0,0,0,.16.2.85.85,0,0,0,.22.09,1.29,1.29,0,0,0,.28,0,.7.7,0,0,0,.49-.17.66.66,0,0,0,.15-.47c0-.14,0-.23,0-.27"/><path class="cls-12" d="M68.41,170.61l-.16,0-.11,0a.13.13,0,0,0-.07.05.22.22,0,0,0,0,.08.51.51,0,0,0,0,.13l-.16,0-.16-1.27.16,0c0,.06,0,.1.06.14l.09.06a.27.27,0,0,0,.13,0l.2,0,2.08-.26.18,0a.33.33,0,0,0,.12,0s.06,0,.08-.08,0-.09,0-.15l.16,0,.15,1.26-.15,0-.08-.14-.08-.06-.12,0-.21,0Z"/><path class="cls-12" d="M68.35,173.76l.16,0a.37.37,0,0,0,.08.14.17.17,0,0,0,.1.07h.13l.19,0,2.35-.58,0-.19a.42.42,0,0,0-.08-.21.35.35,0,0,0-.13-.11.67.67,0,0,0-.22,0l-.25,0-.07-.32.83-.2.68,2.77-.83.21-.08-.33.22-.13a.36.36,0,0,0,.12-.08.35.35,0,0,0,.06-.09.18.18,0,0,0,0-.09.37.37,0,0,0,0-.11.5.5,0,0,0,0-.16l0-.17-2.35.58-.19.05-.09.05a.17.17,0,0,0-.06.06.2.2,0,0,0,0,.09.33.33,0,0,0,0,.14l-.16,0Z"/><path class="cls-12" d="M72.82,178.7a1,1,0,0,0,.23-.11.25.25,0,0,0,.08-.1.4.4,0,0,0,0-.2l.14-.06.42,1-.15.06a.57.57,0,0,0-.1-.11.25.25,0,0,0-.11,0,.25.25,0,0,0-.12,0l-.18.06-1.4.59a2.12,2.12,0,0,1-.48.15,1.21,1.21,0,0,1-.38,0,1,1,0,0,1-.31-.15,1.05,1.05,0,0,1-.24-.27,3.29,3.29,0,0,1-.2-.38,2.42,2.42,0,0,1-.16-.56,1,1,0,0,1,0-.44.81.81,0,0,1,.24-.34,1.51,1.51,0,0,1,.46-.27l1.45-.61.17-.08a.31.31,0,0,0,.11-.08.31.31,0,0,0,0-.26l.15-.06.5,1.18-.15.06a.56.56,0,0,0-.11-.11.12.12,0,0,0-.09,0h-.13l-.19.07-1.47.62a1.91,1.91,0,0,0-.32.16.65.65,0,0,0-.21.19.44.44,0,0,0-.1.23.88.88,0,0,0,.06.29.61.61,0,0,0,.24.31.56.56,0,0,0,.32,0,1.59,1.59,0,0,0,.51-.16Z"/><path class="cls-12" d="M72.5,182.21a.91.91,0,0,0-.27.4.59.59,0,0,0,.09.43.7.7,0,0,0,.18.2.45.45,0,0,0,.23.07.4.4,0,0,0,.26-.08.51.51,0,0,0,.2-.18.88.88,0,0,0,.09-.26,2.77,2.77,0,0,0,0-.41c0-.14,0-.27,0-.39a1.72,1.72,0,0,1,.06-.34.69.69,0,0,1,.15-.28.73.73,0,0,1,.24-.22.83.83,0,0,1,.51-.14.87.87,0,0,1,.49.2,2.19,2.19,0,0,1,.44.5l.19.37c.05.12.1.26.16.43l-.6.36-.18-.29a1.39,1.39,0,0,0,.21-.25.51.51,0,0,0,0-.24.48.48,0,0,0-.09-.26.52.52,0,0,0-.17-.19.38.38,0,0,0-.21-.07.39.39,0,0,0-.23.07.42.42,0,0,0-.18.17.57.57,0,0,0-.08.26,3.17,3.17,0,0,0,0,.44,1.92,1.92,0,0,1,0,.55.84.84,0,0,1-.15.39.9.9,0,0,1-.3.28,1,1,0,0,1-.52.15.88.88,0,0,1-.5-.17,1.54,1.54,0,0,1-.41-.46,4,4,0,0,1-.24-.46c-.08-.16-.14-.32-.2-.47l.64-.39Z"/><path class="cls-12" d="M79.14,187.86l.18-.19a.28.28,0,0,0,0-.12.49.49,0,0,0-.06-.19l.11-.11.73.78-.12.11-.13-.06a.14.14,0,0,0-.11,0l-.12.06-.14.13-1.11,1a2.29,2.29,0,0,1-.4.31.86.86,0,0,1-.35.12.65.65,0,0,1-.34,0,1.07,1.07,0,0,1-.32-.16,4,4,0,0,1-.32-.29,2.14,2.14,0,0,1-.34-.48,1,1,0,0,1-.11-.43,1,1,0,0,1,.11-.4,1.67,1.67,0,0,1,.34-.41l1.15-1.07.13-.14a.38.38,0,0,0,.08-.11.2.2,0,0,0,0-.11L78,186l.12-.11.87.93-.12.11-.14-.07H78.6l-.1.05a.87.87,0,0,0-.16.14l-1.17,1.09a1.89,1.89,0,0,0-.24.26.75.75,0,0,0-.14.24.53.53,0,0,0,0,.25.58.58,0,0,0,.15.26.57.57,0,0,0,.33.2.54.54,0,0,0,.32-.06,2.24,2.24,0,0,0,.42-.33Z"/><path class="cls-12" d="M82.16,192a1.31,1.31,0,0,1,.19.58.73.73,0,0,1-.19.48,1.19,1.19,0,0,1-.34.27.82.82,0,0,1-.38.06,1.3,1.3,0,0,1-.41-.13,3.33,3.33,0,0,1-.46-.34l-1.12-1,.1-.12a.48.48,0,0,0,.14.05.14.14,0,0,0,.11,0,.28.28,0,0,0,.11-.07l.13-.14,1.37-1.58.13-.15a.27.27,0,0,0,0-.11.14.14,0,0,0,0-.11.7.7,0,0,0-.08-.14l.11-.12,1.2,1.05a3.22,3.22,0,0,1,.32.31,1.47,1.47,0,0,1,.21.35.62.62,0,0,1,0,.33.67.67,0,0,1-.17.32.89.89,0,0,1-1,.19Zm-1.77.38.25.23a.91.91,0,0,0,.33.2.39.39,0,0,0,.3,0,.72.72,0,0,0,.32-.24.76.76,0,0,0,.16-.25.51.51,0,0,0,0-.24.51.51,0,0,0-.09-.22,1,1,0,0,0-.2-.23l-.26-.22Zm1.28-1a.8.8,0,0,0,.33.2.61.61,0,0,0,.3,0,.71.71,0,0,0,.28-.23.6.6,0,0,0,.16-.29.45.45,0,0,0-.06-.27,1,1,0,0,0-.24-.27,2.32,2.32,0,0,0-.25-.21l-.76.87Z"/><path class="cls-12" d="M84.62,195.37l-.09.12,0,.11a.14.14,0,0,0,0,.09.16.16,0,0,0,0,.09.46.46,0,0,0,.07.1l-.1.13-1-.75.1-.13.15,0a.12.12,0,0,0,.1,0,.16.16,0,0,0,.1-.08l.13-.15,1.24-1.69a1,1,0,0,0,.1-.16.21.21,0,0,0,0-.12.22.22,0,0,0,0-.11l-.09-.12.1-.13,1,.75-.1.13a.68.68,0,0,0-.15,0,.16.16,0,0,0-.1,0,.26.26,0,0,0-.1.07l-.13.16Z"/><path class="cls-12" d="M94.92,193.27l-.06-.19a.56.56,0,0,0-.09-.17.22.22,0,0,0-.15-.12.36.36,0,0,0-.19,0l-.09-.13.88-.57.08.13a.41.41,0,0,0-.1.14.47.47,0,0,0,0,.17,1.53,1.53,0,0,0,0,.3l.63,2.82-.48.31-2.15-1.84A1.46,1.46,0,0,0,93,194a.35.35,0,0,0-.14-.06l-.18,0-.08-.13,1.12-.73.09.14a.3.3,0,0,0-.12.16.2.2,0,0,0,0,.16.6.6,0,0,0,.09.13l.19.17,1.35,1.2Z"/><path class="cls-12" d="M98.72,190.18a1.22,1.22,0,0,0-.17-.19.16.16,0,0,0-.12-.05.32.32,0,0,0-.19.05l-.1-.13.83-.67.1.12a1.17,1.17,0,0,0-.08.13.22.22,0,0,0,0,.11.61.61,0,0,0,0,.12l.12.16,1,1.17a3,3,0,0,1,.28.42,1.09,1.09,0,0,1,.1.36.79.79,0,0,1-.06.34,1,1,0,0,1-.19.31,2.09,2.09,0,0,1-.3.29,1.9,1.9,0,0,1-.5.31.88.88,0,0,1-.44.08.75.75,0,0,1-.38-.13,1.67,1.67,0,0,1-.4-.37l-1-1.22-.12-.14a.28.28,0,0,0-.12-.08.16.16,0,0,0-.1,0,.37.37,0,0,0-.15.05l-.1-.13,1-.8.1.12a.75.75,0,0,0-.08.14.38.38,0,0,0,0,.1.27.27,0,0,0,0,.11.91.91,0,0,0,.12.17l1,1.24a2,2,0,0,0,.23.26.79.79,0,0,0,.24.15.43.43,0,0,0,.25,0,.61.61,0,0,0,.26-.14.5.5,0,0,0,.23-.31.52.52,0,0,0,0-.32,1.9,1.9,0,0,0-.3-.44Z"/><path class="cls-12" d="M101.32,186.92l.12.12a.49.49,0,0,0-.06.13.2.2,0,0,0,0,.11.3.3,0,0,0,.06.11l.14.15,1.72,1.69.33-.34a.5.5,0,0,0,.13-.19.44.44,0,0,0,0-.2,1.18,1.18,0,0,0-.1-.25l-.14-.24.23-.24.66.73-1.62,1.65-.11-.11a.34.34,0,0,0,0-.14.11.11,0,0,0,0-.11.24.24,0,0,0-.06-.11l-.13-.14-1.5-1.46a.55.55,0,0,0-.14-.13l-.11-.07h-.11l-.14.07-.12-.12Z"/><path class="cls-12" d="M106.39,186.14l-.13-.1a.77.77,0,0,0,.06-.15.16.16,0,0,0,0-.12.38.38,0,0,0-.08-.11,1.32,1.32,0,0,0-.16-.12l-1.95-1.43-.12.16a.73.73,0,0,0-.1.2.32.32,0,0,0,0,.17.69.69,0,0,0,.09.2l.15.19-.19.27-.69-.5,1.69-2.31.68.5-.2.27-.23-.08-.14,0a.24.24,0,0,0-.12,0,.16.16,0,0,0-.09,0,.24.24,0,0,0-.09.06l-.1.12-.11.15,2,1.42a.57.57,0,0,0,.16.11l.1.05h.08l.09,0,.1-.09.14.09Z"/><path class="cls-12" d="M109.34,179.33a.82.82,0,0,0,.48,0,.56.56,0,0,0,.28-.33.85.85,0,0,0,.05-.26.4.4,0,0,0-.08-.23.5.5,0,0,0-.23-.16.49.49,0,0,0-.52.05,1.47,1.47,0,0,0-.32.24c-.11.09-.21.18-.31.25a1.3,1.3,0,0,1-.31.16.8.8,0,0,1-.3.06,1,1,0,0,1-.33-.06.83.83,0,0,1-.42-.33.85.85,0,0,1-.14-.51,1.79,1.79,0,0,1,.13-.65c.06-.13.11-.25.18-.37a4.35,4.35,0,0,1,.23-.39l.66.25-.12.32a.91.91,0,0,0-.33,0,.44.44,0,0,0-.22.1.56.56,0,0,0-.14.23.59.59,0,0,0,0,.25.48.48,0,0,0,.07.21.43.43,0,0,0,.2.14.42.42,0,0,0,.24,0,.81.81,0,0,0,.26-.09,3.89,3.89,0,0,0,.34-.27,2.24,2.24,0,0,1,.46-.33.82.82,0,0,1,.39-.11.87.87,0,0,1,.41.07.89.89,0,0,1,.43.32.77.77,0,0,1,.17.49,1.41,1.41,0,0,1-.11.62c-.06.15-.13.31-.21.47s-.17.3-.26.44l-.7-.27Z"/><path class="cls-12" d="M111.22,174.19l.23,0a.2.2,0,0,0,.11,0s.06,0,.08-.06a.34.34,0,0,0,.08-.14l.16,0-.3,1.28-.15,0a.61.61,0,0,0,0-.15.15.15,0,0,0-.06-.09.2.2,0,0,0-.12-.06l-.18,0-2-.48-.19,0h-.12a.21.21,0,0,0-.1.06.48.48,0,0,0-.09.13l-.15,0,.32-1.37a1.5,1.5,0,0,1,.42-.84.77.77,0,0,1,.73-.15,1,1,0,0,1,.51.27.84.84,0,0,1,.26.48,1.64,1.64,0,0,1,0,.69c0,.15-.07.28-.1.38Zm-1-.24,0-.2a1.08,1.08,0,0,0,0-.39.41.41,0,0,0-.17-.26,1,1,0,0,0-.38-.16.93.93,0,0,0-.4,0,.4.4,0,0,0-.26.15.73.73,0,0,0-.14.32c0,.11,0,.19,0,.25Z"/><path class="cls-12" d="M112.11,169l.16,0h.12s.06,0,.08,0l.06-.07.06-.11h.15l-.14,1.27-.16,0a.39.39,0,0,0,0-.14.2.2,0,0,0-.06-.09l-.13-.05-.19,0-2.08-.24-.19,0a.27.27,0,0,0-.13,0,.16.16,0,0,0-.08.06.46.46,0,0,0-.07.14l-.16,0,.14-1.26h.17a.5.5,0,0,0,0,.16l.06.08.12,0a.69.69,0,0,0,.2,0Z"/><path class="cls-12" d="M113,164.75l0,1.27h-.17a.26.26,0,0,0-.05-.14.11.11,0,0,0-.07-.08.42.42,0,0,0-.12,0h-.2l-2.09-.05h-.19l-.13,0a.2.2,0,0,0-.08.08.64.64,0,0,0-.06.14h-.16l0-1.42a3,3,0,0,1,0-.48,1.6,1.6,0,0,1,.14-.35.71.71,0,0,1,.17-.21,1,1,0,0,1,.25-.13,1,1,0,0,1,.31,0,1,1,0,0,1,.41.09.81.81,0,0,1,.28.24,1.48,1.48,0,0,1,.2.38h0a.78.78,0,0,1,.21-.29,1.33,1.33,0,0,1,.33-.21l.34-.14a1.18,1.18,0,0,0,.33-.2.33.33,0,0,0,.14-.23H113l0,.93a3,3,0,0,1-.58.31l-.42.18a1.07,1.07,0,0,0-.27.14.27.27,0,0,0-.1.12.37.37,0,0,0,0,.2V165l.78,0h.25a.24.24,0,0,0,.12-.07.38.38,0,0,0,.08-.17Zm-3,.19,1.35,0v-.24a1,1,0,0,0,0-.32.62.62,0,0,0-.15-.2.51.51,0,0,0-.22-.11,1.12,1.12,0,0,0-.27,0,.68.68,0,0,0-.5.14.67.67,0,0,0-.18.46v.27"/><path class="cls-12" d="M112,158.72v1l.23.08.19.06.19,0c.16,0,.24-.09.26-.25H113v1h-.16a.3.3,0,0,0-.07-.15.44.44,0,0,0-.14-.13,1.42,1.42,0,0,0-.27-.12l-2.69-1v-.65l2.71-.8a1.81,1.81,0,0,0,.26-.09.38.38,0,0,0,.12-.09.38.38,0,0,0,.08-.17H113v1.34h-.16a.38.38,0,0,0-.08-.18.19.19,0,0,0-.15-.06h-.17l-.23.06Zm-.29.95v-.87l-1.36.38Z"/><path class="cls-12" d="M113,154.19h-.16a1.22,1.22,0,0,0,0-.17.24.24,0,0,0-.08-.09.42.42,0,0,0-.13,0H110v.2a.61.61,0,0,0,0,.22.45.45,0,0,0,.1.14.75.75,0,0,0,.2.09,1.09,1.09,0,0,0,.24.07V155h-.86v-2.86h.86v.33l-.25.07-.13.06-.1.07s0,0,0,.08a.18.18,0,0,0,0,.11.62.62,0,0,0,0,.15v.18h2.61l.11,0,.07-.05,0-.08a.84.84,0,0,0,0-.14H113Z"/></g></g></g></g></g></svg>