<svg id="Layer_1" data-name="Layer 1" xmlns="http://www.w3.org/2000/svg" xmlns:xlink="http://www.w3.org/1999/xlink" viewBox="0 0 353 326"><defs><style>.cls-1,.cls-13,.cls-17,.cls-19,.cls-9{fill:none;}.cls-2{clip-path:url(#clip-path);}.cls-3{clip-path:url(#clip-path-2);}.cls-4{fill:#e1251b;}.cls-5{clip-path:url(#clip-path-3);}.cls-11,.cls-25,.cls-6{fill:#fff;}.cls-26,.cls-7{fill:#010101;}.cls-10,.cls-11,.cls-12,.cls-14,.cls-15,.cls-16,.cls-18,.cls-20,.cls-21,.cls-22,.cls-23,.cls-7,.cls-8{fill-rule:evenodd;}.cls-8{fill:#ea0029;}.cls-13,.cls-9{stroke:#010101;}.cls-13,.cls-17,.cls-19,.cls-9{stroke-miterlimit:2.61;}.cls-17,.cls-19,.cls-9{stroke-width:0.03px;}.cls-10{fill:#e9e24c;}.cls-12{fill:#c18d68;}.cls-13{stroke-width:0.04px;}.cls-14{fill:#75c0e4;}.cls-15{fill:#ecc23e;}.cls-16{fill:#bc7443;}.cls-17{stroke:#7d7365;}.cls-18{fill:#398a53;}.cls-19{stroke:#2d944a;}.cls-20{fill:#7d7474;}.cls-21{fill:#99634f;}.cls-22{fill:#7d7365;}.cls-23{fill:#2d944a;}.cls-24{fill:#595a5c;}.cls-25{font-size:16.41px;font-family:Calibri;}</style><clipPath id="clip-path"><rect class="cls-1" x="31.67" y="130.8" width="289.66" height="64.4"/></clipPath><clipPath id="clip-path-2"><rect class="cls-1" x="19.97" y="133.35" width="298.82" height="59.97"/></clipPath><clipPath id="clip-path-3"><rect class="cls-1" x="25.22" y="135.79" width="291.53" height="55.04"/></clipPath></defs><title>Artboard 6</title><g class="cls-2"><g class="cls-3"><rect class="cls-4" x="80.25" y="135.8" width="55.05" height="55.02"/><g class="cls-5"><path class="cls-6" d="M95.64,160.62a4.68,4.68,0,0,1-.32,1.76,3.75,3.75,0,0,1-.91,1.33,4.13,4.13,0,0,1-1.46.85,6.37,6.37,0,0,1-2.07.3H89.41v4.66a.22.22,0,0,1,0,.14.32.32,0,0,1-.14.1l-.26.06a2.37,2.37,0,0,1-.41,0,2.42,2.42,0,0,1-.42,0l-.26-.06a.27.27,0,0,1-.14-.1.21.21,0,0,1,0-.14v-12a.68.68,0,0,1,.21-.57.73.73,0,0,1,.47-.17h2.77a7.09,7.09,0,0,1,.81,0,6.81,6.81,0,0,1,.91.15,3.58,3.58,0,0,1,1.06.43,3.36,3.36,0,0,1,.93.77,3.59,3.59,0,0,1,.59,1.07,4.31,4.31,0,0,1,.2,1.33m-1.81.14a2.68,2.68,0,0,0-.3-1.32,2.13,2.13,0,0,0-.72-.79,2.63,2.63,0,0,0-.91-.33,7.09,7.09,0,0,0-.9-.07H89.41v5.2H91a3.64,3.64,0,0,0,1.29-.2,2.33,2.33,0,0,0,1.4-1.41,3.14,3.14,0,0,0,.18-1.08"/><path class="cls-6" d="M105.06,169.07a1.57,1.57,0,0,1,0,.32.48.48,0,0,1-.07.22.29.29,0,0,1-.11.13.28.28,0,0,1-.15,0H98.5a.7.7,0,0,1-.43-.15.64.64,0,0,1-.21-.55V157.53a.62.62,0,0,1,.21-.54.66.66,0,0,1,.43-.16h6.14a.42.42,0,0,1,.15,0,.34.34,0,0,1,.1.13,1,1,0,0,1,.07.23,2.92,2.92,0,0,1,0,.33,2.88,2.88,0,0,1,0,.32,1,1,0,0,1-.07.22.25.25,0,0,1-.1.12.28.28,0,0,1-.15,0H99.58v4.07h4.34a.26.26,0,0,1,.15,0,.36.36,0,0,1,.11.13.53.53,0,0,1,.06.22,1.62,1.62,0,0,1,0,.33,1.47,1.47,0,0,1,0,.31.53.53,0,0,1-.06.21.29.29,0,0,1-.11.11.26.26,0,0,1-.15,0H99.58v4.63h5.13a.42.42,0,0,1,.15,0,.43.43,0,0,1,.11.12.52.52,0,0,1,.07.23,1.62,1.62,0,0,1,0,.33"/><path class="cls-6" d="M116.08,169.52a.52.52,0,0,1,0,.14.22.22,0,0,1-.14.1.84.84,0,0,1-.28.06,3.25,3.25,0,0,1-.48,0,2.56,2.56,0,0,1-.42,0,.9.9,0,0,1-.27-.06.32.32,0,0,1-.15-.13.75.75,0,0,1-.1-.2L113,166.38c-.15-.34-.29-.67-.44-1a3.41,3.41,0,0,0-.54-.75,2.16,2.16,0,0,0-.73-.48,2.53,2.53,0,0,0-1-.18h-1.15v5.51a.21.21,0,0,1,0,.14.39.39,0,0,1-.14.1l-.26.06a2.56,2.56,0,0,1-.42,0,2.49,2.49,0,0,1-.41,0l-.27-.06a.39.39,0,0,1-.14-.1.29.29,0,0,1,0-.14v-12a.62.62,0,0,1,.21-.54.66.66,0,0,1,.43-.16h2.75c.33,0,.6,0,.82,0l.58,0a5.47,5.47,0,0,1,1.33.41,3.33,3.33,0,0,1,1,.71,2.93,2.93,0,0,1,.59,1,3.69,3.69,0,0,1,.19,1.23,3.77,3.77,0,0,1-.17,1.16,2.89,2.89,0,0,1-.51.91,3.09,3.09,0,0,1-.79.69,5.46,5.46,0,0,1-1,.49,2,2,0,0,1,.58.36,2.65,2.65,0,0,1,.49.51,4.51,4.51,0,0,1,.42.69,8.17,8.17,0,0,1,.4.88l1.16,2.85a3.22,3.22,0,0,1,.18.51.73.73,0,0,1,0,.22m-2.59-9.09a2.3,2.3,0,0,0-.34-1.29,1.91,1.91,0,0,0-1.14-.76,3.78,3.78,0,0,0-.56-.1c-.21,0-.49,0-.83,0h-1.45v4.37h1.68a3.72,3.72,0,0,0,1.18-.17,2.25,2.25,0,0,0,.82-.46,1.86,1.86,0,0,0,.49-.69,2.49,2.49,0,0,0,.15-.87"/><path class="cls-6" d="M127.9,165a6,6,0,0,1-.35,2.11,4.37,4.37,0,0,1-1,1.56,4.16,4.16,0,0,1-1.56,1,6.19,6.19,0,0,1-2.09.34,5.8,5.8,0,0,1-2-.32,4.13,4.13,0,0,1-1.51-.91,4.08,4.08,0,0,1-1-1.52,5.89,5.89,0,0,1-.35-2.1v-8a.33.33,0,0,1,0-.14.28.28,0,0,1,.14-.09,1.43,1.43,0,0,1,.26-.06,2.42,2.42,0,0,1,.42,0,2.37,2.37,0,0,1,.41,0,1.1,1.1,0,0,1,.27.06.28.28,0,0,1,.14.09.32.32,0,0,1,0,.14v7.83a4.9,4.9,0,0,0,.23,1.57,2.85,2.85,0,0,0,.63,1.12,2.75,2.75,0,0,0,1,.67,4.1,4.1,0,0,0,2.65,0,2.5,2.5,0,0,0,1-.66,2.91,2.91,0,0,0,.62-1.09,4.92,4.92,0,0,0,.22-1.52v-7.92a.23.23,0,0,1,0-.14.21.21,0,0,1,.14-.09,1.12,1.12,0,0,1,.26-.06,2.42,2.42,0,0,1,.42,0,2.25,2.25,0,0,1,.4,0,1.12,1.12,0,0,1,.26.06.24.24,0,0,1,.14.09.24.24,0,0,1,.05.14Zm-3.84-11.74a.77.77,0,0,1,.21-.2.88.88,0,0,1,.24-.11,1.22,1.22,0,0,1,.31-.06h.43a2,2,0,0,1,.47,0,.54.54,0,0,1,.24.12.16.16,0,0,1,0,.16.54.54,0,0,1-.11.19l-2.27,2.12a1.24,1.24,0,0,1-.19.16l-.19.09-.26.05h-.36l-.36,0a.38.38,0,0,1-.17-.08.12.12,0,0,1,0-.14.38.38,0,0,1,.11-.19Z"/><rect class="cls-6" x="25.21" y="135.79" width="55.03" height="55.04"/><path class="cls-7" d="M52.69,182l-9.93-22.75-8.18-6.63.29,22.69c.07,5,5.5,12.52,17.82,6.69"/><path class="cls-8" d="M53.35,181.58,43.22,159.2l-8.35-6.54.3,22.34c.08,4.92,5.61,12.3,18.18,6.58"/><path class="cls-7" d="M38.59,155.73l-4-3,.05-.18s2.3,1.79,4.16,3.06c.08.05-.12,0-.17.17"/><path class="cls-9" d="M38.59,155.73l-4-3,.05-.18s2.3,1.79,4.16,3.06C38.84,155.61,38.64,155.56,38.59,155.73Z"/><path class="cls-7" d="M34.55,152l-.81-.39v.86a0,0,0,0,0,0,0v0l.87.27Z"/><path class="cls-9" d="M34.55,152l-.81-.39v.86a0,0,0,0,0,0,0v0l.87.27Z"/><path class="cls-10" d="M34.59,152.74,34.5,152l-.73-.38,0,.82c0,.08.78.22.79.32"/><path class="cls-9" d="M34.59,152.74,34.5,152l-.73-.38,0,.82C33.8,152.5,34.58,152.64,34.59,152.74Z"/><path class="cls-10" d="M34.59,152.74l-.81-1.08,0,.79c0,.09.74.21.79.29"/><path class="cls-9" d="M34.59,152.74l-.81-1.08,0,.79C33.8,152.54,34.54,152.66,34.59,152.74Z"/><path class="cls-7" d="M34.6,152.44a.23.23,0,0,1,.24.23.24.24,0,0,1-.24.24.25.25,0,0,1-.25-.24.24.24,0,0,1,.25-.23"/><path class="cls-9" d="M34.6,152.44a.23.23,0,0,1,.24.23.24.24,0,0,1-.24.24.25.25,0,0,1-.25-.24A.24.24,0,0,1,34.6,152.44Z"/><path class="cls-10" d="M34.6,152.5a.16.16,0,0,1,.17.17.17.17,0,1,1-.34,0,.16.16,0,0,1,.17-.17"/><path class="cls-9" d="M34.6,152.5a.16.16,0,0,1,.17.17.17.17,0,1,1-.34,0A.16.16,0,0,1,34.6,152.5Z"/><path class="cls-11" d="M35,166.35c.55.47,1.58.19,1.7,1.06.06.47.74.46.94.84.51,1,1.39.59,1.65.92a2.1,2.1,0,0,0,1.77.9c.69-.14,1.39.55,2,1,1.17.75,2.28.43,2.28,3.05a6.62,6.62,0,0,1-.28,2.79c-.68.93-1.94.81-3.24,1.09-.25.06-1.37-1-2.43-.73-.46.12-1-.2-1.52-.09a1.43,1.43,0,0,1-1.67-.57c-.35-.75-1.1-.8-1.1-1.1,0-2-.13-7.22-.14-9.13"/><path class="cls-9" d="M35,166.35c.55.47,1.58.19,1.7,1.06.06.47.74.46.94.84.51,1,1.39.59,1.65.92a2.1,2.1,0,0,0,1.77.9c.69-.14,1.39.55,2,1,1.17.75,2.28.43,2.28,3.05a6.62,6.62,0,0,1-.28,2.79c-.68.93-1.94.81-3.24,1.09-.25.06-1.37-1-2.43-.73-.46.12-1-.2-1.52-.09a1.43,1.43,0,0,1-1.67-.57c-.35-.75-1.1-.8-1.1-1.1C35.17,173.43,35,168.26,35,166.35Z"/><path class="cls-7" d="M42.55,168c-1.13-.86-5.71-2.67-6.36-4s.48-3.06.17-2.1c-.39,1.18,3.78,2.9,4.93,3.38.44.2,1.88.69,1.88,1.29,0,.09-.15.54-.15.67,0,.41-.47.64-.47.73"/><path class="cls-9" d="M42.55,168c-1.13-.86-5.71-2.67-6.36-4s.48-3.06.17-2.1c-.39,1.18,3.78,2.9,4.93,3.38.44.2,1.88.69,1.88,1.29,0,.09-.15.54-.15.67C43,167.64,42.55,167.87,42.55,168Z"/><path class="cls-10" d="M42.84,167.78c-1.16-.94-5.83-2.88-6.5-4.27s.49-3.3.18-2.27c-.38,1.28,3.87,3.13,5,3.66.45.2,1.92.75,1.92,1.37,0,.1-.15.59-.15.73,0,.44-.49.68-.49.78"/><path class="cls-9" d="M42.84,167.78c-1.16-.94-5.83-2.88-6.5-4.27s.49-3.3.18-2.27c-.38,1.28,3.87,3.13,5,3.66.45.2,1.92.75,1.92,1.37,0,.1-.15.59-.15.73C43.33,167.44,42.84,167.68,42.84,167.78Z"/><path class="cls-8" d="M44.71,167.87c.07-4.74,1-9.88.39-11.87a45.71,45.71,0,0,1-5.81-4.36c-.2-.17-2.28,8-2.94,9.84.78,2.32,4.56,3.1,8.36,6.39"/><path class="cls-9" d="M44.71,167.87c.07-4.74,1-9.88.39-11.87a45.71,45.71,0,0,1-5.81-4.36c-.2-.17-2.28,8-2.94,9.84C37.13,163.8,40.91,164.58,44.71,167.87Z"/><path class="cls-11" d="M42.76,158.34c-.33-.14-1.12-.89-1.49-1.07-.83-.38-2.54-1.89-2.92-1.53a4.37,4.37,0,0,0-1,2.58c-.06.42.32.42.65.57.58.28.84.6,1.46.66,1.58.2,2.44,1.41,3.26,1,.33-.15.17-1.28.56-1.47.58-.28-.24-.47-.48-.79"/><path class="cls-9" d="M42.76,158.34c-.33-.14-1.12-.89-1.49-1.07-.83-.38-2.54-1.89-2.92-1.53a4.37,4.37,0,0,0-1,2.58c-.06.42.32.42.65.57.58.28.84.6,1.46.66,1.58.2,2.44,1.41,3.26,1,.33-.15.17-1.28.56-1.47C43.82,158.85,43,158.66,42.76,158.34Z"/><path class="cls-12" d="M45,162c0,.08-.06.25-.18.46a.38.38,0,0,0,.24-.14.89.89,0,0,1-.22.36c.06,0,.12,0,.2-.13v.09a1.45,1.45,0,0,1-.09.25c-.07,0-.08.19-.13.3a.88.88,0,0,1-.07-.78c-.1-.08,0-.25.09-.38s-.09.08-.12.08a.93.93,0,0,1,.22-.53.19.19,0,0,1,.31.08c0,.08,0,.12-.16.2s-.17.15-.09.14"/><path class="cls-7" d="M39.22,151.7c.92,2.62,1,7.2,1.69,10.05a6.86,6.86,0,0,0,.2.88,4.38,4.38,0,0,0-.55-.58c-.61-.37-2.19-1.48-3.62-.77a2.06,2.06,0,0,0-.31.23l-.19.19c-.08-.2-.1-.29.08-.46.19-.82.39-1.71.59-2.6.1-.42.21-.85.3-1.27.64-2.61,1.29-5,1.81-5.67"/><path class="cls-9" d="M39.22,151.7c.92,2.62,1,7.2,1.69,10.05a6.86,6.86,0,0,0,.2.88,4.38,4.38,0,0,0-.55-.58c-.61-.37-2.19-1.48-3.62-.77a2.06,2.06,0,0,0-.31.23l-.19.19c-.08-.2-.1-.29.08-.46.19-.82.39-1.71.59-2.6.1-.42.21-.85.3-1.27C38.05,154.76,38.7,152.35,39.22,151.7Z"/><path class="cls-7" d="M44.82,156,39,151.69l.07-.27S42.39,154,45,155.76c.11.08-.16,0-.22.24"/><path class="cls-9" d="M44.82,156,39,151.68l.07-.26S42.39,154,45,155.77C45.15,155.84,44.88,155.77,44.82,156Zm-3.48,9.87v.32a.49.49,0,0,1,0,.14s0,.06,0,.11,0,.13,0,.19v.1c0,.06,0,.17.05,0m.53-.56v.31c0,.06-.05.12,0,.15s-.05.06-.05.1a1.15,1.15,0,0,0,0,.19V167c0,.07,0,.17,0,0m.61-.52c0,.08,0,.23,0,.32s-.06.12-.06.14-.05.07,0,.11,0,.12,0,.19v.1c0,.07,0,.17,0,0m-1.64-1.87s-.09.07-.09.12v.07l0,0v.62h0v.14m-.34-1.32a.93.93,0,0,0-.08.55c0,.08,0,.21,0,.23a1.34,1.34,0,0,0-.11.21l0,0c-.07.07.07,0-.29,0m-.36-1.5s0,.1,0,.14v.09l0,.05v0h0v.6h0v0h0c0,.08,0,.14,0,0m-.41-1.24c0,.06,0,.11,0,.16v.07l0,0v.11h0V165s0,.07,0,.1v.3c0,.07,0,.12,0-.05m-2.4-2.83a.53.53,0,0,0-.09.11h0v0l0,0v0l0,0v0l0,0v.06h0V163c0,.05,0,.11,0,.16s0,0,0,.07v.17h0v.07c0,.08,0,.08,0,0m.78-.28s-.09,0-.09.06l0,0v.05l0,0h0v.05h0v.12l0,.06v0s0,.07,0,.1,0,0,0,.05V164s0,.05,0,.07m2.9.89a.8.8,0,0,0-.07.55c0,.08,0,.21,0,.22a1.39,1.39,0,0,0-.11.21l0,0c-.07.07.06,0-.29.05m-1.64-2.63a3.82,3.82,0,0,0-.09.63v.45c0,.07,0,.14,0,0m.59-.67a2.22,2.22,0,0,0-.11.69v.24c0,.08,0,.23,0,.23m4.15,1.27a.73.73,0,0,0,.05.12v.36l0,.06v0l0,0v.05s-.08,0-.08.08,0,.08,0,.1,0,0,0,.07l0,0v.15m-.82-1.67s0,.1,0,.13v.05l0,0h0l0,0v.1l0,0v.15s0,.05,0,.1v.27s0,.08,0,.06m-4.33-3.84-.09.1,0,0v0l0,0h0l0,0v0l0,.05v0l0,0v0c0,.06,0,.11,0,.17s0,0,0,.06v.26c0,.07,0,.07.05,0m.79-.21v.3l0,.06v0l0,.05v0a.41.41,0,0,0,0,.1v.1a.2.2,0,0,0,0,.07v.08h0v.06c0,.07,0,.07.05,0m.56-.68c0,.05,0,.09,0,.15V164l0,.06v.72c0,.07,0,.13,0-.05m.89-.19,0,.09v0l0,0v.08h0v.08h0v.08c0,.06,0,.1,0,.15v.3s0,.08,0,.08m-.28-1.29s0,.1,0,.13v0h0v.14l0,0v.17a2.11,2.11,0,0,0,0,.23v.4m4.46,1.25s0,.11,0,.12,0,.05,0,.09h0l0,0v0h0v0l0,0h0l0,0v.1l0,0v.52m-2.17-2.26c0,.05,0,.13,0,.18v.18h0v0h0v.13s0,.08,0,.11V166c0,.06,0,0,0,.06v0l0,0v0h0s-.08.12,0,0m-.79-1.29v.15l0,0v0l0,0v.11s0,.07,0,.12v.29h0v.08m-.28-1.13c-.11,0-.09,0-.09.15,0,.32,0,.73,0,1.05m.91-.59-.07.13v.06h0v0l0,0v.69m.91-.47s-.09.08-.09.13v.08l0,0v.64a.45.45,0,0,1,0,.11m.9-.69v.32a1.3,1.3,0,0,1,0,.15s-.06.06-.06.1,0,.12,0,.18v.11c0,.07,0,.17.06,0M36.88,163a.53.53,0,0,0-.09.11l0,0v0l0,0v0l0,0h0l0,.06v.05l0,0v0c0,.05,0,.1,0,.15s0,.05,0,.08v.25c0,.08,0,.08.06,0"/><path class="cls-7" d="M36,162.74c0,.11.19-.84.29-1.17s.86-1.13,1.24-1.13c.19,0,.52-.06.77-.06a2.64,2.64,0,0,1,2.05,1.05c.09.1.37.29.37.44a3.82,3.82,0,0,1,.4.87c-1.61-1.19-4.73-1.39-5.12,0"/><path class="cls-9" d="M36,162.74c0,.11.19-.84.29-1.17s.86-1.13,1.24-1.13c.19,0,.52-.06.77-.06a2.64,2.64,0,0,1,2.05,1.05c.09.1.37.29.37.44a3.82,3.82,0,0,1,.4.87C39.54,161.55,36.42,161.35,36,162.74Z"/><path class="cls-10" d="M36,162.56c0,.1.19-.78.29-1.07s.86-1.06,1.24-1.06c.19,0,.52-.05.77-.05a2.67,2.67,0,0,1,2.05,1c.09.08.34.26.37.39a5.24,5.24,0,0,1,.25.77c-1.62-1.11-4.58-1.23-5,0"/><path class="cls-9" d="M36,162.56c0,.1.19-.78.29-1.07s.86-1.06,1.24-1.06c.19,0,.52-.05.77-.05a2.67,2.67,0,0,1,2.05,1c.09.08.34.26.37.39a5.24,5.24,0,0,1,.25.77C39.38,161.41,36.42,161.29,36,162.56Z"/><path class="cls-8" d="M39.09,151.56c.93,2.71.92,7.44,1.73,10.19a4,4,0,0,0-4-.74,2,2,0,0,0-.54.46c1.53-5.35,2-8,2.77-9.91"/><path class="cls-9" d="M39.09,151.56c.93,2.71.92,7.44,1.73,10.19a4,4,0,0,0-4-.74,2,2,0,0,0-.54.46C37.85,156.12,38.27,153.44,39.09,151.56Z"/><path class="cls-11" d="M40,155.94c.05.53.12,1.36.16,1.94,0,.11-2.2-.48-3.06.83.32-1.1.38-1.72.59-2.33,0,0,0-.12.08-.18.48-.44,2.2-.48,2.23-.26"/><path class="cls-9" d="M40,155.94c.05.53.12,1.36.16,1.94,0,.11-2.2-.48-3.06.83.32-1.1.38-1.72.59-2.33,0,0,0-.12.08-.18C38.23,155.76,40,155.72,40,155.94Z"/><polygon class="cls-7" points="39.05 150.68 37.89 150.13 37.89 151.34 37.89 151.36 37.89 151.4 39.14 151.78 39.05 150.68"/><polygon class="cls-9" points="39.05 150.68 37.89 150.13 37.89 151.34 37.89 151.36 37.89 151.4 39.14 151.78 39.05 150.68"/><path class="cls-10" d="M39.1,151.75,39,150.68l-1-.54,0,1.15c0,.12,1.12.32,1.14.46"/><path class="cls-9" d="M39.1,151.75,39,150.68l-1-.54,0,1.15C38,151.41,39.08,151.61,39.1,151.75Z"/><path class="cls-10" d="M39.1,151.75,38,150.21l0,1.13c0,.12,1,.31,1.12.41"/><path class="cls-9" d="M39.1,151.75,38,150.21l0,1.13C38,151.46,39,151.65,39.1,151.75Z"/><path class="cls-7" d="M39.11,151.31a.35.35,0,0,1,.35.35.34.34,0,0,1-.35.33.35.35,0,0,1-.34-.33.35.35,0,0,1,.34-.35"/><path class="cls-9" d="M39.11,151.31a.35.35,0,0,1,.35.35.34.34,0,0,1-.35.33.35.35,0,0,1-.34-.33A.35.35,0,0,1,39.11,151.31Z"/><path class="cls-10" d="M39.11,151.42a.24.24,0,0,1,.25.24.24.24,0,0,1-.25.23.24.24,0,0,1-.24-.23.24.24,0,0,1,.24-.24"/><path class="cls-9" d="M39.11,151.42a.24.24,0,0,1,.25.24.24.24,0,0,1-.25.23.24.24,0,0,1-.24-.23A.24.24,0,0,1,39.11,151.42Z"/><path class="cls-13" d="M40.74,168.44a4.38,4.38,0,0,0,.17,1.43,2.36,2.36,0,0,1,0,.53l.05.13c0,.05-.06.52-.06.52l0,.09c0,.21.09.52-.14.59m-1.05-4c.05.5.13,1.07.18,1.57s0,.93,0,1.39c0,.19.16.93-.19.82M38,166.73a15.29,15.29,0,0,0,0,2.14c0,.27-.19.69-.19,1v.61m.9-3.67c.2.78.54,2.13.16,2.87a3.13,3.13,0,0,0-.11.75v.79m-1.59-4.62c-.72.83-.48,3.49-.48,4.68m-.72-5.66a7.41,7.41,0,0,0-.19,2.74c0,.92,0,1.85,0,2.74m5-9.32s0,0,0,.08V162s0,0,0,.07v.12s0,0,0,.09m-.24-.7c0,.12,0,.28,0,.42v.16h0m-.27-.72v.61m-.32-.75v.7m-.27-.78c0,.19,0,.47,0,.62m-.29-.71a3.38,3.38,0,0,0,0,.45v.2s0,.11,0,0m-.2-.68v.37c0,.1,0,.17,0,.28m-.23-.69v.19c0,.07,0,.15,0,.22v.22m-.18-.65v.64h0m-.18-.7c0,.12,0,.26,0,.37v.3s0,0,0,0M38.1,161v.62s0,.06,0,.07m-.19-.6c0-.11,0,0,0,0v.36s0,.11,0,.13,0,0,0,.06v0h0m-.65-.45v.1a2.08,2.08,0,0,0-.06.24s0,.11,0,.15,0,.19,0,.07m.57-.68c0-.12,0,0,0,0,0,.17,0,.39,0,.58m-.24-.56a.59.59,0,0,0-.05.33v.15a.2.2,0,0,1-.06.11m-.22-.47c0,.1-.08.19-.08.3a1.06,1.06,0,0,0,0,.14s0,.07,0,.13m-.13-.42c0-.12,0,0,0,0a.16.16,0,0,1,0,.06s0,.12,0,.13,0,.12,0,.18,0,.07,0,.09a.35.35,0,0,0,0,.06s0,0,0,0m-.11-.43c-.08.06-.08.19-.08.29a2.45,2.45,0,0,0,0,.27"/><path class="cls-9" d="M36,174.31a12.53,12.53,0,0,0,.19,2.64,3.85,3.85,0,0,1,.38,1.21,2,2,0,0,0,.2.46s.09.11.14.11.2.12.2-.06m-.09-4c.26,1,.41,2.14.58,3.16a3.29,3.29,0,0,0,.48,1.1c.07.1.45.62.55.6m.26-4.82a10.67,10.67,0,0,0,.48,2.3c.09.25.16.68.24.92a5.21,5.21,0,0,1,.3.8,3.27,3.27,0,0,0,.16.74c0,.06.28.35.29.47s.15.23.12.05M40,175.82c.1.28.22.71.31,1s.48.71.59,1.07.48.7.6,1.06.33.83.43,1.18m-4-4.79a23.42,23.42,0,0,1,.58,2.41,2.1,2.1,0,0,0,.48.83c.07.08.45.48.54.47"/><path class="cls-7" d="M53,182l9.94-22.75,8.18-6.63-.29,22.69c-.07,5-5.49,12.51-17.83,6.69"/><path class="cls-8" d="M52.31,181.66l10.14-22.39,8.35-6.52-.3,22.32c-.07,4.93-5.62,12.31-18.19,6.59"/><path class="cls-7" d="M67.08,155.81l4.06-3.05-.07-.18s-2.29,1.78-4.15,3c-.08.06.11,0,.16.19"/><path class="cls-9" d="M67.08,155.81l4.06-3.05-.07-.18s-2.29,1.78-4.15,3C66.84,155.68,67,155.64,67.08,155.81Z"/><path class="cls-7" d="M71.12,152.07l.81-.39v.86s0,0,0,0h0l-.87.27Z"/><path class="cls-9" d="M71.12,152.07l.81-.39v.86s0,0,0,0h0l-.87.27Z"/><path class="cls-10" d="M71.08,152.81l.09-.74.72-.39v.81c0,.08-.79.22-.81.32"/><path class="cls-9" d="M71.08,152.81l.09-.74.72-.39v.81C71.88,152.57,71.1,152.71,71.08,152.81Z"/><path class="cls-10" d="M71.08,152.81l.81-1.08v.81c0,.08-.74.21-.8.27"/><path class="cls-9" d="M71.08,152.81l.81-1.08v.81C71.88,152.62,71.14,152.75,71.08,152.81Z"/><path class="cls-7" d="M71.08,152.51a.24.24,0,1,0,0,.47.23.23,0,0,0,.23-.23.23.23,0,0,0-.23-.24"/><path class="cls-9" d="M71.08,152.51a.24.24,0,1,0,0,.47.23.23,0,0,0,.23-.23A.23.23,0,0,0,71.08,152.51Z"/><path class="cls-10" d="M71.08,152.58a.16.16,0,0,0-.17.17.16.16,0,0,0,.17.16.16.16,0,0,0,.16-.16.17.17,0,0,0-.16-.17"/><path class="cls-9" d="M71.08,152.58a.16.16,0,0,0-.17.17.16.16,0,0,0,.17.16.16.16,0,0,0,.16-.16A.17.17,0,0,0,71.08,152.58Z"/><path class="cls-11" d="M70.64,166.43c-.55.47-1.58.2-1.69,1-.07.49-.75.46-.94.85-.51,1-1.39.6-1.65.93a2.13,2.13,0,0,1-1.78.89c-.68-.15-1.39.55-2,1-1.16.75-2.27.43-2.27,3,0,1-.07,2.33.27,2.8.69.93,1.94.81,3.25,1.09.24,0,1.37-1,2.42-.74.46.13,1-.2,1.52-.09a1.44,1.44,0,0,0,1.67-.56c.36-.74,1.1-.8,1.1-1.11,0-2,.12-7.21.14-9.12"/><path class="cls-9" d="M70.64,166.43c-.55.47-1.58.2-1.69,1-.07.49-.75.46-.94.85-.51,1-1.39.6-1.65.93a2.13,2.13,0,0,1-1.78.89c-.68-.15-1.39.55-2,1-1.16.75-2.27.43-2.27,3,0,1-.07,2.33.27,2.8.69.93,1.94.81,3.25,1.09.24,0,1.37-1,2.42-.74.46.13,1-.2,1.52-.09a1.44,1.44,0,0,0,1.67-.56c.36-.74,1.1-.8,1.1-1.11C70.5,173.51,70.62,168.34,70.64,166.43Z"/><path class="cls-7" d="M63.12,168c1.14-.87,5.72-2.66,6.37-3.95S69,161,69.31,162c.38,1.18-3.78,2.9-4.92,3.39-.45.19-1.89.68-1.89,1.28,0,.09.14.54.14.67,0,.41.48.64.48.72"/><path class="cls-9" d="M63.12,168c1.14-.87,5.72-2.66,6.37-3.95S69,161,69.31,162c.38,1.18-3.78,2.9-4.92,3.39-.45.19-1.89.68-1.89,1.28,0,.09.14.54.14.67C62.64,167.72,63.12,168,63.12,168Z"/><path class="cls-10" d="M62.83,167.86c1.16-.93,5.83-2.87,6.49-4.27s-.48-3.32-.17-2.27c.39,1.28-3.86,3.12-5,3.66-.45.2-1.92.72-1.92,1.36,0,.11.16.59.16.75,0,.43.48.67.48.77"/><path class="cls-9" d="M62.83,167.86c1.16-.93,5.83-2.87,6.49-4.27s-.48-3.32-.17-2.27c.39,1.28-3.86,3.12-5,3.66-.45.2-1.92.72-1.92,1.36,0,.11.16.59.16.75C62.35,167.52,62.83,167.76,62.83,167.86Z"/><path class="cls-8" d="M61,167.94c-.06-4.74-1-9.88-.38-11.86a46.44,46.44,0,0,0,5.81-4.36c.19-.18,2.27,8,2.94,9.83-.79,2.32-4.57,3.1-8.37,6.39"/><path class="cls-9" d="M61,167.94c-.06-4.74-1-9.88-.38-11.86a46.44,46.44,0,0,0,5.81-4.36c.19-.18,2.27,8,2.94,9.83C68.54,163.87,64.76,164.65,61,167.94Z"/><path class="cls-11" d="M62.91,158.42c.34-.14,1.12-.9,1.49-1.07.83-.37,2.54-1.89,2.93-1.53a4.43,4.43,0,0,1,1,2.58c.07.42-.32.43-.65.58-.58.27-.83.58-1.45.66-1.58.2-2.45,1.4-3.27,1-.32-.15-.17-1.29-.56-1.48-.57-.28.24-.46.48-.78"/><path class="cls-9" d="M62.91,158.42c.34-.14,1.12-.9,1.49-1.07.83-.37,2.54-1.89,2.93-1.53a4.43,4.43,0,0,1,1,2.58c.07.42-.32.43-.65.58-.58.27-.83.58-1.45.66-1.58.2-2.45,1.4-3.27,1-.32-.15-.17-1.29-.56-1.48C61.86,158.92,62.67,158.74,62.91,158.42Z"/><path class="cls-12" d="M60.73,162.07c0,.08.05.25.17.45a.39.39,0,0,1-.24-.13.78.78,0,0,0,.22.35c-.05,0-.13,0-.2-.12v.09c0,.07.06.18.09.26s.09.17.13.29a.88.88,0,0,0,.07-.78c.1-.08,0-.24-.09-.37s.09.06.12.07a1,1,0,0,0-.22-.54.19.19,0,0,0-.31.07c0,.11,0,.13.15.22s.18.14.11.14"/><path class="cls-7" d="M66.46,151.78c-.92,2.62-1,7.2-1.7,10.05a6.06,6.06,0,0,1-.2.88,5.18,5.18,0,0,1,.55-.58c.62-.38,2.19-1.49,3.63-.77a1.5,1.5,0,0,1,.3.23l.2.19c.08-.2.1-.29-.09-.46-.19-.82-.39-1.7-.59-2.6l-.3-1.27c-.63-2.61-1.3-5-1.8-5.67"/><path class="cls-9" d="M66.46,151.78c-.92,2.62-1,7.2-1.7,10.05a6.06,6.06,0,0,1-.2.88,5.18,5.18,0,0,1,.55-.58c.62-.38,2.19-1.49,3.63-.77a1.5,1.5,0,0,1,.3.23l.2.19c.08-.2.1-.29-.09-.46-.19-.82-.39-1.7-.59-2.6l-.3-1.27C67.63,154.84,67,152.44,66.46,151.78Z"/><path class="cls-7" d="M60.86,156.08l5.78-4.34-.08-.24c0-.05-3.29,2.53-5.93,4.35-.11.06.17,0,.23.23"/><path class="cls-9" d="M60.86,156.08l5.78-4.34-.08-.24c0-.05-3.29,2.53-5.93,4.35C60.52,155.91,60.8,155.85,60.86,156.08ZM64.33,166v.31a.59.59,0,0,0,0,.15s0,.07,0,.11,0,.13,0,.18v.11c0,.07,0,.17,0,0m-.53-.56v.31a.49.49,0,0,0,0,.14s.06.08.06.11,0,.13,0,.19,0,.09,0,.11,0,.16,0,0m-.61-.52c0,.08,0,.23,0,.31a.42.42,0,0,0,0,.14s0,.07,0,.11a.57.57,0,0,1,0,.19v.1c0,.07,0,.17,0,0M65,165.57s.09.07.09.13v.07l0,0v.59h0v.15m.35-1.31a.85.85,0,0,1,.08.56.62.62,0,0,0,0,.22.83.83,0,0,1,.12.21l0,0c.07.08-.06,0,.29.06m.37-1.52c0,.05,0,.11,0,.16V165h0l0,.06v.33a.38.38,0,0,0,0,.1v.3c0,.08,0,.13-.05,0m.41-1.23c0,.05,0,.09,0,.14v.08l0,0v.74c0,.06,0,.12,0-.06m2.4-2.83a.24.24,0,0,0,.1.1l0,0v0l0,0v0l0,0v0l0,.05v0l0,0v.05c0,.05,0,.1,0,.14s0,.06,0,.08v.26c0,.07,0,.07,0,0m-.8-.27s.11,0,.11.05v.08l0,0v.09h0v.12l0,.05v.05s0,.07,0,.1,0,0,0,0v.23s0,0,0,.07m-2.92.89a.89.89,0,0,1,.09.56.82.82,0,0,0,0,.23.57.57,0,0,1,.12.19l0,0c.06.07-.08,0,.28,0m1.65-2.63a3.85,3.85,0,0,1,.09.62,1.46,1.46,0,0,1,0,.3v.15c0,.08,0,.15,0,0m-.6-.66a2,2,0,0,1,.11.68v.25c0,.07,0,.22,0,.22m-4.15,1.28s0,.11,0,.13v.35l0,0v0l0,0v0s.07,0,.07.07,0,.09,0,.11,0,.05,0,.07l0,0v.15m.82-1.67s0,.11,0,.13v.1l0,0v0l0,0v.05l0,0v.14a.18.18,0,0,1,0,.11v.28s0,.08,0,0M69,162.85l.09.11,0,0v0l0,0v0l0,0v0l0,0v.06l0,0v0c0,.05,0,.1,0,.15s0,.06,0,.09v.24c0,.08,0,.08,0,0m-.79-.2v.17h0v.1h0l0,.06v0l0,.06v0s0,.05,0,.1v.1a.22.22,0,0,1,0,.08v.13h0c0,.08,0,.08-.06,0m-.56-.68s0,.11,0,.14v.09l0,0v.73c0,.07,0,.13-.05-.06m-.88-.19,0,.09v.13h0v.08l0,0V165s0,.1,0,.15v.26h0v0s0,.08,0,.08m.28-1.29s0,.1,0,.13v.17l0,0v.08h0v.09a1.86,1.86,0,0,1,0,.22v.4m-4.47,1.24s0,.1,0,.14,0,.05,0,.06l0,0,0,0v0h0v0l0,0v0h0v0l0,0h0v0h0v.53m2.18-2.25s0,.12,0,.18v.23h0v.3c0,.06,0,0,0,.06v0l0,0v0h0s.07.13,0,0m.79-1.28v.14l0,0v.15c0,.05,0,.08,0,.12v.14s0,.05,0,.07v.17m.28-1.12c.12,0,.1.05.09.14,0,.33,0,.74,0,1.06m-.9-.58.07.12v.1l0,0v.68m-.91-.46s.1.08.1.12V166l0,0v.08h0v.48l0,0v.16m-.9-.69v.32a1.3,1.3,0,0,0,0,.15s.06.06.06.11,0,.11,0,.18a.45.45,0,0,1,0,.11c0,.06,0,.16,0,0m4.67-3.9.09.1,0,0v0l0,0v.06l0,.05v0l0,0v.05c0,.06,0,.1,0,.15s0,.06,0,.08v.25c0,.07,0,.08-.05,0"/><path class="cls-7" d="M69.64,162.82c0,.11-.19-.84-.28-1.17s-.86-1.14-1.25-1.14c-.2,0-.52,0-.76,0a2.58,2.58,0,0,0-2,1.06c-.1.08-.37.28-.39.43a5.4,5.4,0,0,0-.39.88c1.61-1.19,4.74-1.4,5.12,0"/><path class="cls-9" d="M69.64,162.82c0,.11-.19-.84-.28-1.17s-.86-1.14-1.25-1.14c-.2,0-.52,0-.76,0a2.58,2.58,0,0,0-2,1.06c-.1.08-.37.28-.39.43a5.4,5.4,0,0,0-.39.88C66.13,161.64,69.26,161.43,69.64,162.82Z"/><path class="cls-10" d="M69.64,162.64c0,.1-.19-.77-.28-1.07s-.86-1.06-1.25-1.06c-.2,0-.52,0-.76,0a2.65,2.65,0,0,0-2,1c-.1.08-.35.26-.39.38a7.64,7.64,0,0,0-.23.77c1.61-1.11,4.58-1.22,5,0"/><path class="cls-9" d="M69.64,162.64c0,.1-.19-.77-.28-1.07s-.86-1.06-1.25-1.06c-.2,0-.52,0-.76,0a2.65,2.65,0,0,0-2,1c-.1.08-.35.26-.39.38a7.64,7.64,0,0,0-.23.77C66.29,161.48,69.26,161.37,69.64,162.64Z"/><path class="cls-8" d="M66.58,151.65c-.93,2.7-.92,7.43-1.72,10.16a4,4,0,0,1,4-.71,1.89,1.89,0,0,1,.55.45c-1.54-5.37-2-8-2.78-9.9"/><path class="cls-9" d="M66.58,151.65c-.93,2.7-.92,7.43-1.72,10.16a4,4,0,0,1,4-.71,1.89,1.89,0,0,1,.55.45C67.82,156.18,67.41,153.52,66.58,151.65Z"/><path class="cls-11" d="M65.7,156c-.07.53-.13,1.35-.17,1.94,0,.1,2.2-.48,3.07.84-.33-1.11-.39-1.74-.61-2.33a.36.36,0,0,0-.07-.18c-.48-.44-2.19-.51-2.22-.27"/><path class="cls-9" d="M65.7,156c-.07.53-.13,1.35-.17,1.94,0,.1,2.2-.48,3.07.84-.33-1.11-.39-1.74-.61-2.33a.36.36,0,0,0-.07-.18C67.44,155.85,65.73,155.78,65.7,156Z"/><polygon class="cls-7" points="66.63 150.76 67.78 150.21 67.78 151.42 67.78 151.44 67.78 151.49 66.53 151.87 66.63 150.76"/><polygon class="cls-9" points="66.63 150.76 67.78 150.21 67.78 151.42 67.78 151.44 67.78 151.49 66.53 151.87 66.63 150.76"/><path class="cls-10" d="M66.57,151.83l.13-1.07,1-.54,0,1.14c0,.13-1.13.32-1.14.47"/><path class="cls-9" d="M66.57,151.83l.13-1.07,1-.54,0,1.14C67.71,151.49,66.58,151.68,66.57,151.83Z"/><path class="cls-10" d="M66.57,151.83l1.14-1.55,0,1.14c0,.12-1,.31-1.12.41"/><path class="cls-9" d="M66.57,151.83l1.14-1.55,0,1.14C67.69,151.54,66.66,151.73,66.57,151.83Z"/><path class="cls-7" d="M66.56,151.4a.33.33,0,0,0-.35.33.35.35,0,0,0,.69,0,.33.33,0,0,0-.34-.33"/><path class="cls-9" d="M66.56,151.4a.33.33,0,0,0-.35.33.35.35,0,0,0,.69,0A.33.33,0,0,0,66.56,151.4Z"/><path class="cls-10" d="M66.56,151.5a.24.24,0,1,0,.24.23.23.23,0,0,0-.24-.23"/><path class="cls-9" d="M66.56,151.5a.24.24,0,1,0,.24.23A.23.23,0,0,0,66.56,151.5ZM65,161.81c0,.06,0,.06,0,.1v.18s0,0,0,.08v.12s0,.05,0,.08m.23-.69a2.83,2.83,0,0,1,0,.41v.17h0m.26-.72v.61m.33-.75v.69m.26-.78c0,.19,0,.49,0,.64m.28-.72a3.38,3.38,0,0,1,0,.45v.2s0,.1,0,0m.21-.69v.37c0,.09,0,.16,0,.26m.23-.67v.19c0,.07,0,.15,0,.22v.23m.19-.67v.64h0m.19-.69c0,.12,0,.25,0,.37v.3s0,.05,0,0m.23-.7v.63s0,0,0,.06m.2-.6c0-.12,0,0,0,0v.35s0,.12,0,.14,0,0,0,.05,0,0,0,0v0m.64-.46v.1a1.26,1.26,0,0,1,.07.25s0,.11,0,.16,0,.18,0,.06m-.57-.69c0-.11,0,0,0,0,0,.18,0,.39,0,.57m.23-.55a.59.59,0,0,1,.06.33v.15s.05.1.05.12m.22-.49c0,.11.09.21.09.31a1.3,1.3,0,0,1,0,.13c0,.05,0,.08,0,.14m.12-.42c0-.11,0,0,0,0s0,0,0,.06,0,.12,0,.14,0,.11,0,.17a.22.22,0,0,0,0,.09v0s0,.06,0,0m.12-.43c.07.06.07.18.07.28s0,.19,0,.28m.46,3.53a7.47,7.47,0,0,1,.18,2.75c0,.92,0,1.85,0,2.74m-5-2.63a4.93,4.93,0,0,1-.17,1.42,2,2,0,0,0,0,.54l0,.14a3.58,3.58,0,0,0,.06.51l0,.1c0,.2-.09.51.14.57m1.06-4c-.06.5-.13,1.05-.2,1.56s0,1,0,1.4c0,.19-.18.93.17.81m1.72-4.81a13.88,13.88,0,0,1,.06,2.14c0,.27.18.7.18,1v.61m-.9-3.68a4.94,4.94,0,0,0-.15,2.89,3.48,3.48,0,0,1,.1.74v.79m1.59-4.63c.72.84.49,3.49.49,4.69m.62,3a11.36,11.36,0,0,1-.2,2.65,4.22,4.22,0,0,0-.37,1.21,3.35,3.35,0,0,1-.19.45c0,.07-.1.11-.15.11s-.19.13-.19,0m.09-4c-.27,1-.42,2.16-.59,3.18a3.28,3.28,0,0,1-.48,1.08c-.06.1-.45.62-.54.62m-.27-4.83a10.67,10.67,0,0,1-.48,2.3c-.09.24-.15.69-.25.93a4.36,4.36,0,0,0-.28.79,3.46,3.46,0,0,1-.18.74c0,.06-.26.34-.28.47s-.15.23-.11,0m.54-4.17c-.08.29-.23.71-.31,1s-.48.71-.59,1.07-.48.69-.59,1-.32.84-.44,1.19m4-4.78a22.28,22.28,0,0,0-.59,2.41,2.33,2.33,0,0,1-.47.82c-.07.08-.45.48-.55.47"/><path class="cls-7" d="M52.88,183.34c.27-.33.66-.81-.13-1-.54.21-.1.68.13,1m1-3.34a28.63,28.63,0,0,0,1.3,2.83c.06.14.14.29.06.41-.53.72.45,1.1.37,1.24s.16.16.2.3c.1.35-.31.29-.64.28s.55,1.29.43,1.25c-1.08-.27-2.6-.06-2.63-1,0-.43.58-.66.51-1,0,0-.29.05-.51,0s-.12,0-.15-.07a.06.06,0,0,1-.05,0c-.23.06-.51-.05-.53,0-.07.34.51.57.51,1,0,1-1.54.77-2.63,1-.11,0,.8-1.26.44-1.25s-.74.07-.63-.27c0-.14.27-.16.19-.3s.89-.53.37-1.24c-.09-.13,0-.28.06-.42a27.58,27.58,0,0,0,1.3-2.83c.22,0,.45-.34.49-.38.28-.35.2-.32.19,0a2.8,2.8,0,0,0,.35,1.12,2.78,2.78,0,0,0,.33-1.06c0-.29-.1-.3.18,0,0,0,.27.42.49.39"/><path class="cls-9" d="M52.88,183.34c.27-.33.66-.81-.13-1C52.21,182.58,52.65,183.05,52.88,183.34Zm1-3.34a28.63,28.63,0,0,0,1.3,2.83c.06.14.14.29.06.41-.53.72.45,1.1.37,1.24s.16.16.2.3c.1.35-.31.29-.64.28s.55,1.29.43,1.25c-1.08-.27-2.6-.06-2.63-1,0-.43.58-.66.51-1,0,0-.29.05-.51,0s-.12,0-.15-.07a.06.06,0,0,1-.05,0c-.23.06-.51-.05-.53,0-.07.34.51.57.51,1,0,1-1.54.77-2.63,1-.11,0,.8-1.26.44-1.25s-.74.07-.63-.27c0-.14.27-.16.19-.3s.89-.53.37-1.24c-.09-.13,0-.28.06-.42a27.58,27.58,0,0,0,1.3-2.83c.22,0,.45-.34.49-.38.28-.35.2-.32.19,0a2.8,2.8,0,0,0,.35,1.12,2.78,2.78,0,0,0,.33-1.06c0-.29-.1-.3.18,0C53.41,179.66,53.65,180,53.87,180Z"/><path class="cls-8" d="M51.91,180.15a26.7,26.7,0,0,1-1.24,2.74c0,.13-.13.28,0,.4.5.69-.42,1.06-.36,1.19s-.14.16-.17.3c-.09.33.29.27.6.27s-.52,1.24-.41,1.2c1-.25,2.44-.05,2.47-1,0-.42-.55-.63-.48-1,0-.06.27.05.49,0a.34.34,0,0,0,.24-.35,1.14,1.14,0,0,0,0-.27c-.05-.27-1.1-1.06.11-1.22.1,0,.44.16.44.07,0-.76-1-2-1-2.74,0-.28.08-.29-.17,0,0,0-.25.42-.46.38"/><path class="cls-9" d="M51.91,180.15a26.7,26.7,0,0,1-1.24,2.74c0,.13-.13.28,0,.4.5.69-.42,1.06-.36,1.19s-.14.16-.17.3c-.09.33.29.27.59.27s-.52,1.24-.4,1.2c1-.25,2.44-.06,2.47-1,0-.42-.55-.63-.48-1,0-.06.27.05.49,0a.34.34,0,0,0,.24-.35,1.14,1.14,0,0,0,0-.27c-.05-.27-1.1-1.06.11-1.22.1,0,.44.16.44.07,0-.76-1-2-1-2.74,0-.28.08-.29-.17,0C52.33,179.81,52.12,180.19,51.91,180.15Zm-1.62,6.1c1.24-.14,2.24-.29,2.41-.65.46-1-2.61-.38-2.63-.61,0-1.37,2.86-.32,2.94-.9.16-1.11-2.4-.44-2.38-.8.08-1.4,3.07-.82,2.75-.76"/><path class="cls-8" d="M53.81,180.2A28.26,28.26,0,0,0,55,182.94c.05.13.13.29.05.4-.5.7.42,1.06.36,1.19s.14.17.17.31c.09.33-.29.26-.59.26s.51,1.24.4,1.21c-1-.26-2.44-.06-2.47-1,0-.42.54-.65.48-1,0-.05-.27,0-.48,0a.33.33,0,0,1-.25-.35,1.23,1.23,0,0,1,0-.27c.05-.26,1.11-1.05-.11-1.21-.09,0-.44.14-.44.07,0-.77,1-2,1-2.75,0-.28-.08-.29.17,0,0,0,.26.4.46.36"/><path class="cls-9" d="M53.81,180.2A28.26,28.26,0,0,0,55,182.94c.05.13.13.29.05.4-.5.7.42,1.06.36,1.19s.14.17.17.31c.09.33-.29.26-.59.26s.51,1.24.4,1.21c-1-.26-2.44-.06-2.47-1,0-.42.54-.65.48-1,0-.05-.27,0-.48,0a.33.33,0,0,1-.25-.35,1.23,1.23,0,0,1,0-.27c.05-.26,1.11-1.05-.11-1.21-.09,0-.44.14-.44.07,0-.77,1-2,1-2.75,0-.28-.09-.29.17,0C53.38,179.88,53.61,180.24,53.81,180.2Zm1.61,6.11c-1.24-.14-2.24-.3-2.4-.66-.46-1,2.61-.38,2.62-.6,0-1.36-2.85-.34-2.93-.91-.16-1.11,2.4-.44,2.38-.8-.08-1.41-3.07-.81-2.76-.76"/><path class="cls-7" d="M52.87,182a2.9,2.9,0,0,0-1.95-1.11c-2.06-.3-4.07,0-6-.8-1.24-.53-4.27-2.41-3.93-5.85.38-4.05,2.06-5.25,2.25-9.69a7.16,7.16,0,0,0-2-4.42c1.18-1.28,2.59-3,3.78-4.3,2.39,1.9,5.54,1.3,7.83,0,2.29,1.31,5.43,1.89,7.82,0,1.2,1.27,2.6,3,3.79,4.31a7.21,7.21,0,0,0-2,4.41c.19,4.44,1.87,5.65,2.26,9.69.33,3.45-2.7,5.32-3.94,5.86-1.93.82-3.95.5-6,.79a3,3,0,0,0-2,1.11"/><path class="cls-9" d="M52.87,182a2.9,2.9,0,0,0-1.95-1.11c-2.06-.3-4.07,0-6-.8-1.24-.53-4.27-2.41-3.93-5.85.38-4.05,2.06-5.25,2.25-9.69a7.16,7.16,0,0,0-2-4.42c1.18-1.28,2.59-3,3.78-4.3,2.39,1.9,5.54,1.3,7.83,0,2.29,1.31,5.43,1.89,7.82,0,1.2,1.27,2.6,3,3.79,4.31a7.21,7.21,0,0,0-2,4.41c.19,4.44,1.87,5.65,2.26,9.69.33,3.45-2.7,5.32-3.94,5.86-1.93.82-3.95.5-6,.79A3,3,0,0,0,52.87,182Z"/><path class="cls-11" d="M53.36,168.44V157.17c2.23,1,4.51,1.33,7,0,1.11,1.2,1.81,1.86,2.92,3.07a7,7,0,0,0-1.58,4.66,12.84,12.84,0,0,0,.68,3.54Z"/><path class="cls-14" d="M43.58,168.44a10.24,10.24,0,0,0,.61-3.6c0-1.39-.5-3.79-1.66-4.8,1.1-1.21,1.64-1.86,2.75-3,2.06,1.64,5,1.1,7.14,0v11.41Z"/><path class="cls-10" d="M62.76,169H43.15a15.87,15.87,0,0,0-1.47,4.86c-.31,3.25,2.54,5,3.71,5.5,1.82.78,3.71.47,5.64.75a2.73,2.73,0,0,1,1.83,1,2.9,2.9,0,0,1,1.84-1c1.94-.27,3.84,0,5.64-.74,1.19-.51,4-2.26,3.72-5.5a18.65,18.65,0,0,0-1.3-4.87m-9.6-.43h9.46a10.13,10.13,0,0,1-.68-3.82c.05-1.4.44-3.56,1.62-4.58C62.45,159,61.5,158,60.38,156.8c-2.24,1.54-5.09,1.08-7.22,0Zm-9.85,0h9.31V156.74c-2.15,1.13-5.23,1.71-7.38,0l-3.08,3.34A7.09,7.09,0,0,1,44,164.78a10.81,10.81,0,0,1-.66,3.83m9.55,13.15a2.91,2.91,0,0,0-1.92-1c-2-.28-4,.06-5.93-.77-1.23-.53-4.23-2.39-3.89-5.78.37-4,2.05-5.19,2.22-9.58-.19-1.46-.6-3.4-1.84-4.49,1.18-1.28,2.41-2.78,3.6-4.06,2.35,1.88,5.51,1.23,7.76-.06,2.28,1.29,5.46,2,7.82.1,1.18,1.26,2.44,2.76,3.61,4a7.27,7.27,0,0,0-1.89,4.49c.18,4.39,1.85,5.59,2.23,9.59.32,3.39-2.66,5.24-3.9,5.78-1.9.82-3.9.49-5.92.77a3,3,0,0,0-2,1"/><path class="cls-8" d="M52.87,181a2.74,2.74,0,0,0-1.81-1c-1.91-.26-3.79,0-5.58-.73-1.15-.5-3.9-2.25-3.59-5.44a14.73,14.73,0,0,1,1.4-4.67l19.33,0a17.45,17.45,0,0,1,1.22,4.65c.3,3.2-2.42,4.95-3.59,5.44-1.78.77-3.65.47-5.56.74a2.71,2.71,0,0,0-1.82,1"/><path class="cls-7" d="M54.36,170.59c.49.16,1,.36,1,.79a1.09,1.09,0,0,1,.94.87c.38.18.58.25.62.53a.69.69,0,0,1,.55.43.86.86,0,0,1,.8.43.61.61,0,0,1,.61.13c.22-.06.44-.17.7,0l.3,0a.69.69,0,0,1,.57-.31.29.29,0,0,1,.16-.35c-.1-.18-.18-.36,0-.56-.11-.11-.12-.26,0-.45a.34.34,0,0,1-.12-.37.45.45,0,0,1-.31-.32c-.28-.05-.42-.14-.48-.25a.35.35,0,0,1-.28,0c-.1.13-.22.12-.35.13a.67.67,0,0,1-.37.35,2,2,0,0,0,0,.26c.24-.1.49.27.33.51s-.56.33-.64,0a.62.62,0,0,1-.43-.34c-.09-.22-.15-.29,0-.46-.15-.26,0-.49.21-.67s.3-.4.53-.37c.14-.18.19-.35.58-.31a.71.71,0,0,1,.81,0,.59.59,0,0,1,.63.26c.19.09.43.15.47.45.24.14.52.22.43.61a1,1,0,0,1,.36.78,1.06,1.06,0,0,1,0,.7.89.89,0,0,1,0,.75.87.87,0,0,1-.35.88,1,1,0,0,1-.74.81c-.3.56-.66.69-1,.59a1,1,0,0,1-1,.3c-.43.21-.85.4-1.1.18a1.32,1.32,0,0,1-1.39-.05,1.07,1.07,0,0,1-1.26-.43.91.91,0,0,1-1-.33c-.6.25-1.1.29-1.44-.06a.41.41,0,0,1-.32.1,1,1,0,0,1,.1,1.12,1,1,0,0,1,.89.24.87.87,0,0,1,1.34.27c.92-.35,1.26-.08,1.45.61a.6.6,0,0,1,.62-.12c.37-.61.94-.42,1.21.09s-.32,1.15-1,1a.77.77,0,0,1-.86.15,1.3,1.3,0,0,1-1.14-.12,1,1,0,0,1-1.1.23c-.55,1-1.08.62-1.63.31-.41.21-.74,0-1.08-.22a.76.76,0,0,1-.7.37.67.67,0,0,1-.56-.23,1.06,1.06,0,0,1-1.33-.1.77.77,0,0,1-1-.51.65.65,0,0,1-.46,0,.83.83,0,0,1-1.48-.6c-.34,0-.68,0-.9-.64-.06-.17,0-.29.07-.46-.38-.24-.52-.44-.33-1-.4-.2-.58-.59-.24-1.2a1.24,1.24,0,0,1,.26-1.72,2.4,2.4,0,0,1,1.16-.71c0-.47.22-.83,1-1a1.15,1.15,0,0,1,1.22-1,1.29,1.29,0,0,1,1.45-.52c.21-.34.65-.48,1.65-.15a1.33,1.33,0,0,1,1.65.18c.25-.3,1.24,0,1.56.46"/><path class="cls-15" d="M44.58,174.94l.23,0c-.21-.45.1-.85.7-.87a3.28,3.28,0,0,1,2,.93,6.09,6.09,0,0,0,2,1.07,20,20,0,0,1,2.31.49c.34.17.29.39.2.81a.72.72,0,0,0,.48-.6c0-.62-.48-1.13-1.51-1.48a3.61,3.61,0,0,1-2.62-.86,3.26,3.26,0,0,0-1.7-1.41,1.82,1.82,0,0,0-1.49.15c-.7.36-.77.75-.76,1.12s.1.45.16.67m4.74-.23c-.68-.65-.37-1-1-2s-2.11-1.33-2.3-.07c1.92.15,1.83,1,2.79,1.72.22,0,.57.26.54.33m1.11.28c-.75-.65-.75-2.27-1.33-3.24s-1.59-1.27-2.1,0c2.17.48,1.49,2.12,2.72,3a2.77,2.77,0,0,0,.71.23m.5,0c-.48-.79-.24-2.49-.57-3.58-.21-.73-1.44-1.65-2.25-.58,2.09.49,1.16,2.55,2.54,4.15.21.07.32-.05.28,0m.57.15c-.44-.92.09-2.59.15-3.7,0-.74-1-2-2-1.2,1.91,1,.68,2.85,1.59,4.83.2.13.33,0,.28.07m.42.2c-.29-.93.79-2.51,1-3.72a1.19,1.19,0,0,0-1.55-1.44c1.22,1.26-.31,3.72.24,5,.14.13.36.11.29.16m.36.11c.13-.87,1.51-2.51,1.87-3.72.23-.77.05-1.48-1.16-1.34.9,1.49-1.17,3.58-.94,4.94-.07.12.31,0,.23.12m.2,0c.74,1,4.15-4,2-4.63a4,4,0,0,1-.74,2.44c-.54.91-1.26,1.49-1.26,2.19m.64.16c1.44.84,4.21-3.43,2.25-4,.29,1.2-1.65,4-2.25,4m1.26,0c1.07.83,2.14-.31,2.32-1.68a1.51,1.51,0,0,0-.34-1.41,4.75,4.75,0,0,1-2,3.09m1.23.45c1,.83,1.82-.41,1.89-1.54,0-.75-.1-1.41-.56-1.47.16,1.17-.53,2.79-1.33,3m1.11.32c1.08.67,1.64-.66,1.64-1.6,0-.74-.6-1.27-.76-1.2.38,1-.24,2.73-.88,2.8m1.36-.06c1,.38,1.55-1.14,1-2-.29-.43-.52-.45-.68-.39a2.33,2.33,0,0,1-.32,2.35m1.12-.09c.82.12,1-1.09.64-1.71-.28-.45-.53-.47-.68-.39a2,2,0,0,1,0,2.1m.92-.37c.81.12.83-.88.43-1.52-.29-.44-.53-.46-.69-.38a2.5,2.5,0,0,1,.26,1.9m.9-.52a.9.9,0,0,0,.07-1.53c-.44-.34-.71-.3-.92,0a1.49,1.49,0,0,1,.85,1.56m.63-.81a.72.72,0,0,0,0-1.13.67.67,0,0,0-1,0c.44,0,1.15.75,1,1.13m.34-1a.49.49,0,0,0-.43-.67c-.45-.06-.56.06-.59.25a1,1,0,0,1,1,.42m-2.71-3.1c-.14,0-.48.12-.36.49a.31.31,0,0,0,.52.15.6.6,0,0,1-.16-.64m.7-.08c-.14,0-.47-.11-.56.28a.31.31,0,0,0,.39.39.6.6,0,0,1,.17-.67m.68.22a.45.45,0,0,0-.7.1c-.23.4.16.58.27.54a.76.76,0,0,1,.43-.64m.5.39a.4.4,0,0,0-.65,0,.31.31,0,0,0,.11.5c0-.2.24-.49.54-.53m.41.65a.37.37,0,0,0-.6-.31c-.39.21-.26.56-.14.56,0-.21.41-.35.74-.25m.28.61c0-.22-.19-.49-.64-.33s-.47.52-.35.53c0-.21.66-.3,1-.2m.12.58a.56.56,0,0,0-.76-.45c-.42.16-.44.33-.37.52a.94.94,0,0,1,1.13-.07m-3.38-.93a.53.53,0,0,1-.47-.06c0,.18.14.47.37.4s.2-.23.1-.34m.06-.36c-.18,0-.32-.12-.39-.31-.06.17-.18.36,0,.48s.33.11.39-.17m.05-.76a.31.31,0,0,0-.23.42c.09.25.31.24.49.1a.59.59,0,0,1-.26-.52m.11,1.31c0,.09-.13.24-.24.25s.27.32.42.11,0-.4-.18-.36"/><path class="cls-15" d="M53,178.29a.62.62,0,0,1-.6.41c-.35,0-.65-.16-.67-.41h0a.6.6,0,0,0,.35-.45h0a.85.85,0,0,0,.88.46Zm-.47,1.13,0,0a.72.72,0,0,1-.87,0,.44.44,0,0,1,0-.67.88.88,0,0,0,.83.08.54.54,0,0,0,0,.42,1.11,1.11,0,0,0,.07.16m-2.44-.54a.62.62,0,0,1-.48.66.51.51,0,0,1-.65-.39.55.55,0,0,1,0-.22.72.72,0,0,0,.43-.25.89.89,0,0,0,.54.1l.11,0a.53.53,0,0,1,0,.12m1.23.38a.76.76,0,0,1-.84.26.4.4,0,0,1-.17-.55.83.83,0,0,0,.67.17.63.63,0,0,0,.46-.26.57.57,0,0,1-.12.38m-1-1.25a.62.62,0,0,1,0,.47c-.16.24-.5.24-.78,0a.79.79,0,0,1-.27-.62.37.37,0,0,0,.13-.3l0,0a.69.69,0,0,0,.76.53.31.31,0,0,0,.17-.05m1.08.64a.75.75,0,0,1-.84.28.43.43,0,0,1-.09-.69.67.67,0,0,1,.22-.19.85.85,0,0,0,.78.28h.06a.59.59,0,0,1-.13.32m6.58-.41a.45.45,0,0,1-.39.58.31.31,0,0,1-.23,0,.51.51,0,0,0,0-.3.73.73,0,0,0-.37-.44.46.46,0,0,1,.34-.23.58.58,0,0,1,.65.41m-.81.26a.46.46,0,0,1-.38.59.62.62,0,0,1-.38-.07.56.56,0,0,0,.16-.57.63.63,0,0,0-.19-.32l.14,0a.59.59,0,0,1,.65.41m-.81,0a.47.47,0,0,1-.4.6.59.59,0,0,1-.67-.43l0-.06a.86.86,0,0,0,.36,0,.64.64,0,0,0,.54-.42.57.57,0,0,1,.19.29m-1.24.13a.43.43,0,0,1-.38.52.48.48,0,0,1-.47-.16.57.57,0,0,0,.15-.56.52.52,0,0,0-.06-.13.24.24,0,0,1,.14,0,.61.61,0,0,1,.27,0,.78.78,0,0,0,.3.24l0,.12m-1.3.57a.49.49,0,0,1-.47.52.7.7,0,0,1-.76-.41.47.47,0,0,1,.39-.57.9.9,0,0,0,.84.46m.41-.72a.47.47,0,0,1-.4.59.61.61,0,0,1-.67-.43.48.48,0,0,1,.29-.57.76.76,0,0,0,.78.41M53.3,178a.54.54,0,0,1-.34.2.65.65,0,0,1-.73-.45.5.5,0,0,1,.43-.64.67.67,0,0,1,.63.25.52.52,0,0,0-.09.44.62.62,0,0,0,.1.2m-4.19-.71a.44.44,0,0,1-.42.55.68.68,0,0,1-.73-.4.24.24,0,0,1,0-.22l.11.09a.79.79,0,0,0,.93,0,.53.53,0,0,0,.06-.1.2.2,0,0,1,0,.08m.12,1.23a.54.54,0,0,1-.31.26.58.58,0,0,1-.68-.32.42.42,0,0,1,0-.38.71.71,0,0,0,.36,0,.49.49,0,0,0,.27-.22.45.45,0,0,0,0,.34.58.58,0,0,0,.33.3m-.43.33a.35.35,0,0,1-.06.24.45.45,0,0,1-.63,0c-.23-.17-.31-.44-.18-.6a.33.33,0,0,1,.22-.11.41.41,0,0,0,0,.22.46.46,0,0,0,.51.32.38.38,0,0,0,.17-.07m7.15-1a.47.47,0,0,1-.39.58.57.57,0,0,1-.64-.41.45.45,0,0,1,.39-.57.57.57,0,0,1,.64.4m-1.41-.2a.46.46,0,0,1-.39.58.59.59,0,0,1-.65-.41.46.46,0,0,1,.39-.58.59.59,0,0,1,.65.41m-7.87-.84a.4.4,0,0,1,0,.4.56.56,0,0,1-.75,0,.49.49,0,0,1-.19-.69.4.4,0,0,1,.36-.15.74.74,0,0,0,.61.45ZM45.83,175a.56.56,0,0,1,.5.46.41.41,0,0,0-.24.36.3.3,0,0,0,0,.13.54.54,0,0,1-.28.08.61.61,0,0,1-.55-.57.51.51,0,0,1,.55-.46m-.81.05a.51.51,0,0,1,.28.08.45.45,0,0,0-.21.37.63.63,0,0,0,.3.5.57.57,0,0,1-.37.13.65.65,0,0,1-.57-.61.53.53,0,0,1,.57-.47m1.67,2.27a.64.64,0,0,1,.21.31.53.53,0,0,1-.36.67.73.73,0,0,1-.77-.45.45.45,0,0,1,0-.34h0a.71.71,0,0,0,.86-.2m.76-.94a.58.58,0,0,1,.28.09.55.55,0,0,0,.18.72.55.55,0,0,1-.46.26.64.64,0,0,1-.59-.59h0a.53.53,0,0,0,.53-.48Zm-.32,2.45a.6.6,0,0,1-.5.25.74.74,0,0,1-.65-.67.2.2,0,0,1,0-.09.64.64,0,0,0,.45.23.84.84,0,0,0,.31-.08.81.81,0,0,0,.37.36m-.09-.78a0,0,0,0,0,0,0,.51.51,0,0,1-.22.32.58.58,0,0,0,.2-.35m-1.35-1.79a.47.47,0,0,0-.25.42.76.76,0,0,0,.22.5l-.16,0a.77.77,0,0,1-.67-.7.46.46,0,0,1,.06-.23.36.36,0,0,0,.15,0,.61.61,0,0,0,.4-.14.71.71,0,0,0,.25.11m.15,1.18a.5.5,0,0,0-.24.41.63.63,0,0,0,.12.3h0a.68.68,0,0,1-.6-.59.38.38,0,0,1,.14-.31.56.56,0,0,0,.32.09h.14a.39.39,0,0,0,.17.11m1.54.22a.56.56,0,0,1,.55.54.52.52,0,0,1-.55.48.66.66,0,0,1-.53-.34.46.46,0,0,0,.29-.43.48.48,0,0,0,0-.2.87.87,0,0,1,.28-.05m-.55-2.19a.66.66,0,0,1,.6.66.59.59,0,0,1-.6.58.77.77,0,0,1-.69-.69c0-.32.35-.55.69-.55m4.71,1.82a.55.55,0,0,1,.22.74.62.62,0,0,1-.81,0,.55.55,0,0,1-.21-.74.58.58,0,0,1,.8,0M50.18,177a.55.55,0,0,1,.18.73c-.14.2-.45.2-.71,0a.59.59,0,0,1-.19-.74.5.5,0,0,1,.72,0m-1.44-.74a.64.64,0,0,1,.24.86.69.69,0,0,1-.92,0,.63.63,0,0,1-.25-.86.71.71,0,0,1,.93,0"/><path class="cls-9" d="M53,178.29a.62.62,0,0,1-.6.41c-.35,0-.65-.16-.67-.41h0a.6.6,0,0,0,.35-.45h0a.85.85,0,0,0,.88.46Zm-.47,1.13,0,0a.72.72,0,0,1-.87,0,.44.44,0,0,1,0-.67.88.88,0,0,0,.83.08.54.54,0,0,0,0,.42A1.11,1.11,0,0,0,52.49,179.42Zm-2.44-.54a.62.62,0,0,1-.48.66.51.51,0,0,1-.65-.39.55.55,0,0,1,0-.22.72.72,0,0,0,.43-.25.89.89,0,0,0,.54.1l.11,0A.53.53,0,0,1,50.05,178.88Zm1.23.38a.76.76,0,0,1-.84.26.4.4,0,0,1-.17-.55.83.83,0,0,0,.67.17.63.63,0,0,0,.46-.26A.57.57,0,0,1,51.28,179.26Zm-1-1.25a.62.62,0,0,1,0,.47c-.16.24-.5.24-.78,0a.79.79,0,0,1-.27-.62.37.37,0,0,0,.13-.3l0,0a.69.69,0,0,0,.76.53A.31.31,0,0,0,50.28,178Zm1.08.64a.75.75,0,0,1-.84.28.43.43,0,0,1-.09-.69.67.67,0,0,1,.22-.19.85.85,0,0,0,.78.28h.06A.59.59,0,0,1,51.36,178.65Zm6.58-.41a.45.45,0,0,1-.39.58.31.31,0,0,1-.23,0,.51.51,0,0,0,0-.3.73.73,0,0,0-.37-.44.46.46,0,0,1,.34-.23A.58.58,0,0,1,57.94,178.24Zm-.81.26a.46.46,0,0,1-.38.59.62.62,0,0,1-.38-.07.56.56,0,0,0,.16-.57.63.63,0,0,0-.19-.32l.14,0A.59.59,0,0,1,57.13,178.5Zm-.81,0a.47.47,0,0,1-.4.6.59.59,0,0,1-.67-.43l0-.06a.86.86,0,0,0,.36,0,.64.64,0,0,0,.54-.42A.57.57,0,0,1,56.32,178.49Zm-1.24.13a.43.43,0,0,1-.38.52.48.48,0,0,1-.47-.16.57.57,0,0,0,.15-.56.52.52,0,0,0-.06-.13.24.24,0,0,1,.14,0,.61.61,0,0,1,.27,0,.78.78,0,0,0,.3.24Zm-1.3.57a.49.49,0,0,1-.47.52.7.7,0,0,1-.76-.41.47.47,0,0,1,.39-.57A.9.9,0,0,0,53.78,179.19Zm.41-.72a.47.47,0,0,1-.4.59.61.61,0,0,1-.67-.43.48.48,0,0,1,.29-.57A.76.76,0,0,0,54.19,178.47ZM53.3,178a.54.54,0,0,1-.34.2.65.65,0,0,1-.73-.45.5.5,0,0,1,.43-.64.67.67,0,0,1,.63.25.52.52,0,0,0-.09.44A.62.62,0,0,0,53.3,178Zm-4.19-.71a.44.44,0,0,1-.42.55.68.68,0,0,1-.73-.4.24.24,0,0,1,0-.22l.11.09a.79.79,0,0,0,.93,0,.53.53,0,0,0,.06-.1A.2.2,0,0,1,49.11,177.31Zm.12,1.23a.54.54,0,0,1-.31.26.58.58,0,0,1-.68-.32.42.42,0,0,1,0-.38.71.71,0,0,0,.36,0,.49.49,0,0,0,.27-.22.45.45,0,0,0,0,.34A.58.58,0,0,0,49.23,178.54Zm-.43.33a.35.35,0,0,1-.06.24.45.45,0,0,1-.63,0c-.23-.17-.31-.44-.18-.6a.33.33,0,0,1,.22-.11.41.41,0,0,0,0,.22.46.46,0,0,0,.51.32A.38.38,0,0,0,48.8,178.87Zm7.15-1a.47.47,0,0,1-.39.58.57.57,0,0,1-.64-.41.45.45,0,0,1,.39-.57A.57.57,0,0,1,56,177.84Zm-1.41-.2a.46.46,0,0,1-.39.58.59.59,0,0,1-.65-.41.46.46,0,0,1,.39-.58A.59.59,0,0,1,54.54,177.64Zm-7.87-.84a.4.4,0,0,1,0,.4.56.56,0,0,1-.75,0,.49.49,0,0,1-.19-.69.4.4,0,0,1,.36-.15.74.74,0,0,0,.61.45ZM45.83,175a.56.56,0,0,1,.5.46.41.41,0,0,0-.24.36.3.3,0,0,0,0,.13.54.54,0,0,1-.28.08.61.61,0,0,1-.55-.57A.51.51,0,0,1,45.83,175Zm-.81.05a.51.51,0,0,1,.28.08.45.45,0,0,0-.21.37.63.63,0,0,0,.3.5.57.57,0,0,1-.37.13.65.65,0,0,1-.57-.61A.53.53,0,0,1,45,175.06Zm1.67,2.27a.64.64,0,0,1,.21.31.53.53,0,0,1-.36.67.73.73,0,0,1-.77-.45.45.45,0,0,1,0-.34h0A.71.71,0,0,0,46.69,177.33Zm.76-.94a.58.58,0,0,1,.28.09.55.55,0,0,0,.18.72.55.55,0,0,1-.46.26.64.64,0,0,1-.59-.59h0a.53.53,0,0,0,.53-.48Zm-.32,2.45a.6.6,0,0,1-.5.25.74.74,0,0,1-.65-.67.2.2,0,0,1,0-.09.64.64,0,0,0,.45.23.84.84,0,0,0,.31-.08A.81.81,0,0,0,47.13,178.84Zm-.09-.78a0,0,0,0,0,0,0,.51.51,0,0,1-.22.32A.58.58,0,0,0,47,178.06Zm-1.35-1.79a.47.47,0,0,0-.25.42.76.76,0,0,0,.22.5l-.16,0a.77.77,0,0,1-.67-.7.46.46,0,0,1,.06-.23.36.36,0,0,0,.15,0,.61.61,0,0,0,.4-.14A.71.71,0,0,0,45.69,176.27Zm.15,1.18a.5.5,0,0,0-.24.41.63.63,0,0,0,.12.3h0a.68.68,0,0,1-.6-.59.38.38,0,0,1,.14-.31.56.56,0,0,0,.32.09h.14A.39.39,0,0,0,45.84,177.45Zm1.54.22a.56.56,0,0,1,.55.54.52.52,0,0,1-.55.48.66.66,0,0,1-.53-.34.46.46,0,0,0,.29-.43.48.48,0,0,0,0-.2A.87.87,0,0,1,47.38,177.67Zm-.55-2.19a.66.66,0,0,1,.6.66.59.59,0,0,1-.6.58.77.77,0,0,1-.69-.69C46.14,175.71,46.49,175.48,46.83,175.48Zm4.71,1.82a.55.55,0,0,1,.22.74.62.62,0,0,1-.81,0,.55.55,0,0,1-.21-.74A.58.58,0,0,1,51.54,177.3ZM50.18,177a.55.55,0,0,1,.18.73c-.14.2-.45.2-.71,0a.59.59,0,0,1-.19-.74A.5.5,0,0,1,50.18,177Zm-1.44-.74a.64.64,0,0,1,.24.86.69.69,0,0,1-.92,0,.63.63,0,0,1-.25-.86A.71.71,0,0,1,48.74,176.22Z"/><path class="cls-16" d="M57.57,162.91a7.77,7.77,0,0,0-1-2.5c-.3-.3-.6-.57-.9-.88l1.11.81a7.51,7.51,0,0,1,.89,2.1c.13-.11.19,0,.33-.15a10,10,0,0,0,2-1.88c-.08.2-.45.8-.54,1-1.19,1.16-1.66,1.25-1.64,1.68,0,.14-.07.28-.1.41l1.13-1.1c-.22.32-.91,1.1-.94,1.41-.23.26-.11.52-.06.78a11,11,0,0,0,2.83-1.68c-1,1.17-1.86,1.2-2.79,2.28-.05.44-.1.86-.14,1.28s.09.73.12,1.11a.81.81,0,0,1,.51.38,15.27,15.27,0,0,1,3,.49H53.76a9.07,9.07,0,0,1,2.69-.37,1.32,1.32,0,0,1,.73-.59l.12-1.82a1,1,0,0,0-.39-.82,7.73,7.73,0,0,1-1.87-2,15.65,15.65,0,0,0,2.35,2c0-.12.07-.23.09-.33v-.85a6.91,6.91,0,0,1-1.61-1.59s-.61-.73-.59-.76a15.88,15.88,0,0,0,2.26,2c0-.07,0-.13,0-.2l-.19-.25.24,0"/><path class="cls-17" d="M57.57,162.91a7.77,7.77,0,0,0-1-2.5c-.3-.3-.6-.57-.9-.88l1.11.81a7.51,7.51,0,0,1,.89,2.1c.13-.11.19,0,.33-.15a10,10,0,0,0,2-1.88c-.08.2-.45.8-.54,1-1.19,1.16-1.66,1.25-1.64,1.68,0,.14-.07.28-.1.41l1.13-1.1c-.22.32-.91,1.1-.94,1.41-.23.26-.11.52-.06.78a11,11,0,0,0,2.83-1.68c-1,1.17-1.86,1.2-2.79,2.28-.05.44-.1.86-.14,1.28s.09.73.12,1.11a.81.81,0,0,1,.51.38,15.27,15.27,0,0,1,3,.49H53.76a9.07,9.07,0,0,1,2.69-.37,1.32,1.32,0,0,1,.73-.59l.12-1.82a1,1,0,0,0-.39-.82,7.73,7.73,0,0,1-1.87-2,15.65,15.65,0,0,0,2.35,2c0-.12.07-.23.09-.33v-.85a6.91,6.91,0,0,1-1.61-1.59s-.61-.73-.59-.76a15.88,15.88,0,0,0,2.26,2c0-.07,0-.13,0-.2l-.19-.25Z"/><path class="cls-18" d="M60.58,162.83c.33-.93.6-.9,1.16-1.18-.38.85-.71,1.18-1.16,1.18"/><path class="cls-19" d="M60.58,162.83c.33-.93.6-.9,1.16-1.18C61.36,162.5,61,162.83,60.58,162.83Z"/><path class="cls-18" d="M58,165.12c1-.55,1.25.21,1.74.2-.6.46-1.37-.2-1.74-.2"/><path class="cls-19" d="M58,165.12c1-.55,1.25.21,1.74.2C59.18,165.78,58.41,165.12,58,165.12Z"/><path class="cls-18" d="M58.78,160c-.54-1.27.46-1.31.51-1.85.48.79-.46,1.42-.51,1.85"/><path class="cls-19" d="M58.78,160c-.54-1.27.46-1.31.51-1.85C59.77,158.93,58.83,159.56,58.78,160Z"/><path class="cls-18" d="M57,164.58c-.47-.64-.25-.77-.07-1.22.37.62.36,1,.07,1.22"/><path class="cls-19" d="M57,164.58c-.47-.64-.25-.77-.07-1.22C57.29,164,57.28,164.32,57,164.58Z"/><path class="cls-18" d="M55.76,163.53c-.93-.7-.08-1.13-.25-1.53.71.37.13,1.22.25,1.53"/><path class="cls-19" d="M55.76,163.53c-.93-.7-.08-1.13-.25-1.53C56.22,162.37,55.64,163.22,55.76,163.53Z"/><path class="cls-18" d="M56.53,164.17c-.91-.7-.26-1.23-.46-1.65.67.36.31,1.31.46,1.65"/><path class="cls-19" d="M56.53,164.17c-.91-.7-.26-1.23-.46-1.65C56.74,162.88,56.38,163.83,56.53,164.17Z"/><path class="cls-18" d="M60,160.38c-.08-1.3.62-1.48,1.13-2,0,1.2-.61,1.86-1.13,2"/><path class="cls-19" d="M60,160.38c-.08-1.3.62-1.48,1.13-2C61.16,159.6,60.56,160.26,60,160.38Z"/><path class="cls-18" d="M58.59,164.63c1-.59,1.27.17,1.75.14-.58.48-1.37-.16-1.75-.14"/><path class="cls-19" d="M58.59,164.63c1-.59,1.27.17,1.75.14C59.76,165.25,59,164.61,58.59,164.63Z"/><path class="cls-18" d="M59.35,164.16c1.08-.47,1.24.33,1.73.36-.65.4-1.34-.33-1.73-.36"/><path class="cls-19" d="M59.35,164.16c1.08-.47,1.24.33,1.73.36C60.43,164.92,59.74,164.19,59.35,164.16Z"/><path class="cls-18" d="M60,163.83c.66-.79,1.11-.12,1.49-.27-.36.61-1.18.17-1.49.27"/><path class="cls-19" d="M60,163.83c.66-.79,1.11-.12,1.49-.27C61.08,164.17,60.26,163.73,60,163.83Z"/><path class="cls-18" d="M60.46,163.33c.37-.81.84-.2,1.1-.36-.16.6-.88.23-1.1.36"/><path class="cls-19" d="M60.46,163.33c.37-.81.84-.2,1.1-.36C61.4,163.57,60.68,163.2,60.46,163.33Z"/><path class="cls-18" d="M57.38,165.12c-1-.55-1.27.21-1.76.2.61.46,1.38-.2,1.76-.2"/><path class="cls-19" d="M57.38,165.12c-1-.55-1.27.21-1.76.2C56.23,165.78,57,165.12,57.38,165.12Z"/><path class="cls-18" d="M56.82,164.63c-1-.59-1.28.17-1.76.14.59.48,1.38-.16,1.76-.14"/><path class="cls-19" d="M56.82,164.63c-1-.59-1.28.17-1.76.14C55.65,165.25,56.44,164.61,56.82,164.63Z"/><path class="cls-18" d="M56.06,164.16c-1.07-.47-1.25.33-1.73.36.65.4,1.33-.33,1.73-.36"/><path class="cls-19" d="M56.06,164.16c-1.07-.47-1.25.33-1.73.36C55,164.92,55.66,164.19,56.06,164.16Z"/><path class="cls-18" d="M55.47,163.83c-.69-.79-1.12-.12-1.51-.27.36.61,1.19.17,1.51.27"/><path class="cls-19" d="M55.47,163.83c-.69-.79-1.12-.12-1.51-.27C54.32,164.17,55.15,163.73,55.47,163.83Z"/><path class="cls-18" d="M55,163.33c-.36-.81-.83-.2-1.11-.36.17.6.88.23,1.11.36"/><path class="cls-19" d="M55,163.33c-.36-.81-.83-.2-1.11-.36C54,163.57,54.72,163.2,55,163.33Z"/><path class="cls-18" d="M55,162.77c-.32-.94-.59-.9-1.15-1.19.37.86.72,1.18,1.15,1.19"/><path class="cls-19" d="M55,162.77c-.32-.94-.59-.9-1.15-1.19C54.21,162.44,54.56,162.76,55,162.77Z"/><path class="cls-18" d="M58.34,164.36a1.47,1.47,0,0,0,.34-1.3,1.1,1.1,0,0,0-.34,1.3"/><path class="cls-19" d="M58.34,164.36a1.47,1.47,0,0,0,.34-1.3A1.1,1.1,0,0,0,58.34,164.36Z"/><path class="cls-18" d="M59.85,163.27c1.07-.45.39-1.12.59-1.82a4.49,4.49,0,0,0-.59,1.82"/><path class="cls-19" d="M59.85,163.27c1.07-.45.39-1.12.59-1.82A4.49,4.49,0,0,0,59.85,163.27Z"/><path class="cls-18" d="M59,163.92c1.07-.46.53-1.3.83-1.67-.63.35-.59,1.38-.83,1.67"/><path class="cls-19" d="M59,163.92c1.07-.46.53-1.3.83-1.67C59.15,162.6,59.19,163.63,59,163.92Z"/><path class="cls-18" d="M55.69,161.9a1.63,1.63,0,0,0-1.48-.8c.62.71,1,.92,1.48.8"/><path class="cls-19" d="M55.69,161.9a1.63,1.63,0,0,0-1.48-.8C54.83,161.81,55.26,162,55.69,161.9Z"/><path class="cls-18" d="M55.49,161.54c.06-1.15-.24-1.22-.73-1.76,0,1.08.26,1.56.73,1.76"/><path class="cls-19" d="M55.49,161.54c.06-1.15-.24-1.22-.73-1.76C54.8,160.86,55,161.34,55.49,161.54Z"/><path class="cls-18" d="M56,159.72c.61-.87.3-1,0-1.47-.48.81-.45,1.22,0,1.47"/><path class="cls-19" d="M56,159.72c.61-.87.3-1,0-1.47C55.56,159.06,55.59,159.47,56,159.72Z"/><path class="cls-18" d="M56.16,162.39c-.92-.69-.1-1.14-.25-1.54.71.38.13,1.22.25,1.54"/><path class="cls-19" d="M56.16,162.39c-.92-.69-.1-1.14-.25-1.54C56.62,161.23,56,162.07,56.16,162.39Z"/><path class="cls-18" d="M57,163c-.47-.64-.25-.77-.07-1.21.37.61.36,1,.07,1.21"/><path class="cls-19" d="M57,163c-.47-.64-.25-.77-.07-1.21C57.29,162.36,57.28,162.71,57,163Z"/><path class="cls-18" d="M56.53,162.63a1.45,1.45,0,0,0,0-1.32,1.08,1.08,0,0,0,0,1.32"/><path class="cls-19" d="M56.53,162.63a1.45,1.45,0,0,0,0-1.32A1.08,1.08,0,0,0,56.53,162.63Z"/><path class="cls-18" d="M56.77,160.22c-.93-.69-.09-1.14-.25-1.54.71.38.14,1.23.25,1.54"/><path class="cls-19" d="M56.77,160.22c-.93-.69-.09-1.14-.25-1.54C57.23,159.06,56.66,159.91,56.77,160.22Z"/><path class="cls-18" d="M58.71,159.78c-1.11-.34-.5-1-.8-1.36.8.11.57,1.1.8,1.36"/><path class="cls-19" d="M58.71,159.78c-1.11-.34-.5-1-.8-1.36C58.71,158.53,58.48,159.52,58.71,159.78Z"/><path class="cls-18" d="M58,162.36a1.81,1.81,0,0,0,0-1.65,1.37,1.37,0,0,0,0,1.65"/><path class="cls-19" d="M58,162.36a1.81,1.81,0,0,0,0-1.65A1.37,1.37,0,0,0,58,162.36Z"/><path class="cls-18" d="M59.57,160.75c.9-.72.07-1.17.07-1.9a4.32,4.32,0,0,0-.07,1.9"/><path class="cls-19" d="M59.57,160.75c.9-.72.07-1.17.07-1.9A4.32,4.32,0,0,0,59.57,160.75Z"/><path class="cls-18" d="M58.61,162c.86-.95-.2-1.39-.09-1.85-.47.62.17,1.48.09,1.85"/><path class="cls-19" d="M58.61,162c.86-.95-.2-1.39-.09-1.85C58.05,160.72,58.69,161.58,58.61,162Z"/><path class="cls-18" d="M61.82,160.29c-.86.79-1.17.56-2,.49.88-.67,1.45-.77,2-.49"/><path class="cls-19" d="M61.82,160.29c-.86.79-1.17.56-2,.49C60.71,160.11,61.28,160,61.82,160.29Z"/><path class="cls-18" d="M59.24,161.52c.95-.67,1.23-.41,2-.24-1,.55-1.54.58-2,.24"/><path class="cls-19" d="M59.24,161.52c.95-.67,1.23-.41,2-.24C60.32,161.83,59.74,161.86,59.24,161.52Z"/><path class="cls-18" d="M59.32,161.26A1.8,1.8,0,0,0,59,159.7a1.3,1.3,0,0,0,.35,1.56"/><path class="cls-19" d="M59.32,161.26A1.8,1.8,0,0,0,59,159.7,1.3,1.3,0,0,0,59.32,161.26Z"/><path class="cls-18" d="M57.42,161.45c-.31-.73-.06-.81.22-1.21.22.7.13,1-.22,1.21"/><path class="cls-19" d="M57.42,161.45c-.31-.73-.06-.81.22-1.21C57.86,160.94,57.77,161.26,57.42,161.45Z"/><path class="cls-18" d="M57,160.67a1.53,1.53,0,0,0,.44-1.27,1.12,1.12,0,0,0-.44,1.27"/><path class="cls-19" d="M57,160.67a1.53,1.53,0,0,0,.44-1.27A1.12,1.12,0,0,0,57,160.67Z"/><path class="cls-18" d="M56.5,160.31a1.57,1.57,0,0,0-1.35-.3,1.23,1.23,0,0,0,1.35.3"/><path class="cls-19" d="M56.5,160.31a1.57,1.57,0,0,0-1.35-.3A1.23,1.23,0,0,0,56.5,160.31Z"/><path class="cls-18" d="M57.07,161.45a1.61,1.61,0,0,0-1.33-.3,1.17,1.17,0,0,0,1.33.3"/><path class="cls-19" d="M57.07,161.45a1.61,1.61,0,0,0-1.33-.3A1.17,1.17,0,0,0,57.07,161.45Z"/><path class="cls-18" d="M57,161a1.56,1.56,0,0,0-1.34-.3A1.2,1.2,0,0,0,57,161"/><path class="cls-19" d="M57,161a1.56,1.56,0,0,0-1.34-.3A1.2,1.2,0,0,0,57,161Z"/><path class="cls-18" d="M58,162.6c1,.59,1.27-.17,1.76-.14-.59-.48-1.37.16-1.76.14"/><path class="cls-19" d="M58,162.6c1,.59,1.27-.17,1.76-.14C59.21,162,58.43,162.62,58,162.6Z"/><path class="cls-18" d="M58.8,162a1.64,1.64,0,0,1,1.69-.13c-.87.4-1.36.42-1.69.13"/><path class="cls-19" d="M58.8,162a1.64,1.64,0,0,1,1.69-.13C59.62,162.26,59.13,162.28,58.8,162Z"/><path class="cls-18" d="M55.85,159.8c-.84.07-1-.35-1.31-.67.79,0,1.22.36,1.31.67"/><path class="cls-19" d="M55.85,159.8c-.84.07-1-.35-1.31-.67C55.33,159.12,55.76,159.49,55.85,159.8Z"/><path class="cls-20" d="M52.41,167.9a2,2,0,0,0-.33-.05c-.27,0-1.07-.24-1.24-.21-.48.17-1.25-.33-1.52-.16a7.05,7.05,0,0,1-1.57.07,4.08,4.08,0,0,0-1.93.12c-.32.15-.77-.33-.93-.17a1.64,1.64,0,0,1-1.16.42l-.18.52h8.86Z"/><path class="cls-9" d="M52.41,167.9a2,2,0,0,0-.33-.05c-.27,0-1.07-.24-1.24-.21-.48.17-1.25-.33-1.52-.16a7.05,7.05,0,0,1-1.57.07,4.08,4.08,0,0,0-1.93.12c-.32.15-.77-.33-.93-.17a1.64,1.64,0,0,1-1.16.42l-.18.52h8.86Z"/><path class="cls-7" d="M50.76,164.28c-.45.18-.74,1.38-.92,1.74-.11.19-.33.64-.12.93.09.13.25.18.27.29.3,0,.47.18.45.41s-.58.16-.8,0a.19.19,0,0,0-.09-.16c0-.06,0-.1-.06-.17-.64-.31-.2-.73-.27-1.62,0,.16-.09.33-.13.49a5.94,5.94,0,0,0-.06,1.1.82.82,0,0,0,.35.34c.14.06.14.11.29.31s.09.19,0,.22-.09.19-.62,0c0-.07,0-.14,0-.2s-.11,0-.13-.08a.57.57,0,0,0-.2-.29c0-.14-.19-.14-.24-.34a2.66,2.66,0,0,1,.08-.85,7.22,7.22,0,0,0,.16-1.3,1.23,1.23,0,0,1-.23-.92c-.41.17-1-.16-1.22-.29s-.11.87-.82,1.27a.91.91,0,0,0-.28.45c-.24.26.16,1.08.41,1.35s.32.38.43.53.46.24.45.46a1.33,1.33,0,0,1-.86,0c0-.1-.16-.25-.05-.35a.61.61,0,0,1-.4-.15,12,12,0,0,0-.76-1.52c-.09,0-.13-.26-.13-.36s0,0,.24-.54c-.14.27-.53.51-.51.85s.3.87.34,1.13.11.26.47.4c.16.14.43.38.43.54a1.23,1.23,0,0,1-.89,0c-.05-.11-.06-.28-.12-.41s0-.11-.12-.13-.31,0-.39-.09c-.13-.58-.28-1.54-.43-2.11a.63.63,0,0,1,.17-.52c.28-.16.44-.5.64-.71s.14-.81-.15-1.12c-.11.17,0,.22-.09.25s-.34-.33-.28-.54,0-.44,0-.77c.11-.55.42-.65.72-.37a1.83,1.83,0,0,1,1.46-.52,2.86,2.86,0,0,1,1.94.16,2.32,2.32,0,0,1,1.12.6c.14.11.32,0,.44-.13a6.16,6.16,0,0,0-.44-2.58c-.38.22-.67,0-1.07-.26-.09-.06-.09-.11,0-.16s.24-.09.37-.09c-.2-.15-.16-.21,0-.24.32.07.61-.15.89,0,.18-.28.5-.27.81-.29a.93.93,0,0,1,.69.33c.1.15.48.18.55.27s0,.28,0,.42a.39.39,0,0,1-.31.19,2.3,2.3,0,0,1-.26,0c0,.07-.14.15-.24.2a6.83,6.83,0,0,1,.33,2.59,1.89,1.89,0,0,1-.57,1.57c-.21.17-.08.41-.2.6"/><path class="cls-16" d="M50,158.81c-.07.08-.32.3-.51.27s-.21-.18-.45-.23-.11-.08,0-.12.65-.27.92,0c-.22,0-.26,0-.51.07a.89.89,0,0,0,.53,0"/><path class="cls-21" d="M49.23,158.52c-.11-.05-.16-.06,0-.11.33.07.59-.15.81.06-.07,0-.06.06-.14.06s-.48,0-.63,0"/><path class="cls-16" d="M50.14,158.43a.83.83,0,0,1,1.08-.07,1.37,1.37,0,0,0,.65.32.17.17,0,0,0,.14.14s0,.12,0,.15-.29.06-.49.06a1.05,1.05,0,0,0,.45.05c0,.08-.16.23-.5.17-.09.17-.27.31-.62.18a1.21,1.21,0,0,1-.36-.1.9.9,0,0,0,.56.32,7.55,7.55,0,0,1,.42,2.32,3.32,3.32,0,0,1-.29,1.31c-.08.2-.23.24-.31.34-.2.28-.14.53-.22.66-.58.08-.63,1.71-1,1.64s-.34-.89,0-1.06c1-.57.63-2,.68-1.84-.22.74-.06,1.46-.56,1.42s-.59,1-.59,1.17-.07.31-.11.52a9.31,9.31,0,0,0-.11,1,1.12,1.12,0,0,0,0,.32,1.06,1.06,0,0,0,.42.39c.22.08.31.33.26.4a.37.37,0,0,1-.48,0,.52.52,0,0,1,0-.21c-.16,0-.16-.21-.32-.35,0-.14-.26-.18-.26-.43a12.23,12.23,0,0,1,.24-1.3,2,2,0,0,0,.14-.65c-.08-.19.16-.19,0-.34-.32-.29-.28-.79.16-1.27-.09,0-.14-.2-.2-.29v.35l-.34.42a1.71,1.71,0,0,1-1.34-.46.67.67,0,0,1-.3-.61s-.21,0-.17,0-.06.18,0,.32.29.19.28.29l-.07.58a2,2,0,0,1-.7,1.09l-.27.59c0,.35.48,1,.74,1.33.09.08.17.25.27.34a1,1,0,0,1,.43.34,1.17,1.17,0,0,1-.7,0,.27.27,0,0,1,0-.32.68.68,0,0,1-.43-.18,14.63,14.63,0,0,0-.82-1.56.39.39,0,0,1,.08-.48,1.88,1.88,0,0,0,.22-1.53c-.26-.09-.5-.57-.56-1a1.56,1.56,0,0,1,.32-1.33,1.64,1.64,0,0,1,1.29-.37,3.77,3.77,0,0,1,2.39.3c.43.06.53.52.86.48a.43.43,0,0,0,.4-.42,7.57,7.57,0,0,0-.43-2.49.36.36,0,0,1,.22-.23c-.08-.07-.15-.15-.13-.22a1.52,1.52,0,0,1,.06-.2"/><path class="cls-7" d="M51.4,158.73c-.24-.07-.24-.17-.49-.1a.43.43,0,0,0-.23.2c.1,0,.13-.07.19-.05s.28.05.33,0,.11,0,.2,0"/><path class="cls-16" d="M49.76,164.58a.52.52,0,0,1-.07.52.57.57,0,0,1-.09.74c.21.34-.06.52,0,1,.1.28.32.28.32.46.27,0,.45.11.46.3s-.05-.07-.13,0c.08.06.11.11.08.12a.73.73,0,0,1-.38.06c-.07,0-.15,0-.19-.14a1.16,1.16,0,0,0,0-.18.41.41,0,0,1-.37-.45c0,.1-.08.16-.08.22a.46.46,0,0,1-.12-.35,2.66,2.66,0,0,0,.09-1.12c0-.83.23-.95.48-1.11"/><path class="cls-12" d="M45,162c0,.07-.05.25-.17.44a.32.32,0,0,0,.23-.13.78.78,0,0,1-.21.36c.06,0,.12,0,.21-.13v.09a2.6,2.6,0,0,0-.1.25c-.07,0-.08.19-.13.3a.88.88,0,0,1-.08-.78c-.09-.08,0-.24.1-.37l-.12.06a.92.92,0,0,1,.21-.53c.13-.07.23-.08.32.08s0,.13-.16.22-.16.14-.1.14"/><path class="cls-22" d="M45.87,163.46c0,.45.11.73.1,1.1a3.28,3.28,0,0,1-.38,1.13c.07-.07.15-.19.21-.17a2,2,0,0,1,.25-.6.79.79,0,0,0,.08-.65,2.21,2.21,0,0,1-.26-.81"/><path class="cls-16" d="M44.85,165.76c0,.08,0,.17-.05.25a3.73,3.73,0,0,0,.38,1.17.7.7,0,0,1,.23.22l.18.17a1.25,1.25,0,0,1,.49.41.82.82,0,0,1-.67,0c0-.14-.1-.27-.16-.4l-.11-.1c-.11-.05-.4-.15-.42-.26a8.89,8.89,0,0,0-.33-1.74.5.5,0,0,1,.09-.57,2.26,2.26,0,0,0,.56-.55.89.89,0,0,0,.32-.64.92.92,0,0,1,.21.53,1.21,1.21,0,0,1-.08.81l-.64.71"/><path class="cls-22" d="M45.3,164.13c0,.56-.71.89-.73,1.46a1.16,1.16,0,0,1,.1-.69,2.66,2.66,0,0,0,.63-.77"/><path class="cls-22" d="M44.68,164.6a1.06,1.06,0,0,0-.23.48c0-.12-.06-.22,0-.33a.35.35,0,0,1,.21-.15"/><path class="cls-7" d="M53.08,155.21a1.65,1.65,0,0,1,1.61-.67,1.57,1.57,0,0,1,1.69-.77,1.68,1.68,0,0,1,.43-1,2.7,2.7,0,0,1-1.06-1.53,2.5,2.5,0,0,1-1.47-.66c-.34.06-.65.22-1.05-.13-.24.35-.47.23-.9,0-.37,0-.84.22-1.21.25a1.21,1.21,0,0,1-1.28.46,1.9,1.9,0,0,1-.43,1.52c.28.4.15.32.28.71s.92.63,1.07,1.06a1.29,1.29,0,0,0,1,.2,2.28,2.28,0,0,1,1.29.59m1.17,1.18c1.13.15,1.78,0,1.92-.51.08.32,2.33-.36,2-.93a1.56,1.56,0,0,0,1.14-1.21c0-.09-.43.14-.51.06a1.6,1.6,0,0,0,.2-2.05c0-1.1-.35-1.82-1-1.95,0,.07.09,1.26,0,.7a2.94,2.94,0,0,0-1.52-1.56,2.2,2.2,0,0,0-2.21-.75,1.46,1.46,0,0,0-.92.13c-.42-.14-1.22-.25-1.5,0-.44-.24-.56-.14-1,0-.83-.06-.89.15-1.51.68A1.78,1.78,0,0,0,48,150.12c-.43.39-1,.72-1,1.46-.6.58-.18,1.64-.07,1.93-.15,1.62.35,1.4.92,1.59,0,.91,1.24.54,1.87,1,.72.7,1.12.61,3.35.08a4.23,4.23,0,0,0,1.14.23"/><path class="cls-9" d="M53.08,155.21a1.65,1.65,0,0,1,1.61-.67,1.57,1.57,0,0,1,1.69-.77,1.68,1.68,0,0,1,.43-1,2.7,2.7,0,0,1-1.06-1.53,2.5,2.5,0,0,1-1.47-.66c-.34.06-.65.22-1.05-.13-.24.35-.47.23-.9,0-.37,0-.84.22-1.21.25a1.21,1.21,0,0,1-1.28.46,1.9,1.9,0,0,1-.43,1.52c.28.4.15.32.28.71s.92.63,1.07,1.06a1.29,1.29,0,0,0,1,.2A2.28,2.28,0,0,1,53.08,155.21Zm1.17,1.18c1.13.15,1.78,0,1.92-.51.08.32,2.33-.36,2-.93a1.56,1.56,0,0,0,1.14-1.21c0-.09-.43.14-.51.06a1.6,1.6,0,0,0,.2-2.05c0-1.1-.35-1.82-1-1.95,0,.07.09,1.26,0,.7a2.94,2.94,0,0,0-1.52-1.56,2.2,2.2,0,0,0-2.21-.75,1.46,1.46,0,0,0-.92.13c-.42-.14-1.22-.25-1.5,0-.44-.24-.56-.14-1,0-.83-.06-.89.15-1.51.68A1.78,1.78,0,0,0,48,150.12c-.43.39-1,.72-1,1.46-.6.58-.18,1.64-.07,1.93-.15,1.62.35,1.4.92,1.59,0,.91,1.24.54,1.87,1,.72.7,1.12.61,3.35.08A4.23,4.23,0,0,0,54.25,156.39Z"/><path class="cls-23" d="M56.52,150.45c-.05,1,.77,1.12,1.69,1.69a2.57,2.57,0,0,0-1.69-1.69"/><path class="cls-9" d="M56.52,150.45c-.05,1,.77,1.12,1.69,1.69A2.57,2.57,0,0,0,56.52,150.45Z"/><path class="cls-23" d="M58.29,150.1c.87,1.65-.25,1.87-.19,2.61-.72-1,.22-2,.19-2.61"/><path class="cls-9" d="M58.29,150.1c.87,1.65-.25,1.87-.19,2.61C57.38,151.72,58.32,150.69,58.29,150.1Z"/><path class="cls-23" d="M56.21,151.43c.47,1.4.73.93,1.61,1.35-.55-.92-.72-1.12-1.61-1.35"/><path class="cls-9" d="M56.21,151.43c.47,1.4.73.93,1.61,1.35C57.27,151.86,57.1,151.66,56.21,151.43Z"/><path class="cls-23" d="M58.23,154.53c-.73-1.75.64-1.81.71-2.54.65,1.09-.64,2-.71,2.54"/><path class="cls-9" d="M58.23,154.53c-.73-1.75.64-1.81.71-2.54C59.59,153.08,58.3,154,58.23,154.53Z"/><path class="cls-23" d="M56.86,154.85c1.38-1.13.14-1.6.37-2.19-1,.63-.2,1.72-.37,2.19"/><path class="cls-9" d="M56.86,154.85c1.38-1.13.14-1.6.37-2.19C56.19,153.29,57,154.38,56.86,154.85Z"/><path class="cls-23" d="M58,152.33c-1,1.14-.42,1.1-.31,2,.52-.93.59-1.19.31-2"/><path class="cls-9" d="M58,152.33c-1,1.14-.42,1.1-.31,2C58.23,153.43,58.3,153.17,58,152.33Z"/><path class="cls-23" d="M56.91,155.17c.67-1.54,1.68-.86,2.22-1.32-.26,1.08-1.78,1-2.22,1.32"/><path class="cls-9" d="M56.91,155.17c.67-1.54,1.68-.86,2.22-1.32C58.87,154.93,57.35,154.82,56.91,155.17Z"/><path class="cls-23" d="M55.88,155.16c.62-1,.94-.77,1.67-.81-.66.86-1.14,1.05-1.67.81"/><path class="cls-9" d="M55.88,155.16c.62-1,.94-.77,1.67-.81C56.89,155.21,56.41,155.4,55.88,155.16Z"/><path class="cls-23" d="M55.35,155.43c1.28-1.14,1.92-.11,2.61-.31-.72.87-2.05.17-2.61.31"/><path class="cls-9" d="M55.35,155.43c1.28-1.14,1.92-.11,2.61-.31C57.24,156,55.91,155.29,55.35,155.43Z"/><path class="cls-23" d="M54.83,155.07c.5-1.77,1.7-.84,2.23-1.32-.14,1.25-1.79,1-2.23,1.32"/><path class="cls-9" d="M54.83,155.07c.5-1.77,1.7-.84,2.23-1.32C56.92,155,55.27,154.71,54.83,155.07Z"/><path class="cls-23" d="M54.38,155.6c.86-.81,1.11-.53,1.83-.39-.85.68-1.38.75-1.83.39"/><path class="cls-9" d="M54.38,155.6c.86-.81,1.11-.53,1.83-.39C55.36,155.89,54.83,156,54.38,155.6Z"/><path class="cls-23" d="M53.07,155.82c.5-1.77,1.7-.85,2.23-1.32-.13,1.25-1.8.95-2.23,1.32"/><path class="cls-9" d="M53.07,155.82c.5-1.77,1.7-.85,2.23-1.32C55.17,155.75,53.5,155.45,53.07,155.82Z"/><path class="cls-23" d="M53.35,155.93c1.42-1,1.9.15,2.61.07-.82.75-2-.13-2.61-.07"/><path class="cls-9" d="M53.35,155.93c1.42-1,1.9.15,2.61.07C55.14,156.75,53.93,155.87,53.35,155.93Z"/><path class="cls-23" d="M49.5,150.59c0,1-.77,1.13-1.69,1.68a2.6,2.6,0,0,1,1.69-1.68"/><path class="cls-9" d="M49.5,150.59c0,1-.77,1.13-1.69,1.68A2.6,2.6,0,0,1,49.5,150.59Z"/><path class="cls-23" d="M48,150.43c-1.31,1.36-.29,1.86-.55,2.56,1-.78.34-2,.55-2.56"/><path class="cls-9" d="M48,150.43c-1.31,1.36-.29,1.86-.55,2.56C48.37,152.21,47.75,151,48,150.43Z"/><path class="cls-23" d="M49.69,151.44c-.25,1.45-.57,1-1.37,1.57.4-1,.54-1.22,1.37-1.57"/><path class="cls-9" d="M49.69,151.44c-.25,1.45-.57,1-1.37,1.57C48.72,152,48.86,151.79,49.69,151.44Z"/><path class="cls-23" d="M47.75,154.36c.73-1.75-.63-1.8-.71-2.54-.65,1.09.65,2,.71,2.54"/><path class="cls-9" d="M47.75,154.36c.73-1.75-.63-1.8-.71-2.54C46.39,152.91,47.69,153.79,47.75,154.36Z"/><path class="cls-23" d="M49,154.93c-1.08-1.4.24-1.58.16-2.2.86.85-.21,1.71-.16,2.2"/><path class="cls-9" d="M49,154.93c-1.08-1.4.24-1.58.16-2.2C50,153.58,48.9,154.44,49,154.93Z"/><path class="cls-23" d="M48,152.48c.94,1.13.4,1.08.31,2-.53-.95-.59-1.19-.31-2"/><path class="cls-9" d="M48,152.48c.94,1.13.4,1.08.31,2C47.79,153.56,47.73,153.32,48,152.48Z"/><path class="cls-23" d="M49.07,155.41c-.51-1.6-1.59-1-2.08-1.52.15,1.1,1.67,1.14,2.08,1.52"/><path class="cls-9" d="M49.07,155.41c-.51-1.6-1.59-1-2.08-1.52C47.14,155,48.66,155,49.07,155.41Z"/><path class="cls-23" d="M50.14,155.31c-.62-1-.94-.78-1.68-.81.67.85,1.15,1.05,1.68.81"/><path class="cls-9" d="M50.14,155.31c-.62-1-.94-.78-1.68-.81C49.13,155.35,49.61,155.55,50.14,155.31Z"/><path class="cls-23" d="M50.66,155.58c-1.27-1.15-1.9-.12-2.59-.31.71.87,2,.16,2.59.31"/><path class="cls-9" d="M50.66,155.58c-1.27-1.15-1.9-.12-2.59-.31C48.78,156.14,50.11,155.43,50.66,155.58Z"/><path class="cls-23" d="M50.4,155.62c.66-1.5-.7-1.48-.8-2.1-.61.95.72,1.62.8,2.1"/><path class="cls-9" d="M50.4,155.62c.66-1.5-.7-1.48-.8-2.1C49,154.47,50.32,155.14,50.4,155.62Z"/><path class="cls-23" d="M51.63,155.75c-.85-.82-1.1-.54-1.82-.39.86.67,1.37.75,1.82.39"/><path class="cls-9" d="M51.63,155.75c-.85-.82-1.1-.54-1.82-.39C50.67,156,51.18,156.11,51.63,155.75Z"/><path class="cls-23" d="M52.94,156c-.5-1.77-1.69-.84-2.23-1.32.14,1.25,1.81,1,2.23,1.32"/><path class="cls-9" d="M52.94,156c-.5-1.77-1.69-.84-2.23-1.32C50.85,155.89,52.52,155.59,52.94,156Z"/><path class="cls-23" d="M52.68,156.07c-1.43-.95-1.92.15-2.62.05.83.77,2-.11,2.62-.05"/><path class="cls-9" d="M52.68,156.07c-1.43-.95-1.92.15-2.62.05C50.89,156.89,52.1,156,52.68,156.07Z"/><rect class="cls-24" x="137.81" y="135.79" width="178.94" height="55.04"/></g><text class="cls-25" transform="translate(143.88 167.18)">Ministerio de Salud</text><g class="cls-5"><path class="cls-23" d="M53.46,148.57c1.27-.45,1.44.38,2,.41-.77.42-1.56-.37-2-.41"/><path class="cls-9" d="M53.46,148.57c1.27-.45,1.44.38,2,.41C54.7,149.4,53.91,148.61,53.46,148.57Z"/><path class="cls-23" d="M54.67,148.33c1.44-.16,1.39.75,2,.95-.9.22-1.52-.81-2-.95"/><path class="cls-9" d="M54.67,148.33c1.44-.16,1.39.75,2,.95C55.74,149.5,55.12,148.47,54.67,148.33Z"/><path class="cls-23" d="M53,150c1.31.75,1.67-.14,2.31-.07-.77-.6-1.8.12-2.31.07"/><path class="cls-9" d="M53,150c1.31.75,1.67-.14,2.31-.07C54.51,149.32,53.48,150,53,150Z"/><path class="cls-23" d="M54.66,150.28c1.12,1,1.67.19,2.28.37-.62-.73-1.8-.23-2.28-.37"/><path class="cls-9" d="M54.66,150.28c1.12,1,1.67.19,2.28.37C56.32,149.92,55.14,150.42,54.66,150.28Z"/><path class="cls-23" d="M52.86,149.18c1.24.84,1.6.35,2.56.18a3.07,3.07,0,0,0-2.56-.18"/><path class="cls-9" d="M52.86,149.18c1.24.84,1.6.35,2.56.18A3.07,3.07,0,0,0,52.86,149.18Z"/><path class="cls-23" d="M54.88,149.2c.85,1.22.95.71,1.92.88-.78-.75-1-.89-1.92-.88"/><path class="cls-9" d="M54.88,149.2c.85,1.22.95.71,1.92.88C56,149.33,55.79,149.19,54.88,149.2Z"/><path class="cls-23" d="M56.41,149.05c1.8.63,1.14,1.54,1.69,2-1.23-.27-1.26-1.63-1.69-2"/><path class="cls-9" d="M56.41,149.05c1.8.63,1.14,1.54,1.69,2C56.87,150.82,56.84,149.46,56.41,149.05Z"/><path class="cls-23" d="M52.31,148.71c-1.28-.45-1.45.38-2,.42.77.41,1.56-.38,2-.42"/><path class="cls-9" d="M52.31,148.71c-1.28-.45-1.45.38-2,.42C51.07,149.54,51.86,148.75,52.31,148.71Z"/><path class="cls-23" d="M51.35,148.47c-1.44-.15-1.4.76-2,.94.91.24,1.54-.78,2-.94"/><path class="cls-9" d="M51.35,148.47c-1.44-.15-1.4.76-2,.94C50.28,149.65,50.91,148.63,51.35,148.47Z"/><path class="cls-23" d="M53.05,150.14c-1.3.74-1.68-.14-2.31-.08.77-.6,1.8.11,2.31.08"/><path class="cls-9" d="M53.05,150.14c-1.3.74-1.68-.14-2.31-.08C51.51,149.46,52.54,150.17,53.05,150.14Z"/><path class="cls-23" d="M51.36,150.42c-1.12,1-1.67.19-2.29.38.64-.74,1.8-.25,2.29-.38"/><path class="cls-9" d="M51.36,150.42c-1.12,1-1.67.19-2.29.38C49.71,150.06,50.87,150.55,51.36,150.42Z"/><path class="cls-23" d="M53.16,149.32c-1.24.84-1.59.36-2.57.19a3.1,3.1,0,0,1,2.57-.19"/><path class="cls-9" d="M53.16,149.32c-1.24.84-1.59.36-2.57.19A3.1,3.1,0,0,1,53.16,149.32Z"/><path class="cls-23" d="M51.14,149.35c-.85,1.21-1,.71-1.92.87.79-.75,1-.89,1.92-.87"/><path class="cls-9" d="M51.14,149.35c-.85,1.21-1,.71-1.92.87C50,149.47,50.23,149.33,51.14,149.35Z"/><path class="cls-23" d="M49.6,149.2c-1.78.62-1.12,1.53-1.68,2,1.22-.25,1.26-1.63,1.68-2"/><path class="cls-9" d="M49.6,149.2c-1.78.62-1.12,1.53-1.68,2C49.14,151,49.18,149.6,49.6,149.2Z"/><path class="cls-23" d="M53.41,148.64c-1.23.85-1.15.34-2.12.2,1-.46,1.26-.52,2.12-.2"/><path class="cls-9" d="M53.41,148.64c-1.23.85-1.15.34-2.12.2C52.3,148.38,52.55,148.32,53.41,148.64Z"/><path class="cls-7" d="M71.36,147.48l.36.38-1,.93a2.41,2.41,0,0,0-.31.29.38.38,0,0,0-.09.28.54.54,0,0,0,.16.32.53.53,0,0,0,.3.19.34.34,0,0,0,.26-.06,2.67,2.67,0,0,0,.34-.27l1.09-.93.35.37-1,.9a4.39,4.39,0,0,1-.54.4.6.6,0,0,1-.34.09,1,1,0,0,1-.37-.07,1.33,1.33,0,0,1-.4-.32,1.42,1.42,0,0,1-.31-.46,1,1,0,0,1,0-.36.63.63,0,0,1,.12-.3,2.16,2.16,0,0,1,.46-.47Zm-2.46-.74.3.26a1.62,1.62,0,0,0,.37.29.28.28,0,0,0,.18,0,.42.42,0,0,0,.17-.1A.32.32,0,0,0,70,147a.31.31,0,0,0-.08-.21,2.32,2.32,0,0,0-.27-.26l-.31-.29Zm-1.42.71,1.8-1.84.81.74a1.79,1.79,0,0,1,.4.45.58.58,0,0,1,.05.37.72.72,0,0,1-.19.38.74.74,0,0,1-.47.22.72.72,0,0,1-.54-.17,1.22,1.22,0,0,1,.06.35,2.5,2.5,0,0,1-.07.5l-.12.57-.47-.41.12-.66a3,3,0,0,0,0-.46.38.38,0,0,0,0-.19.81.81,0,0,0-.17-.19l-.07-.07-.75.78Zm-2-1.39,1.59-2,1.55,1.13-.27.34-1.13-.83-.35.45,1.06.77-.28.34-1-.77-.44.55,1.18.86-.27.35Zm-.61-2.77-.35.64.24.15a2.15,2.15,0,0,0,.4.15.34.34,0,0,0,.2,0,.46.46,0,0,0,.16-.15.33.33,0,0,0,0-.24.37.37,0,0,0-.13-.2,1.66,1.66,0,0,0-.32-.2Zm-1.52,1.6,1.28-2.21.74.39a4.6,4.6,0,0,1,.53.33.68.68,0,0,1,.21.4.69.69,0,0,1-.12.5.72.72,0,0,1-.27.3.7.7,0,0,1-.32.12.74.74,0,0,1-.3,0,5.22,5.22,0,0,1-.5-.22l-.3-.17-.48.83Zm-3-1.2.89-2.36.5.18-.75,2,1.24.45-.15.4ZM58,143.06l.63-2.46,1.9.46-.12.4L59,141.14l-.14.54,1.28.31-.12.42-1.27-.31-.17.67,1.42.34-.1.42Zm-1.78-2.43L56,142.3l.39,0a1.53,1.53,0,0,0,.32,0,.78.78,0,0,0,.23-.08.62.62,0,0,0,.17-.23,1.45,1.45,0,0,0,.12-.45,1.38,1.38,0,0,0,0-.45.67.67,0,0,0-.11-.27.61.61,0,0,0-.23-.15l-.42-.08Zm-.46-.5,1,.13a2.47,2.47,0,0,1,.48.11.94.94,0,0,1,.36.29,1.08,1.08,0,0,1,.19.45,2,2,0,0,1,0,.6,1.52,1.52,0,0,1-.16.52,1.07,1.07,0,0,1-.34.41,1,1,0,0,1-.4.15,1.51,1.51,0,0,1-.47,0l-1-.14Zm-2.68,1.41-.38-.93-.34,1Zm1,1H53.5l-.25-.57-1,0-.21.58-.56,0,.93-2.57.56,0Zm-3.46-.79.54.09a1,1,0,0,1-1,1,1.19,1.19,0,0,1-.91-.23,1.56,1.56,0,0,1-.28-1.91,1.16,1.16,0,0,1,.83-.46,1.12,1.12,0,0,1,.82.16,1,1,0,0,1,.34.43l-.51.19a.5.5,0,0,0-.23-.28.61.61,0,0,0-.38-.08.56.56,0,0,0-.43.28.86.86,0,0,0-.09.67,1,1,0,0,0,.27.64.61.61,0,0,0,.5.15.53.53,0,0,0,.33-.17.8.8,0,0,0,.16-.44m-2.57,1.37-.62-2.46.51-.12.63,2.46Zm-2.1.59-.76-2.42.5-.14.64,2,1.26-.37.14.4Zm-2.45-.25.28.63.45-.2a1.54,1.54,0,0,0,.33-.15.31.31,0,0,0,.14-.16.29.29,0,0,0,0-.22.42.42,0,0,0-.13-.16.35.35,0,0,0-.21-.05,1.54,1.54,0,0,0-.44.15Zm-.4-.92.23.53.33-.13.34-.15a.33.33,0,0,0,.17-.16.28.28,0,0,0,0-.22.25.25,0,0,0-.14-.16.25.25,0,0,0-.21,0l-.41.17Zm-.65-.2,1-.4a3.28,3.28,0,0,1,.44-.15.48.48,0,0,1,.29,0,.9.9,0,0,1,.27.11.57.57,0,0,1,.19.26.51.51,0,0,1,0,.32.69.69,0,0,1-.16.32.69.69,0,0,1,.43.07.59.59,0,0,1,.27.29.83.83,0,0,1,.06.35.61.61,0,0,1-.1.33,1.1,1.1,0,0,1-.27.25l-.6.25-.82.34Zm-2.59,1.34.46-.26.69,1.21a3.44,3.44,0,0,0,.23.36.44.44,0,0,0,.27.14.64.64,0,0,0,.36-.07.48.48,0,0,0,.24-.25.27.27,0,0,0,0-.25c0-.07-.09-.21-.18-.39l-.71-1.22.46-.26.67,1.17a4.46,4.46,0,0,1,.28.58.76.76,0,0,1,0,.36.77.77,0,0,1-.17.32,1.12,1.12,0,0,1-.41.3,1.25,1.25,0,0,1-.54.2.76.76,0,0,1-.37-.05.73.73,0,0,1-.27-.17,3,3,0,0,1-.37-.54Zm-1.57,1.61.45.57.23-.16a2.16,2.16,0,0,0,.32-.28.45.45,0,0,0,.05-.19.34.34,0,0,0-.07-.19.46.46,0,0,0-.22-.15.51.51,0,0,0-.24,0l-.32.21Zm.89,2-1.59-2,.7-.5a2.89,2.89,0,0,1,.52-.33.65.65,0,0,1,.46,0,1,1,0,0,1,.6.67.6.6,0,0,1,0,.33.72.72,0,0,1-.14.26,3.65,3.65,0,0,1-.41.35l-.28.21.59.75Zm-1.84,1.58L35.55,147,37,145.71l.31.31-1,.94.4.41,1-.87.32.31-1,.87.49.51,1.07-1,.29.29Zm-2.59.49.27-.28a1.68,1.68,0,0,0,.29-.38.24.24,0,0,0,0-.17.26.26,0,0,0-.11-.15.28.28,0,0,0-.2-.09.35.35,0,0,0-.21.07l-.26.28-.29.29Zm.78,1.36-2-1.7.75-.8a1.71,1.71,0,0,1,.46-.39.66.66,0,0,1,.39-.06.79.79,0,0,1,.39.19.67.67,0,0,1,.24.44.79.79,0,0,1-.17.53,1.18,1.18,0,0,1,.36-.06,3.21,3.21,0,0,1,.52,0l.59.1-.43.46-.68-.09a2.1,2.1,0,0,0-.46,0,.59.59,0,0,0-.2,0,1.2,1.2,0,0,0-.2.17l-.07.08.81.71Z"/><polygon class="cls-26" points="40.6 143.05 40.55 142.52 40.91 142.32 40.82 142.93 40.6 143.05"/></g></g></g></svg>