<svg id="Layer_1" data-name="Layer 1" xmlns="http://www.w3.org/2000/svg" viewBox="0 0 180.11 69.38"><defs><style>.cls-1,.cls-2{fill:#cb3694;}.cls-2,.cls-9{font-size:36.91px;}.cls-2,.cls-3,.cls-9{font-family:Montserrat-Black, Montserrat;font-weight:800;}.cls-3{font-size:34.48px;fill:#fff;}.cls-4{fill:#414042;}.cls-5{fill:#ceb733;}.cls-6{fill:#f69799;}.cls-7{fill:#67c9cd;}.cls-8,.cls-9{fill:#8e68ad;}.cls-10{fill:#faa448;}.cls-11{fill:#f9f06c;}</style></defs><title>Artboard 21</title><rect class="cls-1" y="31.05" width="163.71" height="30.01"/><path class="cls-1" d="M163.27.66V31.15H.44V.66H163.27m.44-.44H0V31.59H163.71V.22Z"/><text class="cls-2" transform="translate(2.54 28.8)">GEN</text><text class="cls-3" transform="translate(2.66 58.51)">MAL</text><circle class="cls-4" cx="112.25" cy="31.53" r="22.94"/><circle class="cls-5" cx="112.25" cy="31.53" r="14.32"/><circle class="cls-4" cx="146.35" cy="56.89" r="7.55"/><rect class="cls-4" x="125.06" y="46.48" width="21.28" height="4.83" transform="matrix(0.84, 0.54, -0.54, 0.84, 47.45, -65.2)"/><rect class="cls-4" x="144.17" y="44.6" width="21.28" height="4.83" transform="translate(288.74 -43.77) rotate(128.98)"/><circle class="cls-4" cx="161.41" cy="38.11" r="10.44"/><circle class="cls-6" cx="161.41" cy="38.11" r="6.52"/><circle class="cls-7" cx="146.35" cy="56.89" r="4.94"/><rect class="cls-8" y="31.05" width="163.71" height="30.01"/><path class="cls-8" d="M163.27.66V31.15H.44V.66H163.27m.44-.44H0V31.59H163.71V.22Z"/><text class="cls-9" transform="translate(2.54 28.8)">GEN</text><text class="cls-3" transform="translate(2.66 58.51)">MAL</text><circle class="cls-4" cx="112.25" cy="31.53" r="22.94"/><circle class="cls-10" cx="112.25" cy="31.53" r="14.32"/><circle class="cls-4" cx="146.35" cy="56.89" r="7.55"/><rect class="cls-4" x="125.06" y="46.48" width="21.28" height="4.83" transform="matrix(0.84, 0.54, -0.54, 0.84, 47.45, -65.2)"/><rect class="cls-4" x="144.17" y="44.6" width="21.28" height="4.83" transform="translate(288.74 -43.77) rotate(128.98)"/><circle class="cls-4" cx="161.41" cy="38.11" r="10.44"/><circle class="cls-11" cx="161.41" cy="38.11" r="6.52"/><circle class="cls-6" cx="146.35" cy="56.89" r="4.94"/></svg>