<svg id="Layer_1" data-name="Layer 1" xmlns="http://www.w3.org/2000/svg" xmlns:xlink="http://www.w3.org/1999/xlink" viewBox="0 0 353 326"><defs><style>.cls-1{fill:none;}.cls-2{clip-path:url(#clip-path);}.cls-3{fill:#115e67;}.cls-4{fill:#136068;}.cls-5{fill:#155e67;}</style><clipPath id="clip-path"><rect class="cls-1" x="58.84" y="117.23" width="235.33" height="91.53"/></clipPath></defs><title>Artboard 12</title><g class="cls-2"><g class="cls-2"><path class="cls-3" d="M112.88,200.79l.16-1.14a11.11,11.11,0,0,0-.37-4.33,13.59,13.59,0,0,0-3.75-6.32,31.18,31.18,0,0,0-2.55-2.18c-.72-.58-1.46-1.16-2.17-1.76a18,18,0,0,1-2.63-2.68,11.12,11.12,0,0,1-1.92-3.67,8.46,8.46,0,0,1,.73-6.55,10.38,10.38,0,0,1,5.27-4.66,5.92,5.92,0,0,1,1.27-.43.93.93,0,0,1-.21.48,13,13,0,0,0-1.54,3.34,7.56,7.56,0,0,0,.21,5.22,8.09,8.09,0,0,0,2.45,3.14c1,.77,1.92,1.54,2.87,2.32a23.75,23.75,0,0,1,2.71,2.6,11.52,11.52,0,0,1,2.63,5.77,13.43,13.43,0,0,1-1.16,7.72,14,14,0,0,1-1.45,2.55,2,2,0,0,1-.55.58"/><path class="cls-3" d="M181.69,178.22a1.66,1.66,0,0,0-.39.61c-.92,1.7-1.82,3.42-2.73,5.13l-.22.42a.35.35,0,0,1-.34.19h-1.5a.42.42,0,0,1-.38-.24c-.07-.14-.15-.27-.23-.41L173,178.81a1.31,1.31,0,0,0-.34-.5c-.15.05-.1.19-.1.28-.06,1.66-.11,3.33-.18,5l-.21,4.92c0,.09,0,.18,0,.27s-.11.23-.27.23h-3.08c-.23,0-.28-.07-.28-.28,0-1,.09-1.92.13-2.87,0-.21,0-.41,0-.62l.33-7.65.24-5c0-.09,0-.18,0-.27a.22.22,0,0,1,.23-.21h3.08a.5.5,0,0,1,.49.28c.23.45.48.88.72,1.32l3.19,5.73a1.23,1.23,0,0,0,.3.45c.21-.07.24-.26.33-.42l3.65-6.72c.41-.75.22-.62,1.1-.63H185a.24.24,0,0,1,.25.26c0,.55.07,1.1.09,1.64q.16,3.83.34,7.65c.1,2.25.22,4.51.33,6.76,0,.11,0,.23,0,.34s-.09.2-.21.22h-3.08l-.34,0a.18.18,0,0,1-.18-.17c0-.38-.07-.77-.08-1.16-.07-1.59-.13-3.18-.19-4.78l-.21-4.23a2.74,2.74,0,0,0-.06-.43"/><path class="cls-3" d="M260.92,178.13c0,.22,0,.43,0,.65v9.44c0,.85.09.79-.76.79h-2.67c-.3,0-.35-.06-.36-.37,0-.15,0-.31,0-.47V173c0-.16,0-.32,0-.48,0-.32.05-.37.34-.37h3a.51.51,0,0,1,.5.29l.34.51q3.15,4.71,6.31,9.43c.1.16.16.46.39.38s.07-.32.07-.5v-9.5c0-.6,0-.6.61-.6h2.94c.13,0,.22.07.22.21s0,.32,0,.47v15.53c0,.7.05.67-.66.67h-2.4a.68.68,0,0,1-.66-.36l-3.84-5.74q-1.53-2.26-3.05-4.54l-.21-.27-.12,0"/><path class="cls-3" d="M129.18,128.81c-.13.48-.22.85-.34,1.22a30.16,30.16,0,0,1-8.41,13.22,29.09,29.09,0,0,1-10.67,6.36c-.24.08-.47.28-.76.15a2.15,2.15,0,0,1,.15-.71,29.77,29.77,0,0,1,8.94-14A29.11,29.11,0,0,1,128.54,129l.64-.19"/><path class="cls-3" d="M82.68,128.9a.89.89,0,0,1,.58.09,29.11,29.11,0,0,1,9.52,5.25,30,30,0,0,1,9.5,13.54c.21.6.37,1.22.56,1.82,0,.17,0,.26-.22.2-1-.31-1.9-.65-2.82-1.05A30.46,30.46,0,0,1,82.87,129.6l-.19-.7"/><path class="cls-3" d="M185.91,141.62v-9.15c0-.18,0-.36,0-.55a.21.21,0,0,1,.22-.21h2.94c.26,0,.32.07.33.33v14.55c0,.93.1.82-.85.83h-1.71c-.81,0-.64.06-1-.54-1.42-2.1-2.82-4.2-4.23-6.3l-1.79-2.67-.42-.6c-.22.07-.14.23-.14.35,0,1.66,0,3.33,0,5,0,1.34,0,2.69,0,4,0,.18,0,.37,0,.55a.18.18,0,0,1-.17.17l-.14,0H176c-.27,0-.32-.06-.33-.32s0-.31,0-.47V132.47c0-.8-.11-.77.78-.77.71,0,1.41,0,2.12,0a.78.78,0,0,1,.78.41c.5.79,1,1.56,1.55,2.34l4.48,6.7c.12.18.26.36.39.54l.12-.06"/><path class="cls-3" d="M109.85,135a25.44,25.44,0,0,1-3.53,13l-.29.46a.12.12,0,0,1-.22,0,2.9,2.9,0,0,1-.19-.29A25.14,25.14,0,0,1,102,135.75a25.26,25.26,0,0,1,3.65-13.68c0-.07.09-.15.15-.22a.14.14,0,0,1,.23,0,5.16,5.16,0,0,1,.29.46,25.25,25.25,0,0,1,3.18,8.74,30.36,30.36,0,0,1,.35,4"/><path class="cls-3" d="M189.67,180.58V173c0-.18,0-.37,0-.55s.06-.3.33-.31h11a.21.21,0,0,1,.22.21v.07c0,.91,0,1.82,0,2.73,0,.23-.07.3-.27.31h-6.64c-.93,0-.82-.06-.83.86,0,.68,0,1.36,0,2,0,.3.06.36.35.36h5.2c.41,0,.44,0,.45.41v2.26c0,.6,0,.58-.62.58h-5.12a.23.23,0,0,0-.26.25,1.48,1.48,0,0,0,0,.21c0,.91,0,1.82,0,2.73,0,.41,0,.44.41.45h7.66a.21.21,0,0,1,.21.22s0,.05,0,.07c0,.91,0,1.82,0,2.73,0,.26-.06.31-.32.33h-11c-.85,0-.79.05-.79-.77v-7.66"/><path class="cls-3" d="M275.8,180.53v-7.8c0-.63,0-.6.58-.6h10.74c.13,0,.19.09.2.22s0,0,0,.07c0,.91,0,1.82,0,2.73,0,.23-.06.29-.27.3h-7.18a.24.24,0,0,0-.24.27v2.73c0,.21.07.26.31.27h5.46a.23.23,0,0,1,.22.22,1.48,1.48,0,0,1,0,.21v2.39c0,.39,0,.41-.44.42h-5.33a.2.2,0,0,0-.22.21.57.57,0,0,0,0,.13c0,1,0,2,0,2.94,0,.31.05.35.36.36h7.59c.26,0,.3,0,.31.34v2.67c0,.31,0,.33-.37.35H276.31c-.5,0-.5,0-.51-.48,0-.16,0-.32,0-.48Z"/><path class="cls-3" d="M146.15,152.88a.7.7,0,0,1-.54.12c-8.81.08-34.43,0-35.13-.05,0-.19.18-.25.3-.33a25.72,25.72,0,0,1,4.36-2.41,33,33,0,0,1,28.07.85,21.28,21.28,0,0,1,2.34,1.4c.19.12.37.26.6.42"/><path class="cls-3" d="M65.66,153a1.83,1.83,0,0,1,.64-.55,27.15,27.15,0,0,1,6-3,33,33,0,0,1,7-1.7,34.07,34.07,0,0,1,6.14-.22,31.59,31.59,0,0,1,13.8,3.95c.63.36,1.23.77,1.85,1.16.11.07.24.13.26.27s0,.09-.09.09H65.66"/><path class="cls-3" d="M244,177.47c-.17-.19-.35-.4-.54-.6a4.91,4.91,0,0,0-2.39-1.51,5.18,5.18,0,0,0-3,.12,4.45,4.45,0,0,0-2.64,2.44,6,6,0,0,0-.08,5,4.46,4.46,0,0,0,4.22,2.85,5,5,0,0,0,4.12-1.76,1.28,1.28,0,0,1,.5-.45,2,2,0,0,1,.53.43l1.82,1.66c.23.22.23.25,0,.51A8.06,8.06,0,0,1,244,188.3a9.11,9.11,0,0,1-8,.45,7.79,7.79,0,0,1-4.6-5,9.52,9.52,0,0,1,.32-7,8.11,8.11,0,0,1,6.31-4.89,9.86,9.86,0,0,1,4.67.29,7.62,7.62,0,0,1,3.55,2.33c.1.12.19.25.29.38a.24.24,0,0,1,0,.36l-2.32,2.22s-.08,0-.15.05"/><path class="cls-3" d="M257.79,137.14c0,1.44,0,2.87,0,4.31a7.21,7.21,0,0,1-.36,2.35,5.68,5.68,0,0,1-4.1,3.77,7.79,7.79,0,0,1-4.91-.2,5.66,5.66,0,0,1-3.65-4.27,6.18,6.18,0,0,1-.16-1.42v-9.51a2.44,2.44,0,0,1,0-.27.19.19,0,0,1,.17-.18,2,2,0,0,1,.34,0h2.53l.34,0a.18.18,0,0,1,.17.18c0,.21,0,.41,0,.62q0,4.17,0,8.34a6.26,6.26,0,0,0,.16,1.56,2.46,2.46,0,0,0,2.26,2,5.62,5.62,0,0,0,1.16,0,2.48,2.48,0,0,0,2.3-2.09,7.5,7.5,0,0,0,.13-1.42c0-2.79,0-5.57,0-8.35,0-.87-.11-.82.79-.82h2.19a2.88,2.88,0,0,1,.41,0c.13,0,.19.1.2.23s0,.36,0,.54v4.65"/><path class="cls-3" d="M276.64,139.54v-7c0-.16,0-.32,0-.47,0-.34,0-.37.4-.39h10.12a.23.23,0,0,1,.22.22s0,.09,0,.14c0,.8,0,1.59,0,2.39,0,.31-.05.34-.36.36H280.8c-.6,0-.61,0-.6.6v2.18c0,.22.07.28.29.29s.32,0,.48,0h4.45c.32,0,.36.05.37.35v1.92c0,.8.06.75-.72.75h-4.51c-.32,0-.36.05-.36.36v2.67c0,.27.05.32.31.33h6.77c.6,0,.61,0,.61.6,0,.75,0,1.5,0,2.25,0,.23-.06.27-.28.28H276.86a.2.2,0,0,1-.21-.21c0-.18,0-.36,0-.54v-7.11"/><path class="cls-3" d="M192,145.21l2.22-2.41c.25,0,.35.22.5.35a5.66,5.66,0,0,0,2.69,1.42,3.35,3.35,0,0,0,1.88-.09,2.21,2.21,0,0,0,.86-.54,1.42,1.42,0,0,0-.1-2.12,3.11,3.11,0,0,0-.83-.47,13.35,13.35,0,0,0-2.14-.69,7.37,7.37,0,0,1-2-.81,4.16,4.16,0,0,1-2-2.51,4.57,4.57,0,0,1,1.93-5.13,5.31,5.31,0,0,1,1.62-.7,8.5,8.5,0,0,1,5,.31,5.86,5.86,0,0,1,2.12,1.35c.2.2.21.26,0,.45l-1.69,1.88c-.12.13-.23.11-.36,0l-.5-.36a5.16,5.16,0,0,0-2.13-.86,2.67,2.67,0,0,0-1.6.22,2,2,0,0,0-.61.42,1.17,1.17,0,0,0-.09,1.62,2.26,2.26,0,0,0,.75.58,8.65,8.65,0,0,0,1.93.67,10,10,0,0,1,2.06.7,4.84,4.84,0,0,1,2,1.61,4.68,4.68,0,0,1-.77,6.19,6.15,6.15,0,0,1-3.34,1.45,9.1,9.1,0,0,1-4.75-.63,8,8,0,0,1-2.72-1.91"/><path class="cls-4" d="M156.78,167q0-17.37,0-34.74c0-1-.13-.88.91-.89a1.23,1.23,0,0,1,.27,0c.08,0,.11.07.13.14a.65.65,0,0,1,0,.2v70.09c0,1.13.15,1-1,1-.31,0-.34,0-.35-.36s0-.41,0-.62Z"/><path class="cls-3" d="M235.28,131.7h6.22c.61,0,.61,0,.62.6v2c0,.47,0,.48-.52.48H238c-1,0-.92-.12-.92.89,0,3.58,0,7.16,0,10.74v.34c0,.59,0,.6-.61.6h-2.6c-.36,0-.39,0-.4-.38,0-.18,0-.37,0-.55V135.61c0-.84.07-.77-.77-.77h-4c-.21,0-.27-.08-.27-.3,0-.64,0-1.28,0-1.92,0-1-.16-.91.91-.91h6"/><path class="cls-3" d="M267.19,131.7h6.23c.66,0,.61,0,.61.59v2.19c0,.3,0,.34-.37.35h-4.51a.19.19,0,0,0-.17.19c0,.2,0,.4,0,.61v11c0,.79.08.75-.72.75h-2.53c-.29,0-.32,0-.33-.32s0-.36,0-.54V135.61c0-.81.06-.78-.79-.78h-3.55a5,5,0,0,1-.55,0,.23.23,0,0,1-.22-.22v-.06c0-.85,0-1.69,0-2.53,0-.23.07-.29.28-.3h6.63"/><path class="cls-3" d="M212.73,131.7h6.56c.23,0,.29.07.3.28v.14c0,.75,0,1.5,0,2.25,0,.43,0,.44-.47.45h-4.38a.21.21,0,0,0-.21.22v11.55c0,.85.09.79-.76.79h-2.46c-.32,0-.35,0-.36-.35s0-.37,0-.55q0-5.4,0-10.8c0-.19,0-.37,0-.55s-.06-.31-.34-.32h-4.37c-.32,0-.38-.05-.39-.34V132c0-.27.06-.31.33-.33h6.56"/><path class="cls-3" d="M101.7,189.65a1.17,1.17,0,0,1,.27,0,13.17,13.17,0,0,1,5.82,4.38,12.49,12.49,0,0,1,2.22,5.37,14.81,14.81,0,0,1,.18,2.66c0,.31-.06.36-.35.37h-8.4c-.23,0-.29-.07-.29-.28s0-.32,0-.48c.07-1.39.14-2.78.2-4.16.07-1.62.12-3.23.19-4.85,0-1,.1-2,.15-3"/><path class="cls-3" d="M259.38,162.19l1.85,1.69a.23.23,0,0,1,0,.36,7,7,0,0,1-.75.79,7.29,7.29,0,0,1-5.69,1.81,6.92,6.92,0,0,1-2.05-.5,6.34,6.34,0,0,1-3.71-4,7.53,7.53,0,0,1,.24-5.54,6.53,6.53,0,0,1,5.84-4.07A7.85,7.85,0,0,1,258,153a6.21,6.21,0,0,1,3.08,2.05l.19.27a14,14,0,0,1-2.05,2c-.2-.21-.39-.44-.6-.65a3.88,3.88,0,0,0-3.9-1,3.42,3.42,0,0,0-1.86,1.21,4.26,4.26,0,0,0-.89,2,4.71,4.71,0,0,0,.44,3.19,3.54,3.54,0,0,0,3.14,2,4.6,4.6,0,0,0,1.43-.13,3.92,3.92,0,0,0,1.7-1c.21-.21.44-.39.72-.65"/><path class="cls-3" d="M193.81,153h5.67a.24.24,0,0,1,.25.26v2.19a.23.23,0,0,1-.25.26h-3.76c-.31,0-.34,0-.35.36s0,.37,0,.55v9.3c0,.6,0,.61-.59.6h-2.19c-.27,0-.31-.06-.32-.33s0-.36,0-.54v-9.1c0-.21,0-.41,0-.62a.21.21,0,0,0-.21-.21h-3.49l-.48,0a.19.19,0,0,1-.18-.17c0-.11,0-.23,0-.34,0-.55,0-1.1,0-1.64s0-.55.58-.55h5.34Z"/><path class="cls-3" d="M249.39,180.54v-7.79c0-.66,0-.62.64-.62h3a.19.19,0,0,1,.18.18c0,.13,0,.27,0,.41v15.65c0,.62,0,.63-.64.63H250l-.41,0a.18.18,0,0,1-.17-.18c0-.2,0-.41,0-.61v-7.66"/><path class="cls-3" d="M227.58,180.62v7.79c0,.61,0,.6-.6.6H224.1c-.3,0-.35-.06-.36-.36s0-.32,0-.48V172.51c0-.34,0-.38.4-.38h3.08c.31,0,.34,0,.36.35v8.14Z"/><path class="cls-3" d="M277.8,159.75V153.6c0-.6,0-.6.6-.6h2.19c.22,0,.27.07.28.29s0,.36,0,.55v9.36c0,.63,0,.6.58.6h5.26c.6,0,.61,0,.61.6s0,1.23,0,1.84c0,.23-.05.28-.28.29h-8.61c-.62,0-.63.06-.63-.63v-6.15"/><path class="cls-3" d="M168.48,139.54V132c0-.26.07-.31.34-.32h2.94c.22,0,.28.07.3.28s0,.32,0,.48v14.15c0,.16,0,.32,0,.48s-.06.3-.34.31h-2.87c-.31,0-.36-.06-.37-.36v-7.51"/><path class="cls-3" d="M225.76,139.58v7c0,.18,0,.36,0,.54s-.05.31-.33.32h-2.93c-.23,0-.28-.05-.29-.28s0-.32,0-.48V132.5c0-.13,0-.27,0-.41,0-.34,0-.38.4-.39h2.8c.31,0,.34.05.35.37,0,.15,0,.31,0,.47Z"/><path class="cls-3" d="M202.08,199.77c.18-.87.37-1.74.55-2.61s.36-1.83.55-2.75c.07-.35.09-.36.46-.36h1.47c.12.24,0,.41,0,.58q-.93,3.67-1.88,7.34a3.18,3.18,0,0,1-.09.33.21.21,0,0,1-.2.16c-.55,0-1.09,0-1.64,0-.16,0-.23-.13-.26-.27-.15-.55-.29-1.1-.43-1.65-.27-1-.54-2-.8-3l-.08-.24c-.17.07-.18.22-.21.35l-1.11,4.15c0,.16-.09.31-.13.47a.28.28,0,0,1-.28.24H196.4a.27.27,0,0,1-.25-.21c-.05-.17-.09-.35-.13-.52l-1.8-7.16a.63.63,0,0,1,0-.49,12.74,12.74,0,0,1,1.75,0c.17,0,.21.14.24.28l.42,2.07.69,3.35a.29.29,0,0,1,.06.24.36.36,0,0,1,.07-.24c.27-1,.55-2.11.82-3.17l.57-2.25a10.38,10.38,0,0,1,1.67,0,1.49,1.49,0,0,1,.22.56q.61,2.46,1.25,4.9a.29.29,0,0,1,0,.24c0-.08,0-.17.08-.23"/><path class="cls-3" d="M179.24,197.07v4.6c0,.18,0,.36,0,.55s0,.23-.19.23h-1.51a.18.18,0,0,1-.17-.18c0-.11,0-.23,0-.34v-7.31c0-.12,0-.23,0-.34a.21.21,0,0,1,.22-.22h1.36a.39.39,0,0,1,.34.19l.27.4,2.73,4.09a1.93,1.93,0,0,0,.41.53c.16-.06.1-.19.1-.29,0-1.43,0-2.87,0-4.3,0-.62,0-.62.59-.62h.89c.39,0,.4,0,.41.44a1.41,1.41,0,0,1,0,.2v7.11c0,.12,0,.23,0,.35s-.07.3-.27.31h-1.23a.38.38,0,0,1-.34-.18c-.1-.13-.18-.26-.27-.4l-2.82-4.19a1.91,1.91,0,0,0-.51-.62"/><path class="cls-3" d="M246.05,159.83v5.94c0,.18,0,.37,0,.55a.2.2,0,0,1-.21.21h-2.6c-.17,0-.23-.11-.23-.27V153.77c0-.85-.08-.77.77-.77h2c.22,0,.29.07.3.28s0,.36,0,.54v6"/><path class="cls-3" d="M206.47,198.23v-3.48c0-.16,0-.32,0-.48a.21.21,0,0,1,.21-.22h5.06l.27,0a.18.18,0,0,1,.17.18c0,.43,0,.87,0,1.3,0,.09-.09.15-.19.16h-3.21c-.37,0-.41,0-.41.39a4.34,4.34,0,0,0,.05,1.14,2.56,2.56,0,0,0,1.13.09c.51,0,1,0,1.51,0,.21,0,.29.08.29.29,0,1.6.3,1.29-1.24,1.33-.48,0-1,0-1.44,0-.23,0-.28.06-.3.27v.07a7.59,7.59,0,0,0,0,1.35,3.2,3.2,0,0,0,1.34.1c.8,0,1.59,0,2.39,0,.27,0,.33.05.33.32,0,1.67.32,1.36-1.32,1.38-1.32,0-2.64,0-4,0a5,5,0,0,1-.55,0,.18.18,0,0,1-.17-.18c0-.15,0-.31,0-.47v-3.56"/><path class="cls-5" d="M189.72,194h3l.47,0a.19.19,0,0,1,.18.17,1.27,1.27,0,0,1,0,.28c0,1.48.23,1.21-1.19,1.24h-1c-.54,0-.54,0-.54.52,0,.13,0,.27,0,.41,0,1.66,0,3.32,0,5v.54c0,.13-.07.23-.2.24H189c-.13,0-.19-.11-.19-.23s0-.37,0-.55v-5.2c0-.74.06-.72-.69-.72h-1.5c-.52,0-.54,0-.53-.53a4,4,0,0,1,.05-1.09,2.41,2.41,0,0,1,1.07-.08c.84,0,1.68,0,2.53,0"/><path class="cls-5" d="M177.44,156.86c0-1.07,0-2.14,0-3.21a3.85,3.85,0,0,1,0-.48.18.18,0,0,1,.18-.16h4.78a.21.21,0,0,1,.18.17,1.49,1.49,0,0,1,0,.21c0,1.35.22,1.15-1.13,1.17h-2c-.26,0-.32.05-.32.32,0,1.69-.32,1.35,1.31,1.39h1a.25.25,0,0,1,.27.25c0,.34,0,.68,0,1a.22.22,0,0,1-.21.23h-1.84c-.54,0-.55,0-.55.58V160c0,.15,0,.31,0,.47a.24.24,0,0,1-.26.25c-.41,0-.82,0-1.23,0-.17,0-.24-.1-.25-.26s0-.31,0-.47c0-1.05,0-2.1,0-3.14"/><path class="cls-3" d="M197.43,199.76a.7.7,0,0,1,0,.17c-.13,0-.09-.09-.09-.17a.56.56,0,0,0,.13,0"/><path class="cls-3" d="M202.08,199.77c0,.06,0,.16,0,.16s-.09-.1-.08-.17h.12"/><path class="cls-3" d="M107.63,174.59,108,174a12.28,12.28,0,0,0,1.6-4.69,8.41,8.41,0,0,0-.38-4,5.09,5.09,0,0,0-3.86-3.42,4.59,4.59,0,0,0-3.55.61,1.07,1.07,0,0,0-.54.81,9,9,0,0,1-.62,2.16,4.32,4.32,0,0,1-1.18,1.65c-.66.56-1.35,1.09-2.06,1.58-1.18.82-2.41,1.57-3.63,2.33l-.41.23a2,2,0,0,1-2.88-1.51,4.19,4.19,0,0,1,.1-1.69,17.23,17.23,0,0,1,1-2.76,19.48,19.48,0,0,1,3.83-5.78,13,13,0,0,1,6.31-3.64,10.76,10.76,0,0,1,5.74.06,8.67,8.67,0,0,1,5.58,5.07,10.34,10.34,0,0,1-5.09,13.48,2.41,2.41,0,0,1-.3.05M93.78,165.5a1.06,1.06,0,0,0,1.82.5,1.58,1.58,0,0,0,.43-1.75,1,1,0,0,0-1.65-.51,1.67,1.67,0,0,0-.66,1.39,2.58,2.58,0,0,0,.06.37"/><path class="cls-3" d="M205,180.54v-7.8c0-.61,0-.62.58-.61h6a11.27,11.27,0,0,1,3.56.55,7.05,7.05,0,0,1,4.91,5.16,10.43,10.43,0,0,1,0,5.35,7.26,7.26,0,0,1-4.86,5.22,11,11,0,0,1-3.63.6h-6.09a1.94,1.94,0,0,1-.34,0,.2.2,0,0,1-.18-.18c0-.2,0-.4,0-.61v-7.66m3.83,1.24c0,1.14,0,2.28,0,3.41,0,.39,0,.43.44.43.68,0,1.36,0,2,0a6.93,6.93,0,0,0,2.21-.38,4.23,4.23,0,0,0,2.65-2.84,6.47,6.47,0,0,0,.1-3.24,4.23,4.23,0,0,0-3.23-3.44,15.92,15.92,0,0,0-4-.19c-.12,0-.19.1-.2.23v6Z"/><path class="cls-3" d="M214.1,159.77a6.77,6.77,0,0,1,1.72-4.77,6.67,6.67,0,0,1,4.64-2.32,6.94,6.94,0,0,1,5.06,1.47,6.79,6.79,0,0,1,2.58,4.73,7.25,7.25,0,0,1-.8,4.36,6.7,6.7,0,0,1-5.27,3.58,6.94,6.94,0,0,1-7.92-6.44c0-.2,0-.41,0-.61m10.34-2.24a3.74,3.74,0,0,0-6.66,0,4.77,4.77,0,0,0,.1,4.59,3.7,3.7,0,0,0,6.38.12,4.76,4.76,0,0,0,.68-2.56,4.57,4.57,0,0,0-.5-2.15"/><path class="cls-3" d="M212.43,166.46c-.1.1-.21.07-.32.07-.84,0-1.69,0-2.53,0a.61.61,0,0,1-.63-.4c-.58-1.18-1.18-2.36-1.78-3.53a3.16,3.16,0,0,0-.57-1l-1.16,0h-.27a.21.21,0,0,0-.21.22v4.1c0,.14,0,.27,0,.41a.21.21,0,0,1-.22.21h-2.46c-.23,0-.29-.06-.3-.27s0-.32,0-.48v-12c0-.83-.06-.75.79-.75h4.17a6.61,6.61,0,0,1,1.88.25,4,4,0,0,1,2.93,4.45,4.09,4.09,0,0,1-1.89,3.24l-.11.08a.2.2,0,0,0-.08.29l.26.48,2.32,4.18c.08.16.22.29.2.49M205,157.29v1.57a.23.23,0,0,0,.25.25c.62,0,1.23,0,1.84,0a1.64,1.64,0,0,0,1.54-1.24,2.38,2.38,0,0,0,.06-.75,1.58,1.58,0,0,0-1.52-1.54c-.61,0-1.23,0-1.84,0-.28,0-.33,0-.33.31,0,.48,0,.95,0,1.43Z"/><path class="cls-3" d="M275.74,166.46c-.07.08-.16.07-.25.07h-2.67c-.34,0-.35,0-.47-.36-.25-.73-.49-1.47-.74-2.2-.05-.13-.09-.26-.15-.38a.23.23,0,0,0-.21-.15H271c-1.28,0-2.55,0-3.83,0-.47,0-.47,0-.62.46-.26.75-.5,1.51-.76,2.27-.12.37-.13.37-.53.37h-2.46a1.9,1.9,0,0,1-.25,0,.87.87,0,0,1,.1-.49l4.66-12.48.12-.32a.3.3,0,0,1,.31-.21h2.94a.27.27,0,0,1,.27.18c.06.14.12.29.17.44q2.25,6.16,4.51,12.32a1.18,1.18,0,0,1,.13.52m-8.11-5.41h2.87a.13.13,0,0,0,.12-.14,2,2,0,0,0-.08-.33l-1.29-4a.78.78,0,0,0-.22-.39c-.55,1.51-1,3-1.51,4.52a.44.44,0,0,0,0,.34.56.56,0,0,0,.12,0"/><path class="cls-3" d="M230.77,159.82q0-3.1,0-6.22c0-.6,0-.6.59-.6h4.31a6.18,6.18,0,0,1,1.81.25,4,4,0,0,1,2.92,3.72,5.31,5.31,0,0,1-.07,1.49,4,4,0,0,1-2.27,2.83,4.35,4.35,0,0,1-1.84.46l-1.71,0c-.13,0-.27,0-.41,0s-.33.07-.35.38v3.62a5.15,5.15,0,0,1,0,.55.19.19,0,0,1-.21.21H231a.21.21,0,0,1-.22-.22c0-.18,0-.36,0-.54v-6m3-2.46v1.7a.2.2,0,0,0,.21.22c.64,0,1.28,0,1.91,0a1.69,1.69,0,0,0,1.48-1.69,1.85,1.85,0,0,0-1.25-2,.86.86,0,0,0-.27,0l-1.84,0c-.16,0-.24.1-.24.26v1.57Z"/><path class="cls-3" d="M218.82,199.18l1.37,2.48c.11.19.22.39.32.6s0,.19-.11.19h-1.64a.38.38,0,0,1-.36-.27L217.29,200c-.07-.14-.14-.29-.22-.43a.33.33,0,0,0-.32-.2c-.91,0-.83-.11-.83.77,0,.67,0,1.33,0,2,0,.27,0,.32-.31.33h-1.23c-.21,0-.27-.07-.28-.3s0-.28,0-.41v-7c0-.11,0-.22,0-.34,0-.35,0-.38.4-.38q1.37,0,2.73,0a3.84,3.84,0,0,1,.75.09,2.68,2.68,0,0,1,1.15,4.72c-.1.08-.24.13-.3.32m-2.63-3.54c-.15,0-.27.07-.27.24,0,.59,0,1.18,0,1.77a.17.17,0,0,0,.17.18,8.26,8.26,0,0,0,1.22,0,1.1,1.1,0,0,0-.11-2.17c-.16,0-.32,0-.48,0h-.54"/><path class="cls-3" d="M171.94,152.81a3.94,3.94,0,0,1,4,4.05,4,4,0,1,1-8,0,3.92,3.92,0,0,1,4-4m2.1,3.42a2.13,2.13,0,0,0-1.95-1.79,2.09,2.09,0,0,0-2.22,1.54,2.87,2.87,0,0,0,0,1.74,2.13,2.13,0,0,0,4.08.06,3.72,3.72,0,0,0,.15-1c0-.17,0-.38-.06-.58"/><path class="cls-3" d="M171.92,200.54h-1.16a.37.37,0,0,0-.4.3c-.14.43-.29.86-.42,1.29a.41.41,0,0,1-.44.34c-.46,0-.92,0-1.37,0-.22,0-.26-.09-.19-.31l.24-.65,2.56-6.84a3,3,0,0,0,.12-.32.37.37,0,0,1,.39-.3h1.57a.29.29,0,0,1,.31.21c.05.11.08.21.12.32.9,2.46,1.81,4.91,2.71,7.37a3.18,3.18,0,0,1,.1.33.14.14,0,0,1-.15.17h-1.64a.31.31,0,0,1-.29-.24l-.31-.9c-.06-.18-.12-.35-.17-.52a.32.32,0,0,0-.35-.26Zm.43-1.48a1,1,0,0,0,.52-.06,13.07,13.07,0,0,0-1-2.91,3.89,3.89,0,0,0-.16.38c-.25.8-.51,1.6-.76,2.4a.77.77,0,0,0,0,.18h1.34"/><path class="cls-3" d="M222,198.29V194.8c0-.18,0-.36,0-.54a.22.22,0,0,1,.23-.21h2.66a5.26,5.26,0,0,1,.89.08,2.52,2.52,0,0,1,2.2,2.75,2.6,2.6,0,0,1-2.56,2.6c-.43,0-.87,0-1.3,0-.23,0-.29.06-.29.28,0,.64,0,1.28,0,1.91,0,.19,0,.37,0,.55a.2.2,0,0,1-.22.21c-.45,0-.91,0-1.36,0-.17,0-.23-.11-.24-.27v-3.89m2.1-2.66c-.15,0-.26.07-.26.24v1.83c0,.16.08.26.24.26a8.64,8.64,0,0,0,1,0,1.09,1.09,0,0,0,1-1.17,1.1,1.1,0,0,0-1.1-1.14h-.89"/></g></g></svg>